<svg width="855" height="324" viewBox="0 0 855 324" fill="none" xmlns="http://www.w3.org/2000/svg">
<g clip-path="url(#clip0_2180_3483)">
<path opacity="0.06" d="M0.5 261.789H150.146V316.593H213.171V261.789H251.838V208.964H213.171V4.81836H130.66L0.5 209.877V261.789ZM151.364 208.964H66.8739V206.528L148.928 76.6727H151.364V208.964Z" fill="black"/>
<path opacity="0.06" d="M426.575 323.444C504.975 323.444 552.32 263.768 552.472 161.01C552.624 59.0137 504.671 0.555908 426.575 0.555908C348.327 0.555908 300.83 58.8614 300.678 161.01C300.373 263.464 348.022 323.292 426.575 323.444ZM426.575 268.792C390.8 268.792 367.66 232.865 367.813 161.01C367.965 90.2216 390.952 54.5989 426.575 54.5989C462.045 54.5989 485.185 90.2216 485.185 161.01C485.337 232.865 462.198 268.792 426.575 268.792Z" fill="black"/>
<path opacity="0.06" d="M603.329 261.789H752.975V316.593H816V261.789H854.667V208.964H816V4.81836H733.489L603.329 209.877V261.789ZM754.193 208.964H669.703V206.528L751.757 76.6727H754.193V208.964Z" fill="black"/>
</g>
<defs>
<clipPath id="clip0_2180_3483">
<rect width="854.167" height="322.888" fill="white" transform="translate(0.5 0.555908)"/>
</clipPath>
</defs>
</svg>



