<svg width="31" height="10" viewBox="0 0 31 10" fill="none" xmlns="http://www.w3.org/2000/svg">
<path d="M0.791669 5.021C0.797256 5.37848 0.944443 5.71913 1.20092 5.9682C1.45741 6.21727 1.80223 6.3544 2.15971 6.34951L25.1027 6.34951V9.0935C25.1027 9.67517 25.8048 9.96641 26.2151 9.55478L30.3087 5.4612C30.5638 5.20613 30.5638 4.7937 30.3087 4.53863L26.2151 0.445048C25.8048 0.0334232 25.1027 0.32601 25.1027 0.906334V3.65032L2.15971 3.65032C1.97915 3.64785 1.79993 3.68164 1.63266 3.74968C1.46539 3.81772 1.31348 3.91863 1.18591 4.04644C1.05835 4.17425 0.957725 4.32636 0.890007 4.49376C0.822288 4.66116 0.788848 4.84045 0.791669 5.021Z" fill="white"/>
</svg>
