<svg width="33" height="11" viewBox="0 0 33 11" fill="none" xmlns="http://www.w3.org/2000/svg">
<path d="M0.827932 5.87715C0.833812 6.25334 0.988706 6.61183 1.25862 6.87394C1.52853 7.13605 1.89141 7.28036 2.26761 7.27521L26.412 7.27521V10.1629C26.412 10.775 27.1508 11.0815 27.5826 10.6483L31.8905 6.34039C32.159 6.07196 32.159 5.63794 31.8905 5.36951L27.5826 1.06158C27.1508 0.628402 26.412 0.93631 26.412 1.54702V4.43469L2.26761 4.43469C2.07759 4.43209 1.88899 4.46765 1.71296 4.53925C1.53693 4.61085 1.37706 4.71705 1.24282 4.85155C1.10857 4.98606 1.00268 5.14613 0.931419 5.3223C0.860155 5.49846 0.824964 5.68713 0.827932 5.87715Z" fill="black"/>
</svg>
