<svg width="62" height="70" viewBox="0 0 62 70" fill="none" xmlns="http://www.w3.org/2000/svg">
<path fill-rule="evenodd" clip-rule="evenodd" d="M11.9684 0.14571L11.9574 0.145737L11.9574 0.145745C11.7745 0.511707 11.7745 0.511709 11.7525 0.850229V1.27109V1.75417C11.7525 1.9335 11.7525 2.10916 11.7543 2.283V4.04148C11.7552 4.25106 11.7557 4.46063 11.7562 4.6702C11.7566 4.87966 11.7571 5.08913 11.758 5.29859C11.758 6.3965 11.758 7.49441 11.7598 8.59232C11.7623 9.35122 11.7631 10.1101 11.7639 10.869C11.7643 11.2483 11.7647 11.6276 11.7653 12.0068L11.7653 12.0157C11.7671 14.2251 11.769 16.4362 11.7726 18.6455C11.7745 18.8889 11.7745 19.1231 11.7745 19.3591L11.7636 19.3591C10.4717 19.3555 9.18159 19.3518 7.88969 19.35C7.23025 19.35 6.57264 19.3482 5.91321 19.3463L5.9098 19.3463C5.26386 19.3445 4.61609 19.3427 3.97016 19.3427C3.84756 19.3427 3.7245 19.3422 3.60144 19.3418C3.47838 19.3413 3.35533 19.3408 3.23273 19.3408C3.10943 19.3408 2.98799 19.3404 2.86723 19.3399C2.74784 19.3395 2.62911 19.339 2.50994 19.339H1.84387C1.77582 19.3388 1.71044 19.338 1.64718 19.3372C1.20014 19.3316 0.859006 19.3273 0.4294 19.5421C0.425741 20.8834 0.422081 22.2247 0.420251 23.566C0.420251 24.2485 0.418421 24.9329 0.416591 25.6154L0.416591 25.6155C0.414761 26.2852 0.412932 26.9549 0.412932 27.6246C0.412932 27.7517 0.412474 27.8789 0.412017 28.0061C0.411559 28.1333 0.411102 28.2604 0.411102 28.3876C0.411102 28.512 0.410644 28.6369 0.410187 28.7618C0.409729 28.8867 0.409272 29.0116 0.409272 29.136V29.8259C0.407442 30.179 0.412932 30.534 0.4294 30.8872C0.612385 31.0702 0.612385 31.0702 1.05155 31.0994C1.251 31.1013 1.4468 31.1049 1.64076 31.1086L2.30682 31.1196C2.67096 31.1232 3.0351 31.1287 3.39924 31.1342C3.61095 31.1372 3.82285 31.1405 4.03482 31.1437C4.46228 31.1502 4.89001 31.1568 5.31692 31.1617C5.64813 31.1662 5.97979 31.1713 6.31145 31.1763C6.64311 31.1813 6.97477 31.1864 7.30597 31.1909C8.59468 31.211 9.88339 31.2293 11.1721 31.2476L11.1761 31.2477L11.5915 31.2532L11.5921 31.3093C11.6102 32.9485 11.6283 34.5894 11.6482 36.2285C11.6527 36.6497 11.6577 37.071 11.6628 37.4924C11.6678 37.9186 11.6729 38.3451 11.6775 38.772L11.7049 41.2551L11.7159 42.2066C11.7251 43.0703 11.7342 43.9322 11.7507 44.794C11.9465 50.9844 14.0819 57.237 18.6401 61.5756C18.7225 61.6521 18.8039 61.7271 18.8849 61.8017C18.9548 61.8661 19.0243 61.9301 19.0939 61.9946C20.9438 63.7677 22.9603 65.2773 25.244 66.4503C25.318 66.4863 25.3913 66.5219 25.4643 66.5573C25.5986 66.6225 25.7314 66.687 25.8643 66.7522C30.1827 68.8748 35.041 69.8135 39.8425 69.2024L39.848 69.2015C40.0841 69.1658 40.0858 69.1655 40.3201 69.131C45.9871 68.3735 51.2772 65.6049 55.1474 61.3999C59.6506 56.3751 62.0587 49.9341 61.7513 43.1691C61.7403 42.9733 61.7403 42.9733 61.7293 42.7812C61.4274 37.2056 58.9992 31.4892 55.1547 27.4251C55.0906 27.3601 55.0269 27.2965 54.9638 27.2333C54.9007 27.1702 54.8381 27.1076 54.7759 27.0445C48.139 20.3546 40.6019 19.2951 31.5112 19.2402C30.6832 19.2347 29.8551 19.2274 29.027 19.2201L29.0244 19.2201C27.4087 19.2036 25.7948 19.1908 24.1808 19.1798C24.0946 19.1789 24.0093 19.1784 23.9247 19.178C23.8386 19.1775 23.7533 19.1771 23.6685 19.1762C23.6502 16.9456 23.6319 14.715 23.6117 12.4862C23.6072 11.9155 23.6021 11.3448 23.597 10.7744C23.592 10.209 23.587 9.64378 23.5825 9.07905L23.555 5.73592L23.544 4.46967C23.5413 4.16408 23.539 3.8585 23.5367 3.55292C23.5344 3.24733 23.5322 2.94175 23.5294 2.63616L23.5239 2.07989L23.5238 2.0639C23.522 1.88839 23.5203 1.7179 23.5203 1.5474L23.5148 1.06615C23.5129 0.820951 23.5056 0.573922 23.4855 0.328722C23.4162 0.25944 23.3732 0.21639 23.3219 0.188448C23.2377 0.14259 23.1314 0.137424 22.8505 0.123779C22.6419 0.123779 22.4406 0.123779 22.2412 0.125609H21.1817C21.0554 0.126524 20.9292 0.126982 20.8029 0.127439C20.6767 0.127896 20.5504 0.128354 20.4242 0.129269C19.7636 0.129269 19.103 0.129269 18.4424 0.131099C17.9852 0.133537 17.528 0.134351 17.0714 0.135164C16.8427 0.135571 16.6141 0.135978 16.3857 0.136588C14.9126 0.138414 13.4414 0.14206 11.9684 0.14571ZM13.5153 19.3101C13.4041 19.3106 13.2938 19.311 13.1839 19.312C13.1301 19.3121 13.0774 19.3119 13.0258 19.3117C12.3079 19.309 11.8161 19.3072 11.7274 20.183V20.7685C11.7265 20.8801 11.726 20.9903 11.7255 21.0996C11.7251 21.2108 11.7246 21.3211 11.7237 21.4309C11.7255 21.7932 11.7255 22.1537 11.7255 22.5142C11.7237 23.0192 11.7237 23.5261 11.7255 24.0311L11.7255 24.0334C11.7274 24.6914 11.7292 25.3476 11.7274 26.0056L11.7274 26.0087C11.7255 26.5218 11.7237 27.0331 11.7255 27.5463V28.2801C11.7255 28.4024 11.7251 28.5234 11.7246 28.6437C11.7242 28.7627 11.7237 28.8809 11.7237 28.9992C11.7246 29.111 11.7251 29.2211 11.7255 29.3305C11.726 29.4411 11.7264 29.5511 11.7274 29.6616C11.7274 30.2453 11.7274 30.2453 11.7749 30.7046L11.7749 30.7046C12.1409 31.0706 12.1409 31.0706 12.6002 31.12L13.1876 31.1255L13.219 31.126C13.4331 31.1295 13.6425 31.1329 13.8518 31.1346C14.0327 31.1365 14.2141 31.1378 14.3957 31.1392C14.576 31.1406 14.7564 31.1419 14.9369 31.1438C15.5737 31.1529 16.2105 31.1602 16.8491 31.1657C17.8921 31.1749 18.9351 31.1859 19.9781 31.1987C20.2233 31.2023 20.4685 31.206 20.7119 31.2078L21.4347 31.2133C21.5451 31.2151 21.6537 31.2165 21.7616 31.2178C21.8738 31.2192 21.9852 31.2206 22.0971 31.2225C22.4375 31.2243 22.7796 31.2334 23.12 31.2536C23.2444 31.4926 23.3088 31.6165 23.3373 31.748C23.3678 31.8894 23.3568 32.0397 23.3341 32.3515C23.335 32.4178 23.3355 32.4837 23.3359 32.5492C23.3364 32.6155 23.3368 32.6813 23.3377 32.7467C23.3396 33.0322 23.3432 33.3158 23.3469 33.5994L23.3579 35.0029C23.3706 35.9938 23.3798 36.9865 23.3889 37.9774L23.389 37.9911L23.389 37.9947C23.4 39.1682 23.411 40.3418 23.4238 41.5153L23.4238 41.5168C23.4293 41.9903 23.4347 42.4637 23.4384 42.9353C23.4402 43.2354 23.4421 43.5355 23.4457 43.8356L23.4512 44.2565C23.4695 47.3654 24.3332 50.5292 26.5473 52.8073L26.9627 53.2117C27.2024 53.4624 27.4439 53.7113 27.6891 53.9583C30.3552 56.5439 33.7093 57.6875 37.3709 57.6564C40.9921 57.5649 44.1321 55.8742 46.6171 53.3032C48.9062 50.6573 50.1505 47.5703 50.0791 44.0643C49.9492 40.798 48.6043 37.3085 46.1614 35.0487C46.0425 34.9407 45.9254 34.8346 45.8101 34.7303L45.4112 34.3314C42.5786 31.5811 38.9445 30.9608 35.1384 30.9644C34.8329 30.9644 34.5254 30.9644 34.2199 30.9626C33.4092 30.9535 32.5986 30.948 31.788 30.9461C30.4613 30.9443 29.1365 30.9352 27.8117 30.926C27.3451 30.9224 26.8785 30.9187 26.4137 30.9187C26.2673 30.9178 26.121 30.9173 25.9746 30.9169C25.8282 30.9164 25.6818 30.916 25.5354 30.915C25.4665 30.915 25.3986 30.9146 25.3309 30.9141C25.2637 30.9137 25.1966 30.9132 25.1292 30.9132C24.7028 30.9132 24.2801 30.9059 23.8519 30.8876C23.6195 30.6955 23.6195 30.6955 23.6415 30.2673L23.636 29.6817C23.6342 29.4566 23.6324 29.2371 23.6287 29.0193C23.6269 28.657 23.6232 28.2947 23.6195 27.9324C23.6067 26.8985 23.5939 25.8628 23.5848 24.829C23.5793 24.183 23.572 23.5371 23.5646 22.8912L23.5646 22.8904C23.561 22.6454 23.5573 22.4005 23.5555 22.1556L23.55 21.4364C23.5482 21.3259 23.5469 21.2176 23.5455 21.1101C23.5441 20.997 23.5427 20.8848 23.5409 20.7722C23.5378 20.4435 23.5364 20.2987 23.5272 20.1545C23.5199 20.041 23.5077 19.9278 23.486 19.7255C23.2936 19.5331 23.2023 19.4419 23.0924 19.3917C22.9931 19.3464 22.8786 19.3345 22.6607 19.312H22.0752C21.9633 19.3111 21.8532 19.3106 21.7438 19.3101C21.6331 19.3097 21.5232 19.3092 21.4128 19.3083C21.0523 19.3101 20.6918 19.3101 20.3295 19.3101C20.1611 19.3101 19.9928 19.3099 19.8244 19.3097C19.4877 19.3093 19.1511 19.3089 18.8144 19.3101C18.1556 19.312 17.4969 19.3138 16.8381 19.312C16.3258 19.3101 15.8116 19.3083 15.2992 19.3101H14.5655C14.4419 19.3101 14.3207 19.3097 14.2004 19.3092C14.082 19.3088 13.9644 19.3083 13.8463 19.3083C13.7348 19.3092 13.6246 19.3097 13.5153 19.3101Z" fill="#FFB51B"/>
</svg>
