<svg width="53" height="54" viewBox="0 0 53 54" fill="none" xmlns="http://www.w3.org/2000/svg">
<path d="M18.4366 0.713989C9.7111 0.713989 5.88362 6.53208 5.88362 11.154C5.88362 14.6901 7.76469 17.3412 10.2321 18.9505C12.6996 20.5598 15.7327 21.2552 18.4366 21.2552C19.603 21.2552 20.8279 21.1091 22.0429 20.8228C24.6461 23.5693 28.6812 24.6787 32.1307 24.6787C34.845 24.6787 37.8832 23.9437 40.3485 22.2871C42.8138 20.6306 44.6836 17.9338 44.6836 14.3635C44.6836 11.5242 43.4189 8.90405 41.2088 7.06178C38.9987 5.21952 35.8736 4.13752 32.1307 4.13752C30.7857 4.13752 29.5597 4.27741 28.4375 4.52311C28.1496 4.21365 27.8462 3.91459 27.5147 3.63825C25.3046 1.79599 22.1795 0.713989 18.4366 0.713989ZM18.4366 2.99634C21.7404 2.99634 24.3207 3.9469 26.0548 5.39237C26.3674 5.65295 26.645 5.93332 26.904 6.22373L26.9062 6.22596C26.9921 6.44255 27.1422 6.62766 27.3364 6.75643C28.2318 7.9694 28.7071 9.38857 28.7071 10.94C28.7071 13.7455 27.3715 15.632 25.3817 16.9691C23.3918 18.3061 20.7252 18.9728 18.4366 18.9728C16.1375 18.9728 13.4658 18.3368 11.4781 17.0404C9.49034 15.744 8.16597 13.916 8.16597 11.154C8.16597 7.73284 10.6857 2.99634 18.4366 2.99634ZM32.1307 6.41987C35.4345 6.41987 38.0148 7.37043 39.7489 8.8159C41.483 10.2614 42.4013 12.1862 42.4013 14.3635C42.4013 17.169 41.0657 19.0555 39.0758 20.3926C37.0859 21.7297 34.4193 22.3963 32.1307 22.3963C29.5784 22.3963 26.6201 21.5801 24.5659 19.9936C25.2912 19.6786 25.994 19.3073 26.6544 18.8636C29.1197 17.2071 30.9895 14.5102 30.9895 10.94C30.9895 9.38752 30.5991 7.90601 29.8951 6.57589C30.5864 6.47764 31.3266 6.41987 32.1307 6.41987ZM4.17185 18.9728C2.10283 18.9728 0.177734 20.3649 0.177734 22.3963C0.177734 24.4278 2.10283 25.8199 4.17185 25.8199C6.24088 25.8199 8.16597 24.4278 8.16597 22.3963C8.16597 20.3649 6.24088 18.9728 4.17185 18.9728ZM48.6777 18.9728C46.6087 18.9728 44.6836 20.3649 44.6836 22.3963C44.6836 24.4278 46.6087 25.8199 48.6777 25.8199C50.7468 25.8199 52.6719 24.4278 52.6719 22.3963C52.6719 20.3649 50.7468 18.9728 48.6777 18.9728ZM4.17185 21.2552C5.2541 21.2552 5.88362 21.9068 5.88362 22.3963C5.88362 22.8859 5.2541 23.5375 4.17185 23.5375C3.08961 23.5375 2.46009 22.8859 2.46009 22.3963C2.46009 21.9068 3.08961 21.2552 4.17185 21.2552ZM48.6777 21.2552C49.76 21.2552 50.3895 21.9068 50.3895 22.3963C50.3895 22.8859 49.76 23.5375 48.6777 23.5375C47.5955 23.5375 46.966 22.8859 46.966 22.3963C46.966 21.9068 47.5955 21.2552 48.6777 21.2552ZM13.9075 25.8199C11.436 25.8199 9.43297 26.4386 8.02332 27.6186C6.61368 28.7985 5.88362 30.5313 5.88362 32.3816C5.88362 33.0983 6.04876 33.8279 6.20011 34.4522C6.26948 34.7384 6.28553 34.7684 6.34053 34.9649C6.08594 35.3721 5.88362 35.9336 5.88362 36.661C5.88362 37.5645 6.12728 38.3401 6.64589 38.8587C6.87817 39.091 7.12867 39.0519 7.39033 39.1529C7.54056 39.7599 7.6941 40.3778 7.96091 40.8781C8.14498 41.2232 8.34203 41.5335 8.55156 41.803C8.59974 41.865 8.68917 41.9116 8.73656 41.9702V43.7399C8.57913 44.0799 8.25438 44.4095 7.57532 44.7696C6.85205 45.1532 5.85861 45.5192 4.82491 45.9977C3.79121 46.4763 2.69912 47.0754 1.80926 48.0327C0.919401 48.99 0.282771 50.3251 0.179963 51.9978C0.170555 52.1532 0.193031 52.3089 0.246011 52.4552C0.298991 52.6016 0.381354 52.7356 0.488035 52.849C0.594715 52.9623 0.723458 53.0527 0.866346 53.1144C1.00923 53.1762 1.16325 53.2081 1.31891 53.2081H24.1424H25.2836H27.5303H28.7071H51.5307C51.6863 53.2081 51.8404 53.1762 51.9832 53.1144C52.1261 53.0527 52.2549 52.9623 52.3616 52.849C52.4682 52.7356 52.5506 52.6016 52.6036 52.4552C52.6566 52.3089 52.679 52.1532 52.6696 51.9978C52.5645 50.2876 51.8155 48.9241 50.8063 47.977C49.7971 47.0298 48.5744 46.4488 47.4028 45.9755C46.2313 45.5021 45.094 45.1334 44.2624 44.7429C43.4771 44.3742 43.1134 44.028 42.9719 43.7332V41.968C43.0191 41.9094 43.1087 41.8628 43.1568 41.8008C43.3661 41.5314 43.5613 41.2231 43.7453 40.8781C44.012 40.3779 44.1675 39.7597 44.3181 39.1529C44.5797 39.0518 44.8302 39.091 45.0625 38.8587C45.5811 38.3401 45.8248 37.5645 45.8248 36.661C45.8248 35.9336 45.6225 35.3721 45.3679 34.9649C45.4229 34.7684 45.4389 34.7384 45.5083 34.4522C45.6596 33.8279 45.8248 33.0983 45.8248 32.3816C45.8248 31.1764 45.5152 29.8793 44.7081 28.8065C44.0345 27.9111 42.9043 27.3352 41.5833 27.1327L41.1353 26.3793C41.0344 26.209 40.8909 26.0679 40.7189 25.9698C40.547 25.8717 40.3525 25.8201 40.1546 25.8199C37.6831 25.8199 35.68 26.4386 34.2704 27.6186C32.8607 28.7985 32.1307 30.5313 32.1307 32.3816C32.1307 33.0983 32.2958 33.8279 32.4472 34.4522C32.5165 34.7384 32.5326 34.7684 32.5876 34.9649C32.333 35.3721 32.1307 35.9336 32.1307 36.661C32.1307 37.5645 32.3743 38.3401 32.8929 38.8587C33.1252 39.091 33.3757 39.0519 33.6374 39.1529C33.7876 39.7599 33.9412 40.3778 34.208 40.8781C34.392 41.2232 34.5891 41.5335 34.7986 41.803C34.8468 41.865 34.9362 41.9116 34.9836 41.9702V43.7399C34.8262 44.0799 34.5014 44.4095 33.8224 44.7696C33.0991 45.1532 32.1057 45.5192 31.072 45.9977C30.0383 46.4763 28.9462 47.0754 28.0563 48.0327C27.1665 48.99 26.5298 50.3251 26.427 51.9978C26.4256 52.0208 26.4248 52.0439 26.4248 52.0669C26.4247 52.0439 26.424 52.0208 26.4226 51.9978C26.3175 50.2876 25.5685 48.9241 24.5592 47.977C23.55 47.0298 22.3273 46.4488 21.1558 45.9755C19.9842 45.5021 18.8469 45.1334 18.0153 44.7429C17.2301 44.3742 16.8664 44.028 16.7248 43.7332V41.968C16.7721 41.9094 16.8617 41.8628 16.9098 41.8008C17.119 41.5314 17.3142 41.2231 17.4982 40.8781C17.765 40.3779 17.9205 39.7597 18.071 39.1529C18.3327 39.0518 18.5832 39.091 18.8155 38.8587C19.3341 38.3401 19.5777 37.5645 19.5777 36.661C19.5777 35.9336 19.3754 35.3721 19.1208 34.9649C19.1758 34.7684 19.1919 34.7384 19.2612 34.4522C19.4126 33.8279 19.5777 33.0983 19.5777 32.3816C19.5777 31.1764 19.2682 29.8793 18.4611 28.8065C17.7874 27.9111 16.6572 27.3352 15.3362 27.1327L14.8882 26.3793C14.7873 26.209 14.6438 26.0679 14.4719 25.9698C14.3 25.8717 14.1055 25.8201 13.9075 25.8199ZM1.8895 28.1022C1.43551 28.1022 1.00012 28.2826 0.679099 28.6036C0.358081 28.9246 0.177734 29.36 0.177734 29.814C0.177734 30.268 0.358081 30.7034 0.679099 31.0244C1.00012 31.3454 1.43551 31.5258 1.8895 31.5258C2.34349 31.5258 2.77888 31.3454 3.0999 31.0244C3.42092 30.7034 3.60126 30.268 3.60126 29.814C3.60126 29.36 3.42092 28.9246 3.0999 28.6036C2.77888 28.2826 2.34349 28.1022 1.8895 28.1022ZM50.9601 28.1022C50.5061 28.1022 50.0707 28.2826 49.7497 28.6036C49.4287 28.9246 49.2483 29.36 49.2483 29.814C49.2483 30.268 49.4287 30.7034 49.7497 31.0244C50.0707 31.3454 50.5061 31.5258 50.9601 31.5258C51.4141 31.5258 51.8495 31.3454 52.1705 31.0244C52.4915 30.7034 52.6719 30.268 52.6719 29.814C52.6719 29.36 52.4915 28.9246 52.1705 28.6036C51.8495 28.2826 51.4141 28.1022 50.9601 28.1022ZM13.3057 28.1825L13.6044 28.684C13.7053 28.8542 13.8488 28.9954 14.0207 29.0934C14.1927 29.1915 14.3871 29.2432 14.5851 29.2434C15.6543 29.2434 16.2085 29.6118 16.6356 30.1795C17.0627 30.7472 17.2954 31.5898 17.2954 32.3816C17.2954 32.6635 17.1752 33.3604 17.0413 33.9129C16.9073 34.4654 16.7761 34.898 16.7761 34.898C16.7058 35.1269 16.7093 35.3722 16.7861 35.599C16.8629 35.8258 17.0091 36.0227 17.204 36.1618C17.2189 36.1838 17.2954 36.2874 17.2954 36.661C17.2954 37.1841 17.1824 37.2644 17.2018 37.245C17.2211 37.2257 17.2478 37.2316 17.1527 37.2316C16.8717 37.2316 16.6005 37.3353 16.3911 37.5229C16.1818 37.7104 16.049 37.9686 16.0182 38.248C15.9708 38.6792 15.7478 39.3121 15.4855 39.8037C15.3544 40.0496 15.2135 40.2634 15.1066 40.4011C14.9997 40.5387 14.8694 40.5936 15.0621 40.4947C14.8753 40.5907 14.7186 40.7364 14.6093 40.9157C14.4999 41.095 14.4422 41.301 14.4424 41.511V44.0787C14.4428 44.2174 14.4685 44.3549 14.5182 44.4843C14.9711 45.6721 16.005 46.3214 17.0435 46.809C18.082 47.2967 19.2329 47.6595 20.2999 48.0906C21.3669 48.5218 22.3319 49.0179 22.9968 49.6419C23.3844 50.0057 23.6548 50.4319 23.8527 50.9258H2.94375C3.1213 50.4869 3.18122 49.9086 3.48091 49.5862C4.0514 48.9725 4.86361 48.4942 5.78332 48.0684C6.70303 47.6426 7.71239 47.2792 8.64517 46.7845C9.57796 46.2898 10.5133 45.6132 10.9431 44.4843C10.9928 44.3549 11.0185 44.2174 11.0189 44.0787V41.511C11.0189 41.3008 10.9609 41.0946 10.8511 40.9153C10.7414 40.7359 10.5843 40.5904 10.3971 40.4947C10.5895 40.5932 10.4594 40.5386 10.3525 40.4011C10.2456 40.2636 10.1068 40.0494 9.97581 39.8037C9.71373 39.3123 9.49013 38.6787 9.44311 38.248C9.41234 37.9686 9.27956 37.7104 9.07022 37.5229C8.86087 37.3353 8.58968 37.2316 8.30862 37.2316C8.21352 37.2316 8.24024 37.2257 8.25958 37.245C8.27893 37.2644 8.16597 37.1841 8.16597 36.661C8.16597 36.2874 8.24245 36.1838 8.25735 36.1618C8.45224 36.0227 8.59843 35.8258 8.67523 35.599C8.75204 35.3722 8.75556 35.1269 8.68529 34.898C8.68529 34.898 8.554 34.4654 8.42006 33.9129C8.28612 33.3604 8.16597 32.6635 8.16597 32.3816C8.16597 31.0937 8.59672 30.1162 9.48768 29.3704C10.2778 28.7091 11.5813 28.2838 13.3057 28.1825ZM39.5528 28.1825L39.8514 28.684C39.9524 28.8542 40.0958 28.9954 40.2678 29.0934C40.4397 29.1915 40.6342 29.2432 40.8321 29.2434C41.9014 29.2434 42.4556 29.6118 42.8827 30.1795C43.3098 30.7472 43.5424 31.5898 43.5424 32.3816C43.5424 32.6635 43.4223 33.3604 43.2883 33.9129C43.1544 34.4654 43.0231 34.898 43.0231 34.898C42.9529 35.1269 42.9564 35.3722 43.0332 35.599C43.11 35.8258 43.2562 36.0227 43.4511 36.1618C43.466 36.1838 43.5424 36.2874 43.5424 36.661C43.5424 37.1841 43.4295 37.2644 43.4488 37.245C43.4682 37.2257 43.4949 37.2316 43.3998 37.2316C43.1187 37.2316 42.8475 37.3353 42.6382 37.5229C42.4288 37.7104 42.2961 37.9686 42.2653 38.248C42.2179 38.6792 41.9948 39.3121 41.7326 39.8037C41.6015 40.0496 41.4606 40.2634 41.3537 40.4011C41.2468 40.5387 41.1164 40.5936 41.3091 40.4947C41.1223 40.5907 40.9656 40.7364 40.8563 40.9157C40.747 41.095 40.6893 41.301 40.6895 41.511V44.0787C40.6899 44.2174 40.7156 44.3549 40.7653 44.4843C41.2181 45.6721 42.2521 46.3214 43.2906 46.809C44.3291 47.2967 45.48 47.6595 46.5469 48.0906C47.6139 48.5218 48.5789 49.0179 49.2439 49.6419C49.6315 50.0057 49.9019 50.4319 50.0997 50.9258H29.1908C29.3684 50.4869 29.4283 49.9086 29.728 49.5862C30.2985 48.9725 31.1107 48.4942 32.0304 48.0684C32.9501 47.6426 33.9594 47.2792 34.8922 46.7845C35.825 46.2898 36.7604 45.6132 37.1902 44.4843C37.2399 44.3549 37.2656 44.2174 37.266 44.0787V41.511C37.266 41.3008 37.2079 41.0946 37.0982 40.9153C36.9885 40.7359 36.8313 40.5904 36.6441 40.4947C36.8366 40.5932 36.7064 40.5386 36.5995 40.4011C36.4926 40.2636 36.3539 40.0494 36.2229 39.8037C35.9608 39.3123 35.7372 38.6787 35.6902 38.248C35.6594 37.9686 35.5266 37.7104 35.3173 37.5229C35.1079 37.3353 34.8367 37.2316 34.5557 37.2316C34.4606 37.2316 34.4873 37.2257 34.5066 37.245C34.526 37.2644 34.413 37.1841 34.413 36.661C34.413 36.2874 34.4895 36.1838 34.5044 36.1618C34.6993 36.0227 34.8455 35.8258 34.9223 35.599C34.9991 35.3722 35.0026 35.1269 34.9324 34.898C34.9324 34.898 34.8011 34.4654 34.6671 33.9129C34.5332 33.3604 34.413 32.6635 34.413 32.3816C34.413 31.0937 34.8438 30.1162 35.7347 29.3704C36.5249 28.7091 37.8284 28.2838 39.5528 28.1825Z" fill="#2D7EFF"/>
</svg>
