<svg width="53" height="51" viewBox="0 0 53 51" fill="none" xmlns="http://www.w3.org/2000/svg">
<path d="M20.4629 0.141449C9.52814 0.141449 0.438843 8.08511 0.438843 18.0749C0.438843 22.8714 2.58301 27.2266 5.98425 30.4406L5.87726 30.9666C5.11053 33.2133 3.22492 34.4837 2.10603 34.8894C1.4552 35.1212 0.915819 35.4733 0.617152 36.0885C0.322943 36.6992 0.501251 37.5462 0.947023 37.9875C1.99013 39.0351 3.34528 38.9325 4.33489 38.9414C8.05709 38.986 12.4435 37.0335 15.1003 35.7051L15.1315 35.6918L16.0409 35.1658L15.6932 35.0588L15.7333 35.0677C17.2132 35.4109 18.7645 35.5179 20.2891 35.5179C29.9044 35.5179 38.1779 29.7719 40.0056 21.5028V21.4984C40.2507 20.3973 40.38 19.2517 40.38 18.0749C40.38 8.09402 31.3977 0.141449 20.4629 0.141449ZM20.4629 2.4238C30.2967 2.4238 38.0977 9.467 38.0977 18.0749C38.0977 19.0868 37.9862 20.0675 37.7767 21.008C36.2165 28.0691 28.9995 33.2356 20.2891 33.2356C18.8804 33.2356 17.4941 33.1286 16.2548 32.8433L15.7556 32.6962L14.0661 33.668C11.543 34.9295 7.19229 36.6948 4.36164 36.6591C3.97381 36.6591 3.93815 36.5833 3.66623 36.5521C5.28884 35.7586 7.16109 34.3188 8.05263 31.6709L8.07046 31.613L8.48057 29.6872L7.97685 29.2414C4.70934 26.3841 2.7212 22.4211 2.7212 18.0749C2.7212 9.47592 10.6292 2.4238 20.4629 2.4238ZM10.7094 10.412V12.6944H30.1094V10.412H10.7094ZM10.7094 16.1179V18.4003H30.1094V16.1179H10.7094ZM42.4172 20.9055C42.3592 21.271 42.3191 21.6366 42.2389 21.9977C42.1497 22.3899 42.0338 22.7733 41.9179 23.1611C47.1736 25.1894 50.6328 29.2771 50.6328 33.8195C50.6328 37.0781 48.9388 40.1227 45.8541 42.4006L45.2345 42.8598L45.4262 43.6087C46.0413 45.9668 48.1989 47.1838 49.6922 47.9951C47.3251 48.316 42.1809 47.7811 39.5955 44.7231L39.1631 44.206L38.5033 44.3397C37.4647 44.5448 36.2611 44.6473 34.8168 44.6473C27.7201 44.6473 21.9563 41.8969 19.714 37.7824C18.7868 37.7646 17.922 37.7022 17.1107 37.6041C19.2281 43.2119 26.0351 46.9297 34.8168 46.9297C36.1318 46.9297 37.2774 46.8494 38.3072 46.6934C40.8258 49.2432 44.9314 50.3488 48.2568 50.3488C48.4752 50.3488 48.6937 50.3443 48.9032 50.3354C50.8334 50.2462 52.0905 49.8005 52.6477 49.0114C52.8928 48.6548 52.9775 48.2358 52.8795 47.8257C52.6878 47.0099 51.9389 46.6087 50.9002 46.0515C49.8794 45.4988 48.5376 44.7721 47.9091 43.6889C51.1053 41.0499 52.9151 37.5016 52.9151 33.8195C52.9151 28.2206 48.7293 23.2235 42.4172 20.9055ZM10.7094 21.8238V24.1062H24.4035V21.8238H10.7094ZM39.2567 28.6709C38.6861 29.4732 38.0575 30.24 37.3666 30.9532H42.6624V28.6709H39.2567ZM33.0649 34.3767C31.4913 35.3218 29.7662 36.093 27.9341 36.6591H42.6624V34.3767H33.0649Z" fill="#2D7EFF"/>
</svg>
