<svg width="26" height="18" viewBox="0 0 26 18" fill="none" xmlns="http://www.w3.org/2000/svg">
<path fill-rule="evenodd" clip-rule="evenodd" d="M0.25 1.81274C0.25 1.22594 0.725697 0.750244 1.3125 0.750244H24.6875C25.2743 0.750244 25.75 1.22594 25.75 1.81274C25.75 2.39955 25.2743 2.87524 24.6875 2.87524H1.3125C0.725697 2.87524 0.25 2.39955 0.25 1.81274ZM0.25 9.25024C0.25 8.66344 0.725697 8.18774 1.3125 8.18774H24.6875C25.2743 8.18774 25.75 8.66344 25.75 9.25024C25.75 9.83705 25.2743 10.3127 24.6875 10.3127H1.3125C0.725697 10.3127 0.25 9.83705 0.25 9.25024ZM11.9375 16.6877C11.9375 16.1009 12.4132 15.6252 13 15.6252H24.6875C25.2743 15.6252 25.75 16.1009 25.75 16.6877C25.75 17.2745 25.2743 17.7502 24.6875 17.7502H13C12.4132 17.7502 11.9375 17.2745 11.9375 16.6877Z" fill="#1E1E1E"/>
</svg>
