<svg width="73" height="63" viewBox="0 0 73 63" fill="none" xmlns="http://www.w3.org/2000/svg">
<g clip-path="url(#clip0_2421_344)">
<path fill-rule="evenodd" clip-rule="evenodd" d="M11.0498 17.151C11.1627 17.1807 11.2756 17.2044 11.3944 17.2222L11.0082 14.1865C11.2043 13.4439 11.5013 12.8617 11.8993 12.434C12.3152 11.9884 12.832 11.7152 13.4499 11.5964C14.2697 11.5369 14.5133 12.137 15.3331 12.6597C17.8223 14.2519 19.9312 14.7865 23.0085 14.8281L22.6283 16.7054C22.557 16.7945 22.5214 16.9074 22.5273 17.0321C22.5273 17.0618 22.5333 17.0916 22.5452 17.1153L22.4917 17.3708C22.5808 17.3826 22.6759 17.3886 22.765 17.3886C22.8422 17.4302 22.9313 17.448 23.0204 17.4421C23.5432 17.3945 23.864 17.4361 23.9472 17.6084C24.066 17.846 23.9591 18.3332 23.6145 19.1233L21.9333 21.8917C21.3095 22.9194 20.6738 23.9531 19.8718 24.7017C19.1055 25.4205 18.1549 25.9017 16.8599 25.8958C15.6658 25.8898 14.7628 25.4324 14.0142 24.7492C13.236 24.0363 12.6122 23.068 12.0122 22.1174L10.5151 19.7411L10.5092 19.7292C10.0518 19.052 9.81413 18.4639 9.80225 18.0124C9.79631 17.8638 9.82007 17.7332 9.8676 17.6262C9.90918 17.5312 9.98047 17.4539 10.0696 17.3886C10.2419 17.2757 10.4973 17.2044 10.8359 17.1985C10.925 17.2044 10.9904 17.1866 11.0498 17.151ZM48.0429 9.36857L38.7337 15.6182L39.5179 11.727C34.8366 9.72502 30.7494 10.0636 27.0661 13.1885C29.1216 5.64372 35.0861 3.01196 41.0863 3.96842L41.8883 0L48.0429 9.36857ZM24.0957 52.6589L33.4049 46.4151L32.6207 50.3063C37.302 52.3083 41.3892 51.9697 45.0725 48.8449C43.017 56.3896 37.0525 59.0214 31.0523 58.0649L30.2503 62.0334L24.0957 52.6589ZM49.8905 26.3235L51.4113 26.2819L52.6767 26.2463C51.2034 21.7075 51.6965 17.5371 55.2431 13.9905C55.8431 15.939 57.1976 17.5431 59.4907 18.7312C60.5898 19.5451 61.6532 20.5312 62.6809 21.6659C62.8651 20.9174 62.17 20.0025 61.3264 19.0639C62.1047 19.45 62.8235 19.9906 63.3344 21.0243C63.9225 22.2303 63.9166 23.2402 63.7205 24.5472C63.6314 25.1532 63.4829 25.7235 63.269 26.2463H65.3721C67.588 21.5055 66.186 14.4598 61.6532 11.4775C60.263 10.5627 59.265 10.5983 57.6313 10.5983C55.7659 10.5983 54.8094 10.6577 53.2113 11.7152C50.8529 13.2776 49.4033 15.9747 48.7914 19.7233C48.6667 21.5887 48.5835 24.8205 49.8905 26.3235ZM55.6708 34.9495L56.8055 31.0107L56.2471 30.4048C55.9976 30.0365 55.9441 29.7216 56.0807 29.4424C56.3837 28.8483 57.0075 28.9552 57.5897 28.9552C58.2016 28.9552 58.9501 28.8424 59.1462 29.6028C59.2115 29.8582 59.1283 30.1256 58.9501 30.3988L58.3917 31.0048L59.5264 34.9435L57.5956 36.4644L55.6708 34.9495ZM65.8176 33.589C64.9562 31.8662 63.8691 30.3988 62.5977 29.0265C64.9859 29.9533 67.4276 30.8622 69.2395 31.9969C70.392 32.7157 70.9861 33.2623 71.4495 34.1356C72.4416 35.9891 72.5426 37.6584 72.697 39.6724L72.8456 41.6685C73.0891 44.9299 73.5109 44.3359 70.1663 44.3359H57.6016H45.5121C42.4289 44.3359 42.1021 45.1319 42.3041 42.411L42.5061 39.6724C42.6546 37.6584 42.7616 35.995 43.7537 34.1356C44.217 33.2623 44.8111 32.7217 45.9636 31.9969C47.7696 30.8622 50.2113 29.9473 52.6054 29.0265C51.3341 30.3988 50.2469 31.8662 49.3855 33.589L51.8747 33.5296L57.6016 38.508L63.3285 33.5296L65.8176 33.589ZM12.036 28.4265L14.7093 36.2921L16.0519 31.6286L15.3925 30.9097C15.0955 30.4761 15.0301 30.0959 15.1965 29.7691C15.5529 29.0622 16.2896 29.1929 16.9846 29.1929C17.7094 29.1929 18.6005 29.0562 18.8263 29.9592C18.9035 30.2622 18.8084 30.5771 18.5946 30.9038L17.9351 31.6226L19.2778 36.2861L21.7016 28.4206C23.4482 29.9949 28.6166 30.3097 30.5414 31.3791C31.1474 31.7177 31.6999 32.1514 32.1395 32.7336C32.8108 33.6187 33.2207 34.7772 33.3336 36.2445L33.7376 42.6012C33.6425 43.6408 33.0484 44.2408 31.89 44.3299H16.9906H1.84757C0.689128 44.2467 0.0950521 43.6467 0 42.6071L0.403971 36.2505C0.516846 34.7831 0.926758 33.6247 1.59806 32.7395C2.03768 32.1573 2.59017 31.7236 3.19613 31.385C5.12093 30.3157 10.2894 30.0008 12.036 28.4265ZM24.0422 16.6044L24.1373 12.7607C24.0244 11.1864 23.5016 9.99829 22.6759 9.10124C20.6382 6.89722 16.8361 6.33284 13.9667 7.36654C13.4855 7.53882 13.0281 7.76457 12.6063 8.02596C11.4241 8.78044 10.4617 9.87948 10.0815 11.2458C9.99235 11.5667 9.927 11.8934 9.8973 12.2142C9.83789 13.5627 9.8676 15.1667 9.96265 16.45C9.82601 16.5034 9.69531 16.5688 9.58244 16.6401C9.34481 16.8005 9.17253 17.0024 9.05965 17.252C8.95272 17.4836 8.89925 17.751 8.91113 18.0421C8.92896 18.6599 9.21411 19.4084 9.7666 20.2283L11.2637 22.6046C11.8934 23.6026 12.5528 24.6304 13.4202 25.4205C14.3232 26.2463 15.4163 26.7987 16.8777 26.8047C18.4401 26.8106 19.5807 26.2284 20.5075 25.3611C21.3986 24.5234 22.0699 23.4422 22.7234 22.3551L24.4284 19.551C24.4403 19.5332 24.4462 19.5154 24.4581 19.4976C24.9274 18.4342 25.0284 17.6916 24.7789 17.1985C24.6244 16.9014 24.3749 16.7113 24.0422 16.6044Z" fill="#16205F"/>
</g>
<defs>
<clipPath id="clip0_2421_344">
<rect width="73" height="62.0274" fill="white"/>
</clipPath>
</defs>
</svg>
