<svg width="73" height="61" viewBox="0 0 73 61" fill="none" xmlns="http://www.w3.org/2000/svg">
<g clip-path="url(#clip0_2421_352)">
<path fill-rule="evenodd" clip-rule="evenodd" d="M1.98422 0H71.0158C71.5416 0.00156712 72.0453 0.211121 72.4171 0.582893C72.7889 0.954666 72.9984 1.45845 73 1.98421V47.728C72.9984 48.2538 72.7889 48.7576 72.4171 49.1293C72.0453 49.5011 71.5416 49.7107 71.0158 49.7122H1.98422C1.72287 49.7115 1.46423 49.6592 1.22307 49.5585C0.981915 49.4577 0.762959 49.3105 0.578708 49.1251C0.394456 48.9398 0.248518 48.72 0.149224 48.4782C0.0499311 48.2364 -0.000772422 47.9775 8.89401e-06 47.7161V1.97233C0.00469666 1.44863 0.215627 0.947887 0.587064 0.578674C0.958501 0.209461 1.4605 0.00154236 1.98422 0ZM7.49724 13.7885H12.6301C12.6899 13.79 12.7488 13.8034 12.8034 13.8279C12.858 13.8524 12.9071 13.8875 12.948 13.9312C12.9889 13.9749 13.0208 14.0262 13.0416 14.0823C13.0625 14.1384 13.0721 14.198 13.0697 14.2578V15.9806C13.0681 16.0993 13.0199 16.2127 12.9353 16.2961C12.8508 16.3794 12.7369 16.4262 12.6182 16.4262H7.49724C7.37852 16.4262 7.26457 16.3794 7.18007 16.2961C7.09556 16.2127 7.04731 16.0993 7.04574 15.9806V14.2578C7.04731 14.1391 7.09556 14.0258 7.18007 13.9424C7.26457 13.859 7.37852 13.8122 7.49724 13.8123V13.7885ZM7.49724 28.2661H25.4621C25.5808 28.2661 25.6948 28.3129 25.7793 28.3962C25.8638 28.4796 25.912 28.593 25.9136 28.7117V30.4583C25.912 30.577 25.8638 30.6903 25.7793 30.7737C25.6948 30.8571 25.5808 30.9038 25.4621 30.9038H7.49724C7.37852 30.9038 7.26457 30.8571 7.18007 30.7737C7.09556 30.6903 7.04731 30.577 7.04574 30.4583V28.7117C7.04731 28.593 7.09556 28.4796 7.18007 28.3962C7.26457 28.3129 7.37852 28.2661 7.49724 28.2661ZM7.49724 20.8936H18.6183C18.7376 20.8952 18.8515 20.9432 18.9359 21.0276C19.0202 21.1119 19.0683 21.2259 19.0698 21.3451V23.0917C19.0668 23.2099 19.018 23.3224 18.9339 23.4055C18.8497 23.4885 18.7366 23.5358 18.6183 23.5373H7.49724C7.37852 23.5373 7.26457 23.4905 7.18007 23.4071C7.09556 23.3237 7.04731 23.2104 7.04574 23.0917V21.3451C7.04574 21.2254 7.09331 21.1105 7.17798 21.0259C7.26266 20.9412 7.3775 20.8936 7.49724 20.8936ZM7.49724 35.6326H33.1613C33.28 35.6342 33.3933 35.6825 33.4767 35.767C33.5601 35.8515 33.6069 35.9654 33.6069 36.0841V37.8307C33.6053 37.9484 33.5579 38.0609 33.4747 38.1441C33.3914 38.2273 33.279 38.2747 33.1613 38.2763H7.49724C7.37852 38.2763 7.26457 38.2295 7.18007 38.1461C7.09556 38.0628 7.04731 37.9494 7.04574 37.8307V36.0841C7.04574 35.9644 7.09331 35.8496 7.17798 35.7649C7.26266 35.6802 7.3775 35.6326 7.49724 35.6326ZM27.4998 52.439H45.5002C45.5478 55.552 46.831 58.3442 50.3063 60.5363H22.6937C25.4918 58.5105 27.5116 56.057 27.4998 52.439ZM70.4039 6.92098V42.0843C70.4039 42.557 70.2161 43.0103 69.8819 43.3445C69.5477 43.6788 69.0943 43.8665 68.6217 43.8665H4.35458C3.88707 43.8587 3.44135 43.6675 3.11352 43.3341C2.78568 43.0008 2.60199 42.5519 2.60206 42.0843V6.92098H18.7372V9.22005C18.7372 9.53517 18.8623 9.83738 19.0852 10.0602C19.308 10.283 19.6102 10.4082 19.9253 10.4082H21.7372C21.9149 11.2078 22.1965 11.9808 22.5749 12.7073L21.1847 14.1034C20.9688 14.3252 20.848 14.6225 20.848 14.9321C20.848 15.2417 20.9688 15.539 21.1847 15.7608L22.9135 17.4955C23.1356 17.7132 23.4342 17.8352 23.7452 17.8352C24.0562 17.8352 24.3548 17.7132 24.5769 17.4955L25.8542 16.2123C26.556 16.6498 27.3133 16.9915 28.1057 17.2282V19.2005C28.1057 19.5156 28.2309 19.8178 28.4537 20.0407C28.6765 20.2635 28.9788 20.3887 29.2939 20.3887H31.7474C32.0625 20.3887 32.3647 20.2635 32.5876 20.0407C32.8104 19.8178 32.9356 19.5156 32.9356 19.2005V17.4183C33.7417 17.2357 34.5192 16.9439 35.2465 16.5509L36.6426 17.947C36.8644 18.1629 37.1618 18.2838 37.4713 18.2838C37.7809 18.2838 38.0782 18.1629 38.3001 17.947L40.0348 16.2123C40.2507 15.9905 40.3715 15.6931 40.3715 15.3836C40.3715 15.074 40.2507 14.7767 40.0348 14.5548L38.7575 13.2776C39.1955 12.5773 39.5391 11.8223 39.7793 11.032H41.7516C42.0668 11.032 42.369 10.9068 42.5918 10.684C42.8146 10.4612 42.9398 10.1589 42.9398 9.84383V7.3903C42.9393 7.22913 42.907 7.06963 42.8447 6.92098H70.4039ZM62.5027 15.3925L64.4275 17.3173C64.6702 17.5611 64.8064 17.8911 64.8064 18.2351C64.8064 18.5792 64.6702 18.9092 64.4275 19.153L62.877 20.7035C63.3102 21.5104 63.6339 22.3715 63.8394 23.264H65.8414C66.1839 23.2687 66.5109 23.4076 66.752 23.6509C66.9931 23.8942 67.129 24.2225 67.1305 24.565V27.2859C67.1305 27.6309 66.9935 27.9619 66.7495 28.2059C66.5055 28.4498 66.1746 28.5869 65.8295 28.5869H63.6433C63.3778 29.4635 62.9962 30.3007 62.5086 31.0761L63.9285 32.4959C64.1715 32.7408 64.3079 33.0718 64.3079 33.4167C64.3079 33.7617 64.1715 34.0927 63.9285 34.3376L62.0155 36.2386C61.7707 36.4817 61.4397 36.6181 61.0947 36.6181C60.7497 36.6181 60.4187 36.4817 60.1739 36.2386L58.6293 34.6881C57.8204 35.1214 56.9573 35.445 56.0629 35.6505V37.6584C56.0614 38.003 55.9238 38.333 55.6801 38.5767C55.4365 38.8203 55.1065 38.9579 54.7619 38.9595H52.041C51.6964 38.9579 51.3664 38.8203 51.1228 38.5767C50.8791 38.333 50.7416 38.003 50.74 37.6584V35.4901C49.8638 35.2233 49.0268 34.8418 48.2508 34.3554L46.831 35.7752C46.5862 36.0183 46.2552 36.1547 45.9102 36.1547C45.5652 36.1547 45.2342 36.0183 44.9893 35.7752L43.0705 33.8623C42.8278 33.6185 42.6915 33.2885 42.6915 32.9445C42.6915 32.6004 42.8278 32.2704 43.0705 32.0266L44.6151 30.4761C44.1867 29.6697 43.8652 28.811 43.6586 27.9215H41.6506C41.3061 27.92 40.9761 27.7824 40.7324 27.5388C40.4888 27.2951 40.3512 26.9651 40.3496 26.6205V23.8818C40.3496 23.5362 40.4865 23.2047 40.7303 22.9598C40.9741 22.7148 41.305 22.5764 41.6506 22.5749H43.8428C44.1058 21.6973 44.4876 20.8598 44.9775 20.0857L43.5576 18.6659C43.4358 18.5454 43.3392 18.402 43.2732 18.244C43.2072 18.0859 43.1732 17.9163 43.1732 17.745C43.1732 17.5738 43.2072 17.4042 43.2732 17.2461C43.3392 17.0881 43.4358 16.9447 43.5576 16.8242L45.4765 14.8994C45.7213 14.6564 46.0523 14.5199 46.3973 14.5199C46.7423 14.5199 47.0733 14.6564 47.3181 14.8994L48.8687 16.45C49.6755 16.0167 50.5366 15.693 51.4291 15.4875V13.4855C51.4307 13.1409 51.5683 12.8109 51.8119 12.5673C52.0556 12.3236 52.3856 12.1861 52.7302 12.1845H55.451C55.7956 12.1861 56.1256 12.3236 56.3693 12.5673C56.6129 12.8109 56.7505 13.1409 56.752 13.4855V15.6777C57.6286 15.9432 58.4658 16.3248 59.2412 16.8123L60.6611 15.3925C60.9059 15.1494 61.2369 15.013 61.5819 15.013C61.9269 15.013 62.2579 15.1494 62.5027 15.3925ZM35.4307 6.92098C35.6477 7.64146 35.6931 8.40272 35.5634 9.1439C35.4336 9.88508 35.1323 10.5856 34.6835 11.1896C34.2346 11.7935 33.6508 12.2841 32.9785 12.622C32.3062 12.96 31.5642 13.136 30.8117 13.136C30.0593 13.136 29.3173 12.96 28.645 12.622C27.9727 12.2841 27.3888 11.7935 26.94 11.1896C26.4912 10.5856 26.1898 9.88508 26.0601 9.1439C25.9303 8.40272 25.9758 7.64146 26.1928 6.92098H35.4307ZM53.746 20.2342C54.8035 20.2342 55.8372 20.5478 56.7165 21.1353C57.5957 21.7228 58.281 22.5578 58.6857 23.5348C59.0904 24.5118 59.1963 25.5868 58.99 26.624C58.7837 27.6611 58.2744 28.6138 57.5267 29.3616C56.7789 30.1093 55.8263 30.6185 54.7891 30.8248C53.752 31.0311 52.6769 30.9253 51.6999 30.5206C50.723 30.1159 49.8879 29.4306 49.3004 28.5513C48.7129 27.6721 48.3993 26.6384 48.3993 25.5809C48.3993 24.1629 48.9627 22.8029 49.9653 21.8002C50.968 20.7975 52.328 20.2342 53.746 20.2342ZM67.6058 2.92285C67.8408 2.92285 68.0705 2.99254 68.2659 3.12309C68.4613 3.25365 68.6136 3.43921 68.7035 3.65632C68.7934 3.87342 68.817 4.11232 68.7711 4.3428C68.7253 4.57328 68.6121 4.78499 68.4459 4.95115C68.2798 5.11732 68.0681 5.23048 67.8376 5.27632C67.6071 5.32217 67.3682 5.29864 67.1511 5.20871C66.934 5.11878 66.7484 4.96649 66.6179 4.7711C66.4873 4.57571 66.4176 4.346 66.4176 4.111C66.4176 3.79589 66.5428 3.49367 66.7657 3.27085C66.9885 3.04803 67.2907 2.92285 67.6058 2.92285ZM59.6214 2.92285C59.8564 2.92285 60.0861 2.99254 60.2815 3.12309C60.4769 3.25365 60.6292 3.43921 60.7191 3.65632C60.8091 3.87342 60.8326 4.11232 60.7867 4.3428C60.7409 4.57328 60.6277 4.78499 60.4616 4.95115C60.2954 5.11732 60.0837 5.23048 59.8532 5.27632C59.6227 5.32217 59.3838 5.29864 59.1667 5.20871C58.9496 5.11878 58.7641 4.96649 58.6335 4.7711C58.503 4.57571 58.4333 4.346 58.4333 4.111C58.4333 3.79589 58.5585 3.49367 58.7813 3.27085C59.0041 3.04803 59.3063 2.92285 59.6214 2.92285ZM63.6136 2.92285C63.8486 2.92285 64.0783 2.99254 64.2737 3.12309C64.4691 3.25365 64.6214 3.43921 64.7113 3.65632C64.8012 3.87342 64.8248 4.11232 64.7789 4.3428C64.7331 4.57328 64.6199 4.78499 64.4538 4.95115C64.2876 5.11732 64.0759 5.23048 63.8454 5.27632C63.6149 5.32217 63.376 5.29864 63.1589 5.20871C62.9418 5.11878 62.7563 4.96649 62.6257 4.7711C62.4951 4.57571 62.4255 4.346 62.4255 4.111C62.4255 3.79589 62.5506 3.49367 62.7735 3.27085C62.9963 3.04803 63.2985 2.92285 63.6136 2.92285Z" fill="#16205F"/>
</g>
<defs>
<clipPath id="clip0_2421_352">
<rect width="73" height="60.5363" fill="white"/>
</clipPath>
</defs>
</svg>
