<svg width="46" height="44" viewBox="0 0 46 44" fill="none" xmlns="http://www.w3.org/2000/svg">
<path d="M18.4153 0.506897C16.9135 0.506897 15.6765 1.74388 15.6765 3.24572V5.98454H2.89532C1.38531 5.98454 0.156494 7.21336 0.156494 8.72337V37.9375C0.156494 39.4475 1.38531 40.6763 2.89532 40.6763H26.4196C25.9732 40.1066 25.577 39.4968 25.2392 38.8504H2.89532C2.39137 38.8504 1.98238 38.4405 1.98238 37.9375V24.9887C2.26904 25.0909 2.57396 25.1563 2.89532 25.1563H27.2095C27.8796 24.4588 28.6346 23.8481 29.4562 23.3304H2.89532C2.39137 23.3304 1.98238 22.9205 1.98238 22.4175V8.72337C1.98238 8.22034 2.39137 7.81043 2.89532 7.81043H43.0647C43.5687 7.81043 43.9777 8.22034 43.9777 8.72337V21.5045V22.4175V24.8389C44.6697 25.5054 45.2887 26.2489 45.8036 27.0678V8.72337C45.8036 7.21336 44.5747 5.98454 43.0647 5.98454H30.2836V3.24572C30.2836 1.74388 29.0466 0.506897 27.5447 0.506897H18.4153ZM18.4153 2.33278H27.5447C28.0587 2.33278 28.4577 2.73179 28.4577 3.24572V5.98454H17.5024V3.24572C17.5024 2.73179 17.9014 2.33278 18.4153 2.33278ZM22.98 17.8528C22.4958 17.8528 22.0313 18.0451 21.6889 18.3876C21.3465 18.73 21.1541 19.1944 21.1541 19.6787C21.1541 20.1629 21.3465 20.6273 21.6889 20.9698C22.0313 21.3122 22.4958 21.5045 22.98 21.5045C23.4643 21.5045 23.9287 21.3122 24.2711 20.9698C24.6135 20.6273 24.8059 20.1629 24.8059 19.6787C24.8059 19.1944 24.6135 18.73 24.2711 18.3876C23.9287 18.0451 23.4643 17.8528 22.98 17.8528ZM33.9353 23.3304L33.3879 26.2511C33.114 26.3424 32.7488 26.4341 32.475 26.6167L30.009 24.8817L27.2701 27.6205L28.9141 29.9029C28.8228 30.2681 28.6399 30.5434 28.5486 30.9086L25.7188 31.365V35.1987L28.5486 35.6551C28.6399 35.929 28.7316 36.2942 28.9141 36.5681L27.2701 39.0323L30.009 41.7711L32.475 40.1289C32.8401 40.3115 33.1137 40.4031 33.4788 40.4944L33.9353 43.4151H37.678L38.2254 40.5854C38.4993 40.4941 38.7732 40.4024 39.1384 40.2198L41.6044 41.8638L44.3432 39.125L42.6083 36.75C42.7908 36.3848 42.8825 36.02 42.9738 35.7461L45.8036 35.1987V31.365L42.8829 30.9086C42.7916 30.6347 42.6999 30.2695 42.5173 29.9956L44.1595 27.5296L41.5134 24.8817L39.1384 26.6167C38.8645 26.4341 38.4993 26.3424 38.2254 26.2511L37.769 23.3304H33.9353ZM35.4866 25.1563H36.2177L36.5832 27.6205L37.1306 27.8042C37.6784 27.9868 38.2254 28.1687 38.6819 28.4425L39.2311 28.8081L41.3298 27.2568L41.7863 27.7133L40.3259 29.812L40.6005 30.2684C40.8744 30.8162 41.0563 31.3647 41.2388 31.9124L41.4207 32.4598L43.9777 32.8254V33.5547L41.5134 34.1038L41.3298 34.6513C41.1472 35.199 40.9653 35.7461 40.6914 36.2025L40.3259 36.75L41.8772 38.8504L41.3298 39.3978L39.2311 37.9375L38.7746 38.2121C38.2269 38.486 37.6784 38.6678 37.1306 38.8504L36.5832 39.0323L36.1267 41.5893H35.3957L35.0301 39.125L34.4827 38.9414C33.935 38.7588 33.3879 38.5769 32.9314 38.303L32.384 37.9375L30.1926 39.3978L29.6452 38.8504L31.1056 36.75L30.831 36.2935C30.5571 35.7457 30.3752 35.1077 30.1926 34.6513L30.009 34.1038L27.5447 33.6474V32.9163L30.1017 32.4598L30.1926 31.8215C30.2839 31.365 30.4661 30.8158 30.74 30.3594L31.1056 29.9029L29.6452 27.8042L30.1926 27.2568L32.2913 28.7171L32.7478 28.5335C33.3868 28.2596 33.935 27.9868 34.4827 27.8042L35.0301 27.7133L35.4866 25.1563ZM35.7612 29.6301C33.7527 29.6301 32.1094 31.2734 32.1094 33.2818C32.1094 35.2903 33.7527 36.9336 35.7612 36.9336C37.7697 36.9336 39.413 35.3816 39.413 33.2818C39.413 31.2734 37.7697 29.6301 35.7612 29.6301ZM35.7612 31.5469C36.7654 31.5469 37.5871 32.2773 37.5871 33.3728C37.5871 34.377 36.7654 35.1987 35.7612 35.1987C34.757 35.1987 33.9353 34.377 33.9353 33.3728C33.9353 32.3685 34.757 31.5469 35.7612 31.5469Z" fill="#2D7EFF"/>
</svg>
