<svg width="26" height="26" viewBox="0 0 26 26" fill="none" xmlns="http://www.w3.org/2000/svg">
<path d="M13 0.500244C6.11125 0.500244 0.5 6.11149 0.5 13.0002C0.5 19.889 6.11125 25.5002 13 25.5002C19.8888 25.5002 25.5 19.889 25.5 13.0002C25.5 6.11149 19.8888 0.500244 13 0.500244ZM13 3.00024C18.5377 3.00024 23 7.46259 23 13.0002C23 18.0183 19.3317 22.1415 14.5234 22.8733V15.9812H17.4336L17.8901 13.0247H14.5234V11.4084C14.5234 10.1797 14.9237 9.08911 16.0737 9.08911H17.9194V6.50854C17.5944 6.4648 16.9086 6.36938 15.6123 6.36938C12.9048 6.36938 11.3179 7.79938 11.3179 11.0569V13.0247H8.53467V15.9812H11.3179V22.8489C6.58786 22.0513 3 17.963 3 13.0002C3 7.46259 7.46235 3.00024 13 3.00024Z" fill="#718096"/>
</svg>
