<svg width="43" height="46" viewBox="0 0 43 46" fill="none" xmlns="http://www.w3.org/2000/svg">
<mask id="path-1-outside-1_2060_263" maskUnits="userSpaceOnUse" x="-0.114014" y="-0.320526" width="43" height="47" fill="black">
<rect fill="white" x="-0.114014" y="-0.320526" width="43" height="47"/>
<path d="M24.8028 0.679474C21.1639 0.679474 17.9212 2.68798 16.1372 5.77747C11.8393 4.3883 7.40307 7.52988 7.04922 12.167C3.43849 13.2597 0.885986 16.7368 0.885986 20.701C0.885986 24.8675 3.44885 28.6405 6.97975 29.6726C7.18466 29.7324 7.05095 29.695 10.1115 29.7064V35.3245C8.64413 35.3245 7.45031 36.5847 7.45031 38.1336C7.45031 39.6825 8.64413 40.9426 10.1115 40.9426H12.1859C11.9937 41.3686 11.8857 41.8448 11.8857 42.3472C11.8857 44.1542 13.2785 45.6244 14.9904 45.6244C16.7024 45.6244 18.0952 44.1542 18.0952 42.3472C18.0952 41.8448 17.9871 41.3686 17.7949 40.9426H25.492C25.2997 41.3686 25.1917 41.8448 25.1917 42.3472C25.1917 44.1542 26.5845 45.6244 28.2965 45.6244C30.0084 45.6244 31.4012 44.1542 31.4012 42.3472C31.4012 41.8448 31.2932 41.3686 31.101 40.9426H35.8366C36.3264 40.9426 36.7236 40.5233 36.7236 40.0063C36.7236 39.4892 36.3264 39.0699 35.8366 39.0699H10.1115C9.62239 39.0699 9.22445 38.6499 9.22445 38.1336C9.22445 37.6173 9.62239 37.1972 10.1115 37.1972H34.0624C34.5523 37.1972 34.9495 36.7779 34.9495 36.2609C34.9495 35.7438 34.5523 35.3245 34.0624 35.3245H33.5189L35.2988 29.6881C39.5362 29.374 42.5783 25.6497 42.5783 20.701C42.5783 16.1025 39.1964 12.3085 34.8786 11.8574C35.2755 5.83109 30.641 0.679474 24.8028 0.679474ZM24.8028 2.55218C29.9002 2.55218 33.8709 7.29276 33.0101 12.594C32.9162 13.172 33.3436 13.6979 33.8992 13.6884C37.7237 13.6201 40.8042 16.8202 40.8042 20.701C40.8042 24.3166 38.8038 27.1051 35.9229 27.7126L37.5651 22.5117C37.7564 21.9061 37.3289 21.2792 36.7236 21.2792H11.8857V19.4065C11.8857 19.0776 11.7221 18.7729 11.4549 18.6037L7.0196 15.7946C6.59957 15.5286 6.05475 15.6723 5.80265 16.1158C5.55054 16.5592 5.68677 17.1342 6.10688 17.4003L10.1115 19.9367V27.8337H7.34151C4.62192 26.9749 2.66013 23.997 2.66013 20.701C2.66013 17.3773 4.94413 14.4859 8.09101 13.8259C8.13146 13.8175 8.17042 13.8053 8.20848 13.7913C8.80592 13.7612 10.7178 13.8085 12.1073 15.472C12.4307 15.8594 12.9914 15.8976 13.3594 15.5552C13.7269 15.2133 13.7622 14.6216 13.4382 14.2337C11.9449 12.4457 10.0321 12.0137 8.86096 11.9323C9.37839 8.4082 13.0248 6.33666 16.189 7.791C16.6202 7.98913 17.1233 7.79755 17.3353 7.35409C18.7502 4.39204 21.6116 2.55218 24.8028 2.55218ZM26.539 4.42488C26.1261 4.41627 25.7487 4.71332 25.6545 5.15476C25.5467 5.65918 25.8441 6.15968 26.322 6.27345C26.4517 6.30613 29.4991 7.11686 29.6276 11.0119C29.6445 11.5261 30.052 11.9324 30.545 11.9152C31.0347 11.8972 31.4178 11.4636 31.4007 10.9468C31.3087 8.15825 30.0498 6.53866 29.0101 5.67122C27.9052 4.74938 26.8358 4.47583 26.7174 4.44774C26.6577 4.43357 26.5979 4.42611 26.539 4.42488ZM30.5141 12.8521C30.2789 12.8521 30.0533 12.9507 29.8869 13.1263C29.7205 13.3019 29.6271 13.5401 29.6271 13.7884C29.6271 14.0367 29.7205 14.2749 29.8869 14.4505C30.0533 14.6261 30.2789 14.7248 30.5141 14.7248C30.7494 14.7248 30.975 14.6261 31.1414 14.4505C31.3078 14.2749 31.4012 14.0367 31.4012 13.7884C31.4012 13.5401 31.3078 13.3019 31.1414 13.1263C30.975 12.9507 30.7494 12.8521 30.5141 12.8521ZM13.6598 16.5975V18.4702H15.4339V16.5975H13.6598ZM16.321 16.5975V18.4702H18.0952V16.5975H16.321ZM18.9822 16.5975V18.4702H20.7564V16.5975H18.9822ZM11.8857 23.1519H35.493L31.649 35.3245H11.8857V23.1519ZM15.4339 25.961C14.944 25.961 14.5469 26.3803 14.5469 26.8973C14.5469 27.4144 14.944 27.8337 15.4339 27.8337H22.5305C23.0204 27.8337 23.4176 27.4144 23.4176 26.8973C23.4176 26.3803 23.0204 25.961 22.5305 25.961H15.4339ZM25.1917 25.961C24.9565 25.961 24.7308 26.0596 24.5645 26.2352C24.3981 26.4108 24.3047 26.649 24.3047 26.8973C24.3047 27.1457 24.3981 27.3838 24.5645 27.5594C24.7308 27.735 24.9565 27.8337 25.1917 27.8337C25.427 27.8337 25.6526 27.735 25.819 27.5594C25.9853 27.3838 26.0788 27.1457 26.0788 26.8973C26.0788 26.649 25.9853 26.4108 25.819 26.2352C25.6526 26.0596 25.427 25.961 25.1917 25.961ZM15.4339 28.77C14.944 28.77 14.5469 29.1893 14.5469 29.7064C14.5469 30.2235 14.944 30.6428 15.4339 30.6428H24.3047C24.7945 30.6428 25.1917 30.2235 25.1917 29.7064C25.1917 29.1893 24.7945 28.77 24.3047 28.77H15.4339ZM26.9659 28.77C26.7306 28.77 26.505 28.8687 26.3386 29.0443C26.1723 29.2199 26.0788 29.4581 26.0788 29.7064C26.0788 29.9547 26.1723 30.1929 26.3386 30.3685C26.505 30.5441 26.7306 30.6428 26.9659 30.6428C27.2011 30.6428 27.4268 30.5441 27.5931 30.3685C27.7595 30.1929 27.8529 29.9547 27.8529 29.7064C27.8529 29.4581 27.7595 29.2199 27.5931 29.0443C27.4268 28.8687 27.2011 28.77 26.9659 28.77ZM15.4339 31.5791C14.944 31.5791 14.5469 31.9984 14.5469 32.5155C14.5469 33.0325 14.944 33.4518 15.4339 33.4518H26.0788C26.5686 33.4518 26.9659 33.0325 26.9659 32.5155C26.9659 31.9984 26.5686 31.5791 26.0788 31.5791H15.4339ZM28.74 31.5791C28.5047 31.5791 28.2791 31.6778 28.1128 31.8534C27.9464 32.029 27.8529 32.2671 27.8529 32.5155C27.8529 32.7638 27.9464 33.002 28.1128 33.1776C28.2791 33.3532 28.5047 33.4518 28.74 33.4518C28.9753 33.4518 29.2009 33.3532 29.3673 33.1776C29.5336 33.002 29.6271 32.7638 29.6271 32.5155C29.6271 32.2671 29.5336 32.029 29.3673 31.8534C29.2009 31.6778 28.9753 31.5791 28.74 31.5791ZM14.9904 40.9426C15.7241 40.9426 16.321 41.5727 16.321 42.3472C16.321 43.1216 15.7241 43.7517 14.9904 43.7517C14.2567 43.7517 13.6598 43.1216 13.6598 42.3472C13.6598 41.5727 14.2567 40.9426 14.9904 40.9426ZM28.2965 40.9426C29.0302 40.9426 29.6271 41.5727 29.6271 42.3472C29.6271 43.1216 29.0302 43.7517 28.2965 43.7517C27.5628 43.7517 26.9659 43.1216 26.9659 42.3472C26.9659 41.5727 27.5628 40.9426 28.2965 40.9426Z"/>
</mask>
<path d="M24.8028 0.679474C21.1639 0.679474 17.9212 2.68798 16.1372 5.77747C11.8393 4.3883 7.40307 7.52988 7.04922 12.167C3.43849 13.2597 0.885986 16.7368 0.885986 20.701C0.885986 24.8675 3.44885 28.6405 6.97975 29.6726C7.18466 29.7324 7.05095 29.695 10.1115 29.7064V35.3245C8.64413 35.3245 7.45031 36.5847 7.45031 38.1336C7.45031 39.6825 8.64413 40.9426 10.1115 40.9426H12.1859C11.9937 41.3686 11.8857 41.8448 11.8857 42.3472C11.8857 44.1542 13.2785 45.6244 14.9904 45.6244C16.7024 45.6244 18.0952 44.1542 18.0952 42.3472C18.0952 41.8448 17.9871 41.3686 17.7949 40.9426H25.492C25.2997 41.3686 25.1917 41.8448 25.1917 42.3472C25.1917 44.1542 26.5845 45.6244 28.2965 45.6244C30.0084 45.6244 31.4012 44.1542 31.4012 42.3472C31.4012 41.8448 31.2932 41.3686 31.101 40.9426H35.8366C36.3264 40.9426 36.7236 40.5233 36.7236 40.0063C36.7236 39.4892 36.3264 39.0699 35.8366 39.0699H10.1115C9.62239 39.0699 9.22445 38.6499 9.22445 38.1336C9.22445 37.6173 9.62239 37.1972 10.1115 37.1972H34.0624C34.5523 37.1972 34.9495 36.7779 34.9495 36.2609C34.9495 35.7438 34.5523 35.3245 34.0624 35.3245H33.5189L35.2988 29.6881C39.5362 29.374 42.5783 25.6497 42.5783 20.701C42.5783 16.1025 39.1964 12.3085 34.8786 11.8574C35.2755 5.83109 30.641 0.679474 24.8028 0.679474ZM24.8028 2.55218C29.9002 2.55218 33.8709 7.29276 33.0101 12.594C32.9162 13.172 33.3436 13.6979 33.8992 13.6884C37.7237 13.6201 40.8042 16.8202 40.8042 20.701C40.8042 24.3166 38.8038 27.1051 35.9229 27.7126L37.5651 22.5117C37.7564 21.9061 37.3289 21.2792 36.7236 21.2792H11.8857V19.4065C11.8857 19.0776 11.7221 18.7729 11.4549 18.6037L7.0196 15.7946C6.59957 15.5286 6.05475 15.6723 5.80265 16.1158C5.55054 16.5592 5.68677 17.1342 6.10688 17.4003L10.1115 19.9367V27.8337H7.34151C4.62192 26.9749 2.66013 23.997 2.66013 20.701C2.66013 17.3773 4.94413 14.4859 8.09101 13.8259C8.13146 13.8175 8.17042 13.8053 8.20848 13.7913C8.80592 13.7612 10.7178 13.8085 12.1073 15.472C12.4307 15.8594 12.9914 15.8976 13.3594 15.5552C13.7269 15.2133 13.7622 14.6216 13.4382 14.2337C11.9449 12.4457 10.0321 12.0137 8.86096 11.9323C9.37839 8.4082 13.0248 6.33666 16.189 7.791C16.6202 7.98913 17.1233 7.79755 17.3353 7.35409C18.7502 4.39204 21.6116 2.55218 24.8028 2.55218ZM26.539 4.42488C26.1261 4.41627 25.7487 4.71332 25.6545 5.15476C25.5467 5.65918 25.8441 6.15968 26.322 6.27345C26.4517 6.30613 29.4991 7.11686 29.6276 11.0119C29.6445 11.5261 30.052 11.9324 30.545 11.9152C31.0347 11.8972 31.4178 11.4636 31.4007 10.9468C31.3087 8.15825 30.0498 6.53866 29.0101 5.67122C27.9052 4.74938 26.8358 4.47583 26.7174 4.44774C26.6577 4.43357 26.5979 4.42611 26.539 4.42488ZM30.5141 12.8521C30.2789 12.8521 30.0533 12.9507 29.8869 13.1263C29.7205 13.3019 29.6271 13.5401 29.6271 13.7884C29.6271 14.0367 29.7205 14.2749 29.8869 14.4505C30.0533 14.6261 30.2789 14.7248 30.5141 14.7248C30.7494 14.7248 30.975 14.6261 31.1414 14.4505C31.3078 14.2749 31.4012 14.0367 31.4012 13.7884C31.4012 13.5401 31.3078 13.3019 31.1414 13.1263C30.975 12.9507 30.7494 12.8521 30.5141 12.8521ZM13.6598 16.5975V18.4702H15.4339V16.5975H13.6598ZM16.321 16.5975V18.4702H18.0952V16.5975H16.321ZM18.9822 16.5975V18.4702H20.7564V16.5975H18.9822ZM11.8857 23.1519H35.493L31.649 35.3245H11.8857V23.1519ZM15.4339 25.961C14.944 25.961 14.5469 26.3803 14.5469 26.8973C14.5469 27.4144 14.944 27.8337 15.4339 27.8337H22.5305C23.0204 27.8337 23.4176 27.4144 23.4176 26.8973C23.4176 26.3803 23.0204 25.961 22.5305 25.961H15.4339ZM25.1917 25.961C24.9565 25.961 24.7308 26.0596 24.5645 26.2352C24.3981 26.4108 24.3047 26.649 24.3047 26.8973C24.3047 27.1457 24.3981 27.3838 24.5645 27.5594C24.7308 27.735 24.9565 27.8337 25.1917 27.8337C25.427 27.8337 25.6526 27.735 25.819 27.5594C25.9853 27.3838 26.0788 27.1457 26.0788 26.8973C26.0788 26.649 25.9853 26.4108 25.819 26.2352C25.6526 26.0596 25.427 25.961 25.1917 25.961ZM15.4339 28.77C14.944 28.77 14.5469 29.1893 14.5469 29.7064C14.5469 30.2235 14.944 30.6428 15.4339 30.6428H24.3047C24.7945 30.6428 25.1917 30.2235 25.1917 29.7064C25.1917 29.1893 24.7945 28.77 24.3047 28.77H15.4339ZM26.9659 28.77C26.7306 28.77 26.505 28.8687 26.3386 29.0443C26.1723 29.2199 26.0788 29.4581 26.0788 29.7064C26.0788 29.9547 26.1723 30.1929 26.3386 30.3685C26.505 30.5441 26.7306 30.6428 26.9659 30.6428C27.2011 30.6428 27.4268 30.5441 27.5931 30.3685C27.7595 30.1929 27.8529 29.9547 27.8529 29.7064C27.8529 29.4581 27.7595 29.2199 27.5931 29.0443C27.4268 28.8687 27.2011 28.77 26.9659 28.77ZM15.4339 31.5791C14.944 31.5791 14.5469 31.9984 14.5469 32.5155C14.5469 33.0325 14.944 33.4518 15.4339 33.4518H26.0788C26.5686 33.4518 26.9659 33.0325 26.9659 32.5155C26.9659 31.9984 26.5686 31.5791 26.0788 31.5791H15.4339ZM28.74 31.5791C28.5047 31.5791 28.2791 31.6778 28.1128 31.8534C27.9464 32.029 27.8529 32.2671 27.8529 32.5155C27.8529 32.7638 27.9464 33.002 28.1128 33.1776C28.2791 33.3532 28.5047 33.4518 28.74 33.4518C28.9753 33.4518 29.2009 33.3532 29.3673 33.1776C29.5336 33.002 29.6271 32.7638 29.6271 32.5155C29.6271 32.2671 29.5336 32.029 29.3673 31.8534C29.2009 31.6778 28.9753 31.5791 28.74 31.5791ZM14.9904 40.9426C15.7241 40.9426 16.321 41.5727 16.321 42.3472C16.321 43.1216 15.7241 43.7517 14.9904 43.7517C14.2567 43.7517 13.6598 43.1216 13.6598 42.3472C13.6598 41.5727 14.2567 40.9426 14.9904 40.9426ZM28.2965 40.9426C29.0302 40.9426 29.6271 41.5727 29.6271 42.3472C29.6271 43.1216 29.0302 43.7517 28.2965 43.7517C27.5628 43.7517 26.9659 43.1216 26.9659 42.3472C26.9659 41.5727 27.5628 40.9426 28.2965 40.9426Z" fill="black"/>
<path d="M24.8028 0.679474C21.1639 0.679474 17.9212 2.68798 16.1372 5.77747C11.8393 4.3883 7.40307 7.52988 7.04922 12.167C3.43849 13.2597 0.885986 16.7368 0.885986 20.701C0.885986 24.8675 3.44885 28.6405 6.97975 29.6726C7.18466 29.7324 7.05095 29.695 10.1115 29.7064V35.3245C8.64413 35.3245 7.45031 36.5847 7.45031 38.1336C7.45031 39.6825 8.64413 40.9426 10.1115 40.9426H12.1859C11.9937 41.3686 11.8857 41.8448 11.8857 42.3472C11.8857 44.1542 13.2785 45.6244 14.9904 45.6244C16.7024 45.6244 18.0952 44.1542 18.0952 42.3472C18.0952 41.8448 17.9871 41.3686 17.7949 40.9426H25.492C25.2997 41.3686 25.1917 41.8448 25.1917 42.3472C25.1917 44.1542 26.5845 45.6244 28.2965 45.6244C30.0084 45.6244 31.4012 44.1542 31.4012 42.3472C31.4012 41.8448 31.2932 41.3686 31.101 40.9426H35.8366C36.3264 40.9426 36.7236 40.5233 36.7236 40.0063C36.7236 39.4892 36.3264 39.0699 35.8366 39.0699H10.1115C9.62239 39.0699 9.22445 38.6499 9.22445 38.1336C9.22445 37.6173 9.62239 37.1972 10.1115 37.1972H34.0624C34.5523 37.1972 34.9495 36.7779 34.9495 36.2609C34.9495 35.7438 34.5523 35.3245 34.0624 35.3245H33.5189L35.2988 29.6881C39.5362 29.374 42.5783 25.6497 42.5783 20.701C42.5783 16.1025 39.1964 12.3085 34.8786 11.8574C35.2755 5.83109 30.641 0.679474 24.8028 0.679474ZM24.8028 2.55218C29.9002 2.55218 33.8709 7.29276 33.0101 12.594C32.9162 13.172 33.3436 13.6979 33.8992 13.6884C37.7237 13.6201 40.8042 16.8202 40.8042 20.701C40.8042 24.3166 38.8038 27.1051 35.9229 27.7126L37.5651 22.5117C37.7564 21.9061 37.3289 21.2792 36.7236 21.2792H11.8857V19.4065C11.8857 19.0776 11.7221 18.7729 11.4549 18.6037L7.0196 15.7946C6.59957 15.5286 6.05475 15.6723 5.80265 16.1158C5.55054 16.5592 5.68677 17.1342 6.10688 17.4003L10.1115 19.9367V27.8337H7.34151C4.62192 26.9749 2.66013 23.997 2.66013 20.701C2.66013 17.3773 4.94413 14.4859 8.09101 13.8259C8.13146 13.8175 8.17042 13.8053 8.20848 13.7913C8.80592 13.7612 10.7178 13.8085 12.1073 15.472C12.4307 15.8594 12.9914 15.8976 13.3594 15.5552C13.7269 15.2133 13.7622 14.6216 13.4382 14.2337C11.9449 12.4457 10.0321 12.0137 8.86096 11.9323C9.37839 8.4082 13.0248 6.33666 16.189 7.791C16.6202 7.98913 17.1233 7.79755 17.3353 7.35409C18.7502 4.39204 21.6116 2.55218 24.8028 2.55218ZM26.539 4.42488C26.1261 4.41627 25.7487 4.71332 25.6545 5.15476C25.5467 5.65918 25.8441 6.15968 26.322 6.27345C26.4517 6.30613 29.4991 7.11686 29.6276 11.0119C29.6445 11.5261 30.052 11.9324 30.545 11.9152C31.0347 11.8972 31.4178 11.4636 31.4007 10.9468C31.3087 8.15825 30.0498 6.53866 29.0101 5.67122C27.9052 4.74938 26.8358 4.47583 26.7174 4.44774C26.6577 4.43357 26.5979 4.42611 26.539 4.42488ZM30.5141 12.8521C30.2789 12.8521 30.0533 12.9507 29.8869 13.1263C29.7205 13.3019 29.6271 13.5401 29.6271 13.7884C29.6271 14.0367 29.7205 14.2749 29.8869 14.4505C30.0533 14.6261 30.2789 14.7248 30.5141 14.7248C30.7494 14.7248 30.975 14.6261 31.1414 14.4505C31.3078 14.2749 31.4012 14.0367 31.4012 13.7884C31.4012 13.5401 31.3078 13.3019 31.1414 13.1263C30.975 12.9507 30.7494 12.8521 30.5141 12.8521ZM13.6598 16.5975V18.4702H15.4339V16.5975H13.6598ZM16.321 16.5975V18.4702H18.0952V16.5975H16.321ZM18.9822 16.5975V18.4702H20.7564V16.5975H18.9822ZM11.8857 23.1519H35.493L31.649 35.3245H11.8857V23.1519ZM15.4339 25.961C14.944 25.961 14.5469 26.3803 14.5469 26.8973C14.5469 27.4144 14.944 27.8337 15.4339 27.8337H22.5305C23.0204 27.8337 23.4176 27.4144 23.4176 26.8973C23.4176 26.3803 23.0204 25.961 22.5305 25.961H15.4339ZM25.1917 25.961C24.9565 25.961 24.7308 26.0596 24.5645 26.2352C24.3981 26.4108 24.3047 26.649 24.3047 26.8973C24.3047 27.1457 24.3981 27.3838 24.5645 27.5594C24.7308 27.735 24.9565 27.8337 25.1917 27.8337C25.427 27.8337 25.6526 27.735 25.819 27.5594C25.9853 27.3838 26.0788 27.1457 26.0788 26.8973C26.0788 26.649 25.9853 26.4108 25.819 26.2352C25.6526 26.0596 25.427 25.961 25.1917 25.961ZM15.4339 28.77C14.944 28.77 14.5469 29.1893 14.5469 29.7064C14.5469 30.2235 14.944 30.6428 15.4339 30.6428H24.3047C24.7945 30.6428 25.1917 30.2235 25.1917 29.7064C25.1917 29.1893 24.7945 28.77 24.3047 28.77H15.4339ZM26.9659 28.77C26.7306 28.77 26.505 28.8687 26.3386 29.0443C26.1723 29.2199 26.0788 29.4581 26.0788 29.7064C26.0788 29.9547 26.1723 30.1929 26.3386 30.3685C26.505 30.5441 26.7306 30.6428 26.9659 30.6428C27.2011 30.6428 27.4268 30.5441 27.5931 30.3685C27.7595 30.1929 27.8529 29.9547 27.8529 29.7064C27.8529 29.4581 27.7595 29.2199 27.5931 29.0443C27.4268 28.8687 27.2011 28.77 26.9659 28.77ZM15.4339 31.5791C14.944 31.5791 14.5469 31.9984 14.5469 32.5155C14.5469 33.0325 14.944 33.4518 15.4339 33.4518H26.0788C26.5686 33.4518 26.9659 33.0325 26.9659 32.5155C26.9659 31.9984 26.5686 31.5791 26.0788 31.5791H15.4339ZM28.74 31.5791C28.5047 31.5791 28.2791 31.6778 28.1128 31.8534C27.9464 32.029 27.8529 32.2671 27.8529 32.5155C27.8529 32.7638 27.9464 33.002 28.1128 33.1776C28.2791 33.3532 28.5047 33.4518 28.74 33.4518C28.9753 33.4518 29.2009 33.3532 29.3673 33.1776C29.5336 33.002 29.6271 32.7638 29.6271 32.5155C29.6271 32.2671 29.5336 32.029 29.3673 31.8534C29.2009 31.6778 28.9753 31.5791 28.74 31.5791ZM14.9904 40.9426C15.7241 40.9426 16.321 41.5727 16.321 42.3472C16.321 43.1216 15.7241 43.7517 14.9904 43.7517C14.2567 43.7517 13.6598 43.1216 13.6598 42.3472C13.6598 41.5727 14.2567 40.9426 14.9904 40.9426ZM28.2965 40.9426C29.0302 40.9426 29.6271 41.5727 29.6271 42.3472C29.6271 43.1216 29.0302 43.7517 28.2965 43.7517C27.5628 43.7517 26.9659 43.1216 26.9659 42.3472C26.9659 41.5727 27.5628 40.9426 28.2965 40.9426Z" stroke="black" stroke-width="0.374541" mask="url(#path-1-outside-1_2060_263)"/>
</svg>
