<svg width="45" height="45" viewBox="0 0 45 45" fill="none" xmlns="http://www.w3.org/2000/svg">
<g clip-path="url(#clip0_2060_268)">
<path d="M10.0395 0.000277458C9.56993 0.00761387 9.12244 0.201042 8.79536 0.538076C8.46828 0.87511 8.28834 1.32819 8.29508 1.79779V5.11362C6.80932 5.65245 5.65191 6.80986 5.11308 8.29562H1.79725C1.56242 8.2923 1.32928 8.33568 1.11136 8.42325C0.893444 8.51082 0.695105 8.64083 0.527869 8.80571C0.360633 8.9706 0.227836 9.16708 0.137195 9.38374C0.0465547 9.60039 -0.00012207 9.8329 -0.00012207 10.0678C-0.00012207 10.3026 0.0465547 10.5351 0.137195 10.7518C0.227836 10.9684 0.360633 11.1649 0.527869 11.3298C0.695105 11.4947 0.893444 11.6247 1.11136 11.7123C1.32928 11.7998 1.56242 11.8432 1.79725 11.8399H4.75081V16.5656H1.79725C1.56242 16.5623 1.32928 16.6056 1.11136 16.6932C0.893444 16.7808 0.695105 16.9108 0.527869 17.0757C0.360633 17.2406 0.227836 17.437 0.137195 17.6537C0.0465547 17.8704 -0.00012207 18.1029 -0.00012207 18.3377C-0.00012207 18.5726 0.0465547 18.8051 0.137195 19.0217C0.227836 19.2384 0.360633 19.4349 0.527869 19.5998C0.695105 19.7646 0.893444 19.8947 1.11136 19.9822C1.32928 20.0698 1.56242 20.1132 1.79725 20.1099H4.75081V24.8355H1.79725C1.56242 24.8322 1.32928 24.8756 1.11136 24.9632C0.893444 25.0507 0.695105 25.1808 0.527869 25.3456C0.360633 25.5105 0.227836 25.707 0.137195 25.9237C0.0465547 26.1403 -0.00012207 26.3728 -0.00012207 26.6077C-0.00012207 26.8425 0.0465547 27.075 0.137195 27.2917C0.227836 27.5084 0.360633 27.7048 0.527869 27.8697C0.695105 28.0346 0.893444 28.1646 1.11136 28.2522C1.32928 28.3398 1.56242 28.3831 1.79725 28.3798H4.75081V33.1055H1.79725C1.56242 33.1022 1.32928 33.1456 1.11136 33.2331C0.893444 33.3207 0.695105 33.4507 0.527869 33.6156C0.360633 33.7805 0.227836 33.977 0.137195 34.1936C0.0465547 34.4103 -0.00012207 34.6428 -0.00012207 34.8776C-0.00012207 35.1125 0.0465547 35.345 0.137195 35.5617C0.227836 35.7783 0.360633 35.9748 0.527869 36.1397C0.695105 36.3046 0.893444 36.4346 1.11136 36.5221C1.32928 36.6097 1.56242 36.6531 1.79725 36.6498H5.11308C5.65191 38.1355 6.80932 39.2929 8.29508 39.8318V43.1476C8.29176 43.3824 8.33514 43.6156 8.42271 43.8335C8.51028 44.0514 8.64028 44.2498 8.80517 44.417C8.97006 44.5842 9.16654 44.717 9.3832 44.8077C9.59985 44.8983 9.83236 44.945 10.0672 44.945C10.3021 44.945 10.5346 44.8983 10.7512 44.8077C10.9679 44.717 11.1644 44.5842 11.3293 44.417C11.4941 44.2498 11.6242 44.0514 11.7117 43.8335C11.7993 43.6156 11.8427 43.3824 11.8394 43.1476V40.194H16.565V43.1476C16.5617 43.3824 16.6051 43.6156 16.6927 43.8335C16.7802 44.0514 16.9102 44.2498 17.0751 44.417C17.24 44.5842 17.4365 44.717 17.6532 44.8077C17.8698 44.8983 18.1023 44.945 18.3372 44.945C18.572 44.945 18.8045 44.8983 19.0212 44.8077C19.2379 44.717 19.4343 44.5842 19.5992 44.417C19.7641 44.2498 19.8941 44.0514 19.9817 43.8335C20.0693 43.6156 20.1126 43.3824 20.1093 43.1476V40.194H24.835V43.1476C24.8317 43.3824 24.8751 43.6156 24.9626 43.8335C25.0502 44.0514 25.1802 44.2498 25.3451 44.417C25.51 44.5842 25.7065 44.717 25.9231 44.8077C26.1398 44.8983 26.3723 44.945 26.6071 44.945C26.842 44.945 27.0745 44.8983 27.2912 44.8077C27.5078 44.717 27.7043 44.5842 27.8692 44.417C28.0341 44.2498 28.1641 44.0514 28.2516 43.8335C28.3392 43.6156 28.3826 43.3824 28.3793 43.1476V40.194H33.105V43.1476C33.1017 43.3824 33.145 43.6156 33.2326 43.8335C33.3202 44.0514 33.4502 44.2498 33.6151 44.417C33.7799 44.5842 33.9764 44.717 34.1931 44.8077C34.4097 44.8983 34.6423 44.945 34.8771 44.945C35.112 44.945 35.3445 44.8983 35.5611 44.8077C35.7778 44.717 35.9743 44.5842 36.1391 44.417C36.304 44.2498 36.434 44.0514 36.5216 43.8335C36.6092 43.6156 36.6526 43.3824 36.6492 43.1476V39.8318C38.135 39.2929 39.2924 38.1355 39.8312 36.6498H43.1471C43.3819 36.6531 43.615 36.6097 43.833 36.5221C44.0509 36.4346 44.2492 36.3046 44.4164 36.1397C44.5837 35.9748 44.7165 35.7783 44.8071 35.5617C44.8978 35.345 44.9444 35.1125 44.9444 34.8776C44.9444 34.6428 44.8978 34.4103 44.8071 34.1936C44.7165 33.977 44.5837 33.7805 44.4164 33.6156C44.2492 33.4507 44.0509 33.3207 43.833 33.2331C43.615 33.1456 43.3819 33.1022 43.1471 33.1055H40.1935V28.3798H43.1471C43.3819 28.3831 43.615 28.3398 43.833 28.2522C44.0509 28.1646 44.2492 28.0346 44.4164 27.8697C44.5837 27.7048 44.7165 27.5084 44.8071 27.2917C44.8978 27.075 44.9444 26.8425 44.9444 26.6077C44.9444 26.3728 44.8978 26.1403 44.8071 25.9237C44.7165 25.707 44.5837 25.5105 44.4164 25.3456C44.2492 25.1808 44.0509 25.0507 43.833 24.9632C43.615 24.8756 43.3819 24.8322 43.1471 24.8355H40.1935V20.1099H43.1471C43.3819 20.1132 43.615 20.0698 43.833 19.9822C44.0509 19.8947 44.2492 19.7646 44.4164 19.5998C44.5837 19.4349 44.7165 19.2384 44.8071 19.0217C44.8978 18.8051 44.9444 18.5726 44.9444 18.3377C44.9444 18.1029 44.8978 17.8704 44.8071 17.6537C44.7165 17.437 44.5837 17.2406 44.4164 17.0757C44.2492 16.9108 44.0509 16.7808 43.833 16.6932C43.615 16.6056 43.3819 16.5623 43.1471 16.5656H40.1935V11.8399H43.1471C43.3819 11.8432 43.615 11.7998 43.833 11.7123C44.0509 11.6247 44.2492 11.4947 44.4164 11.3298C44.5837 11.1649 44.7165 10.9684 44.8071 10.7518C44.8978 10.5351 44.9444 10.3026 44.9444 10.0678C44.9444 9.8329 44.8978 9.60039 44.8071 9.38374C44.7165 9.16708 44.5837 8.9706 44.4164 8.80571C44.2492 8.64083 44.0509 8.51082 43.833 8.42325C43.615 8.33568 43.3819 8.2923 43.1471 8.29562H39.8312C39.2924 6.80986 38.135 5.65245 36.6492 5.11362V1.79779C36.6526 1.56297 36.6092 1.32982 36.5216 1.1119C36.434 0.893986 36.304 0.695647 36.1391 0.528411C35.9743 0.361175 35.7778 0.228378 35.5611 0.137737C35.3445 0.0470967 35.112 0.000419984 34.8771 0.000419984C34.6423 0.000419984 34.4097 0.0470967 34.1931 0.137737C33.9764 0.228378 33.7799 0.361175 33.6151 0.528411C33.4502 0.695647 33.3202 0.893986 33.2326 1.1119C33.145 1.32982 33.1017 1.56297 33.105 1.79779V4.75135H28.3793V1.79779C28.3826 1.56297 28.3392 1.32982 28.2516 1.1119C28.1641 0.893986 28.0341 0.695647 27.8692 0.528411C27.7043 0.361175 27.5078 0.228378 27.2912 0.137737C27.0745 0.0470967 26.842 0.000419984 26.6071 0.000419984C26.3723 0.000419984 26.1398 0.0470967 25.9231 0.137737C25.7065 0.228378 25.51 0.361175 25.3451 0.528411C25.1802 0.695647 25.0502 0.893986 24.9626 1.1119C24.8751 1.32982 24.8317 1.56297 24.835 1.79779V4.75135H20.1093V1.79779C20.1126 1.56297 20.0693 1.32982 19.9817 1.1119C19.8941 0.893986 19.7641 0.695647 19.5992 0.528411C19.4343 0.361175 19.2379 0.228378 19.0212 0.137737C18.8045 0.0470967 18.572 0.000419984 18.3372 0.000419984C18.1023 0.000419984 17.8698 0.0470967 17.6532 0.137737C17.4365 0.228378 17.24 0.361175 17.0751 0.528411C16.9102 0.695647 16.7802 0.893986 16.6927 1.1119C16.6051 1.32982 16.5617 1.56297 16.565 1.79779V4.75135H11.8394V1.79779C11.8428 1.56061 11.7985 1.32515 11.7092 1.10537C11.62 0.885599 11.4875 0.685983 11.3196 0.518356C11.1518 0.350728 10.952 0.218499 10.7321 0.129507C10.5122 0.0405154 10.2767 -0.0034294 10.0395 0.000277458ZM10.351 8.29562H18.0464C18.2367 8.32687 18.4308 8.32687 18.621 8.29562H26.3164C26.5066 8.32687 26.7007 8.32687 26.891 8.29562H34.5864C34.7015 8.31476 34.8182 8.32249 34.9348 8.3187C35.8794 8.35213 36.5939 9.06738 36.6262 10.0124C36.623 10.1259 36.6307 10.2395 36.6492 10.3516V18.047C36.618 18.2372 36.618 18.4313 36.6492 18.6215V26.3169C36.618 26.5072 36.618 26.7013 36.6492 26.8915V34.5869C36.6301 34.702 36.6224 34.8187 36.6262 34.9353C36.5927 35.88 35.8775 36.5944 34.9325 36.6267C34.8189 36.6235 34.7054 36.6312 34.5933 36.6498H26.8979C26.7076 36.6185 26.5136 36.6185 26.3233 36.6498H18.6279C18.4377 36.6185 18.2436 36.6185 18.0534 36.6498H10.358C10.2429 36.6306 10.1261 36.6229 10.0095 36.6267C9.06489 36.5933 8.35044 35.878 8.31816 34.933C8.32135 34.8195 8.31362 34.7059 8.29508 34.5938V26.8984C8.32633 26.7082 8.32633 26.5141 8.29508 26.3239V18.6285C8.32633 18.4382 8.32633 18.2441 8.29508 18.0539V10.3585C8.31422 10.2434 8.32195 10.1267 8.31816 10.0101C8.35159 9.06543 9.06684 8.35099 10.0118 8.3187C10.1254 8.32189 10.239 8.31417 10.351 8.29562ZM17.1558 14.2027C15.5501 14.2027 14.2022 15.5507 14.2022 17.1563V27.7891C14.2022 29.3947 15.5501 30.7427 17.1558 30.7427H27.7886C29.3942 30.7427 30.7421 29.3947 30.7421 27.7891V17.1563C30.7421 15.5507 29.3942 14.2027 27.7886 14.2027H17.1558ZM17.7465 17.747H27.1979V27.1984H17.7465V17.747Z" fill="black"/>
</g>
<defs>
<clipPath id="clip0_2060_268">
<rect width="44.9449" height="44.9449" fill="white"/>
</clipPath>
</defs>
</svg>
