<svg width="62" height="46" viewBox="0 0 62 46" fill="none" xmlns="http://www.w3.org/2000/svg">
<path d="M3.77928 0.789551C1.38778 0.979352 0.381836 2.9343 0.381836 4.30087V36.0166C0.381836 38.0238 2.01887 39.6608 4.02602 39.6608H8.99881C9.5777 43.0962 12.5766 45.7345 16.1733 45.7345C19.77 45.7345 22.7689 43.0962 23.3478 39.6608H38.0384V4.31511C38.0384 2.43608 36.3919 0.789551 34.5128 0.789551H3.77928ZM18.6027 6.86319C24.6147 6.86319 29.5353 11.7838 29.5353 17.7957C29.5353 23.8077 24.6147 28.7283 18.6027 28.7283C12.5908 28.7283 7.6702 23.8077 7.6702 17.7957C7.6702 11.7838 12.5908 6.86319 18.6027 6.86319ZM40.4678 9.29264V39.6608H41.7917C42.3706 43.101 45.3647 45.7345 48.9709 45.7345C52.5772 45.7345 55.5665 43.101 56.1502 39.6608H57.474C59.3483 39.6608 61.1182 37.8909 61.1182 36.0166V24.3581C61.1182 21.9761 59.3958 19.447 59.1775 19.1386L54.1715 12.4244C53.2367 11.2523 51.3197 9.29264 48.9709 9.29264H40.4678ZM17.388 10.5074V17.1884L13.0178 20.4672L14.4698 22.4126L19.8175 18.4031V10.5074H17.388ZM46.5415 11.7221H48.9709C49.9294 11.7221 51.1631 12.5525 52.2498 13.9048L57.2083 20.5573C57.5737 21.084 58.4515 22.5835 58.6508 23.8694H47.7562C47.2105 23.8694 46.5415 23.2003 46.5415 22.6546V11.7221ZM16.1733 33.5872C18.8732 33.5872 21.0322 35.7462 21.0322 38.4461C21.0322 41.146 18.8732 43.305 16.1733 43.305C13.4734 43.305 11.3144 41.146 11.3144 38.4461C11.3144 35.7462 13.4734 33.5872 16.1733 33.5872ZM48.9709 33.5872C51.6519 33.5872 53.8298 35.7652 53.8298 38.4461C53.8298 41.127 51.6519 43.305 48.9709 43.305C46.29 43.305 44.112 41.127 44.112 38.4461C44.112 35.7652 46.29 33.5872 48.9709 33.5872Z" fill="black"/>
</svg>
