<svg width="33" height="33" viewBox="0 0 33 33" fill="none" xmlns="http://www.w3.org/2000/svg">
<path d="M6.82657 26.1134L0.834575 22.8365L2.8007 20.8704L7.48195 21.5258L14.7847 14.223L0.179199 6.26489L2.8007 3.64339L20.6831 8.23101L28.0326 0.975073C28.5632 0.444531 29.2267 0.17926 30.0231 0.17926C30.8195 0.17926 31.4824 0.444531 32.0117 0.975073C32.541 1.50561 32.8063 2.1691 32.8075 2.96554C32.8088 3.76198 32.5435 4.42484 32.0117 4.95413L24.7089 12.2569L29.2966 30.1393L26.6751 32.7608L18.7169 18.1553L11.4142 25.458L12.0696 30.1393L10.1034 32.1054L6.82657 26.1134Z" fill="black"/>
</svg>
