<svg width="57" height="46" viewBox="0 0 57 46" fill="none" xmlns="http://www.w3.org/2000/svg">
<path d="M18.66 0.734847C18.0853 0.746785 17.5141 0.978933 17.0843 1.42613L8.04057 10.8473L17.0843 20.2686C17.5248 20.7281 18.1162 20.9598 18.7061 20.9598C19.2657 20.9598 19.8261 20.7524 20.262 20.3344C21.1576 19.4748 21.1864 18.0522 20.3257 17.1567L16.4282 13.0946H47.0202C48.2607 13.0946 49.2674 12.0878 49.2674 10.8473C49.2674 9.60688 48.2607 8.60012 47.0202 8.60012H16.4282L20.3257 4.53801C21.1852 3.64249 21.1576 2.21986 20.262 1.36029C19.8143 0.930513 19.2347 0.722908 18.66 0.734847ZM10.8847 25.4543C5.30936 25.4543 0.772217 29.9903 0.772217 35.5668C0.772217 41.1433 5.30936 45.6793 10.8847 45.6793H56.9528V35.5668C56.9528 38.6646 54.4325 41.1848 51.3347 41.1848C48.2369 41.1848 45.7166 38.6646 45.7166 35.5668C45.7166 32.469 48.2369 29.9487 51.3347 29.9487C54.4325 29.9487 56.9528 32.469 56.9528 35.5668V25.4543H10.8847ZM12.0083 29.9487C15.1061 29.9487 17.6264 32.469 17.6264 35.5668C17.6264 38.6646 15.1061 41.1848 12.0083 41.1848C8.91053 41.1848 6.39027 38.6646 6.39027 35.5668C6.39027 32.469 8.91053 29.9487 12.0083 29.9487ZM31.1097 29.9487C34.2075 29.9487 36.7278 32.469 36.7278 35.5668C36.7278 38.6646 34.2075 41.1848 31.1097 41.1848C28.0119 41.1848 25.4917 38.6646 25.4917 35.5668C25.4917 32.469 28.0119 29.9487 31.1097 29.9487ZM12.0083 32.1959C10.1465 32.1959 8.63749 33.705 8.63749 35.5668C8.63749 37.4286 10.1465 38.9376 12.0083 38.9376C13.8701 38.9376 15.3792 37.4286 15.3792 35.5668C15.3792 33.705 13.8701 32.1959 12.0083 32.1959ZM31.1097 32.1959C29.2479 32.1959 27.7389 33.705 27.7389 35.5668C27.7389 37.4286 29.2479 38.9376 31.1097 38.9376C32.9715 38.9376 34.4805 37.4286 34.4805 35.5668C34.4805 33.705 32.9715 32.1959 31.1097 32.1959ZM51.3347 32.1959C49.4729 32.1959 47.9639 33.705 47.9639 35.5668C47.9639 37.4286 49.4729 38.9376 51.3347 38.9376C53.1965 38.9376 54.7055 37.4286 54.7055 35.5668C54.7055 33.705 53.1965 32.1959 51.3347 32.1959Z" fill="black"/>
</svg>
