<svg width="45" height="46" viewBox="0 0 45 46" fill="none" xmlns="http://www.w3.org/2000/svg">
<path d="M4.43227 0.880188C2.32187 0.880188 0.612549 2.58951 0.612549 4.69991V23.7985V27.6182C0.612549 29.7286 2.32187 31.438 4.43227 31.438H8.01326H17.6446L15.4662 29.2595C13.9975 27.7908 12.9781 25.0625 12.8998 24.69C12.8559 24.5067 12.8004 24.2798 12.7431 24.0372C12.2179 21.8084 11.1988 17.4124 11.1988 17.4124C10.8971 16.1233 11.2832 14.7709 12.2209 13.8389C12.9448 13.1189 13.9172 12.7273 14.9141 12.7273C15.2082 12.7273 15.5078 12.7648 15.8019 12.8355L17.8013 13.3092V6.60977C17.8013 3.44513 15.2364 0.880188 12.0717 0.880188H4.43227ZM27.3506 0.880188C24.186 0.880188 21.621 3.44513 21.621 6.60977V14.2194L22.949 14.5364C24.7175 14.928 26.3482 15.8262 27.6565 17.1364L38.7463 28.2263C38.7807 28.0276 38.8098 27.8264 38.8098 27.6182V4.69991C38.8098 2.58951 37.1004 0.880188 34.99 0.880188H27.3506ZM14.944 16.5657L16.5853 23.8358L22.2104 18.2107L14.944 16.5657ZM25.9555 20.8293C25.9555 20.8293 26.0628 22.6318 25.2244 23.4703C24.3879 24.3068 22.6058 24.179 22.6058 24.179C22.6058 24.179 22.6833 26.0114 21.8448 26.8498C21.0064 27.6882 19.2038 27.5809 19.2038 27.5809L31.9462 40.3233L38.6979 33.5716L25.9555 20.8293ZM41.5626 36.4364L34.811 43.1881L36.0457 44.4265C37.9059 46.2867 40.9202 46.2922 42.7862 44.4377C44.6616 42.5737 44.6689 39.539 42.8011 37.6711L41.5626 36.4364Z" fill="black"/>
</svg>
