<svg width="40" height="47" viewBox="0 0 40 47" fill="none" xmlns="http://www.w3.org/2000/svg">
<path d="M15.0628 1.01979C12.6424 1.01979 10.7265 3.19266 10.7265 5.84424V43.8245H9.95626C9.29122 43.8245 8.81151 44.3922 8.81151 45.0819C8.81151 45.7716 9.29122 46.3393 9.95626 46.3393H38.0421C38.7072 46.3393 39.1869 45.7716 39.1869 45.0819C39.1869 44.3922 38.7072 43.8245 38.0421 43.8245H37.2719V5.84424C37.2719 3.19266 35.356 1.01979 32.9356 1.01979H15.0628ZM15.0628 3.53457H32.9356C34.0579 3.53457 34.9824 4.53638 34.9824 5.84424V43.8245H28.3355V36.1642C28.3355 35.4745 27.8558 34.9068 27.1908 34.9068H20.8076C20.1426 34.9068 19.6629 35.4745 19.6629 36.1642V43.8245H13.0159V5.84424C13.0159 4.53638 13.9405 3.53457 15.0628 3.53457ZM23.9992 6.37038C23.3342 6.37038 22.8545 6.93807 22.8545 7.62776V9.93743H20.8076C20.1426 9.93743 19.6629 10.5051 19.6629 11.1948C19.6629 11.8845 20.1426 12.4522 20.8076 12.4522H22.8545V14.7619C22.8545 15.4516 23.3342 16.0193 23.9992 16.0193C24.6642 16.0193 25.1439 15.4516 25.1439 14.7619V12.4522H27.1908C27.8558 12.4522 28.3355 11.8845 28.3355 11.1948C28.3355 10.5051 27.8558 9.93743 27.1908 9.93743H25.1439V7.62776C25.1439 6.93807 24.6642 6.37038 23.9992 6.37038ZM16.0203 18.8551C15.3552 18.8551 14.8755 19.4228 14.8755 20.1125C14.8755 20.8022 15.3552 21.3699 16.0203 21.3699H31.9781C32.6432 21.3699 33.1229 20.8022 33.1229 20.1125C33.1229 19.4228 32.6432 18.8551 31.9781 18.8551H16.0203ZM4.84973 24.2057C2.42933 24.2057 0.513413 26.3785 0.513413 29.0301V45.0819C0.513413 45.7716 0.993118 46.3393 1.65816 46.3393C2.3232 46.3393 2.8029 45.7716 2.8029 45.0819V29.0301C2.8029 27.7222 3.72749 26.7204 4.84973 26.7204H8.04131C8.70635 26.7204 9.18606 26.1527 9.18606 25.463C9.18606 24.7734 8.70635 24.2057 8.04131 24.2057H4.84973ZM16.0203 24.2057C15.3552 24.2057 14.8755 24.7734 14.8755 25.463C14.8755 26.1527 15.3552 26.7204 16.0203 26.7204H31.9781C32.6432 26.7204 33.1229 26.1527 33.1229 25.463C33.1229 24.7734 32.6432 24.2057 31.9781 24.2057H16.0203ZM5.48805 29.5562C4.82301 29.5562 4.34331 30.1239 4.34331 30.8136C4.34331 31.5033 4.82301 32.071 5.48805 32.071H8.04131C8.70635 32.071 9.18606 31.5033 9.18606 30.8136C9.18606 30.1239 8.70635 29.5562 8.04131 29.5562H5.48805ZM16.0203 29.5562C15.3552 29.5562 14.8755 30.1239 14.8755 30.8136C14.8755 31.5033 15.3552 32.071 16.0203 32.071H31.9781C32.6432 32.071 33.1229 31.5033 33.1229 30.8136C33.1229 30.1239 32.6432 29.5562 31.9781 29.5562H16.0203ZM5.48805 34.9068C4.82301 34.9068 4.34331 35.4745 4.34331 36.1642C4.34331 36.8539 4.82301 37.4216 5.48805 37.4216H8.04131C8.70635 37.4216 9.18606 36.8539 9.18606 36.1642C9.18606 35.4745 8.70635 34.9068 8.04131 34.9068H5.48805ZM21.9524 37.4216H26.046V43.8245H21.9524V37.4216Z" fill="black" stroke="black" stroke-width="0.374541"/>
</svg>
