<svg width="24" height="24" viewBox="0 0 24 24" fill="none" xmlns="http://www.w3.org/2000/svg">
<path d="M7 0.750244C3.55375 0.750244 0.75 3.55399 0.75 7.00024V17.0002C0.75 20.4465 3.55375 23.2502 7 23.2502H17C20.4463 23.2502 23.25 20.4465 23.25 17.0002V7.00024C23.25 3.55399 20.4463 0.750244 17 0.750244H7ZM7 3.25024H17C19.0675 3.25024 20.75 4.93274 20.75 7.00024V17.0002C20.75 19.0677 19.0675 20.7502 17 20.7502H7C4.9325 20.7502 3.25 19.0677 3.25 17.0002V7.00024C3.25 4.93274 4.9325 3.25024 7 3.25024ZM18.25 4.50024C17.9185 4.50024 17.6005 4.63194 17.3661 4.86636C17.1317 5.10078 17 5.41872 17 5.75024C17 6.08176 17.1317 6.39971 17.3661 6.63413C17.6005 6.86855 17.9185 7.00024 18.25 7.00024C18.5815 7.00024 18.8995 6.86855 19.1339 6.63413C19.3683 6.39971 19.5 6.08176 19.5 5.75024C19.5 5.41872 19.3683 5.10078 19.1339 4.86636C18.8995 4.63194 18.5815 4.50024 18.25 4.50024ZM12 5.75024C8.55375 5.75024 5.75 8.55399 5.75 12.0002C5.75 15.4465 8.55375 18.2502 12 18.2502C15.4462 18.2502 18.25 15.4465 18.25 12.0002C18.25 8.55399 15.4462 5.75024 12 5.75024ZM12 8.25024C14.0675 8.25024 15.75 9.93274 15.75 12.0002C15.75 14.0677 14.0675 15.7502 12 15.7502C9.9325 15.7502 8.25 14.0677 8.25 12.0002C8.25 9.93274 9.9325 8.25024 12 8.25024Z" fill="#718096"/>
</svg>
