<svg width="73" height="58" viewBox="0 0 73 58" fill="none" xmlns="http://www.w3.org/2000/svg">
<g clip-path="url(#clip0_2421_330)">
<path fill-rule="evenodd" clip-rule="evenodd" d="M40.5339 49.2429C34.3674 49.2429 38.4249 49.7241 39.2685 43.0229C40.5279 32.995 50.0569 32.995 51.4648 43.0229C52.3678 49.4687 56.2353 49.2429 50.1995 49.2429H47.7875C47.7756 50.8885 47.5261 51.3935 49.2252 52.3143C50.0925 52.7836 51.7144 53.1341 53.0926 53.6807C55.2016 51.8806 58.9443 53.0688 59.3304 49.7657C59.3898 49.2607 58.2017 47.6746 57.9343 46.7597C57.3521 45.827 57.1442 44.3596 57.7799 43.3794C58.0294 42.9873 57.9284 41.5675 57.9284 41.0328C57.9284 35.6921 67.2851 35.6861 67.2851 41.0328C67.2851 41.7041 67.1306 42.9517 67.493 43.4804C68.1049 44.3715 67.79 45.9458 67.2732 46.7656C66.9405 47.734 65.6811 49.231 65.788 49.7716C66.6969 54.3936 72.9941 49.4449 72.9941 57.762C48.6608 57.762 24.3275 57.4293 -0.00585938 57.4293C-0.00585938 48.9756 7.97258 53.9837 8.58447 48.8092C8.64982 48.2449 7.31909 46.427 7.01611 45.3993C6.36857 44.3596 6.125 42.7022 6.84383 41.6031C7.12899 41.1694 7.01017 39.5714 7.01017 38.9654C7.01017 32.9771 17.4956 32.9771 17.4956 38.9654C17.4956 39.7258 17.3233 41.116 17.7332 41.71C18.4224 42.7022 18.0659 44.4666 17.4897 45.3933C17.1154 46.4805 15.7074 48.1914 15.8203 48.8033C16.2599 51.043 21.8383 52.2311 23.7809 53.0509C24.88 52.4866 25.7592 52.1539 25.8542 51.3757C25.9018 50.9717 24.9513 49.7776 24.7374 49.0409C24.274 48.2983 24.1077 47.1221 24.6126 46.3379C24.8146 46.023 24.7314 44.8943 24.7314 44.4606C24.7314 40.2011 32.2049 40.1951 32.2049 44.4606C32.2049 45.0012 32.0802 45.9933 32.3713 46.4151C32.8643 47.128 32.6089 48.3815 32.193 49.0409C31.9316 49.8132 30.9217 50.942 31.0108 51.3757C31.5633 54.1738 34.5812 52.5816 36.0129 54.5361C37.3615 53.4787 40.0467 53.1816 41.6804 52.2014C43.1775 51.3044 42.922 50.74 42.9102 49.2489L40.5279 48.9102V49.2429H40.5339ZM56.5264 36.1139H52.3381C51.5777 35.0386 50.6926 34.1831 49.7301 33.5534C48.34 32.6385 46.8073 32.187 45.2686 32.193C43.7181 32.1989 42.1854 32.6742 40.8071 33.6069C39.8863 34.2306 39.0368 35.0683 38.3061 36.1139H20.3175C19.4739 33.9158 17.6501 32.4484 15.4817 31.6939C14.4302 31.3315 13.3311 31.1474 12.2618 31.1474C11.1925 31.1474 10.0934 31.3315 9.04191 31.6939C8.64982 31.8306 8.26367 31.991 7.89535 32.1751V31.284C7.89535 30.684 8.38843 30.185 8.99439 30.185H9.79045V1.59806C9.79045 1.16439 9.96867 0.760417 10.2598 0.46932C10.5449 0.178223 10.9489 0 11.3945 0C28.1355 0 43.0112 0 61.6117 0C62.0513 0 62.4552 0.178223 62.7463 0.46932C62.7761 0.499023 62.7998 0.528727 62.8236 0.55249C63.0731 0.831706 63.2157 1.20003 63.2157 1.59806V30.1909H64.0117C64.6117 30.1909 65.1108 30.684 65.1108 31.29V34.0524C64.285 33.8148 63.4355 33.7019 62.6156 33.7019C61.6235 33.7019 60.6017 33.8742 59.6274 34.2128C58.4452 34.6168 57.3759 35.2524 56.5264 36.1139ZM44.2349 12.7964C44.2349 13.0637 44.0211 13.2776 43.7537 13.2776C43.4864 13.2776 43.2725 13.0637 43.2725 12.7964V10.9132C43.2725 10.1765 43.0824 9.42204 42.7498 8.73291C42.4052 8.01408 41.9181 7.36654 41.3359 6.87345C40.0942 5.82194 38.4665 5.28727 36.8268 5.26945C35.1694 5.25163 33.5059 5.75659 32.2287 6.7784C31.6108 7.27148 31.0465 7.91309 30.6544 8.63786C30.3098 9.26758 30.1019 9.95077 30.1019 10.6399V12.8202L30.1138 12.8142L30.5474 13.3548C30.5118 12.4875 30.5118 11.5607 30.5474 10.7409C30.5771 10.4617 30.6306 10.1825 30.7078 9.8973C31.4148 7.37248 34.2901 5.90511 36.7912 6.04175C38.7279 6.14868 40.5457 6.85563 41.6982 8.18042C43.3022 10.0339 42.8864 12.3211 42.8329 14.5846C43.1953 14.6974 43.427 14.9232 43.5161 15.2915C43.6171 15.7014 43.5042 16.2777 43.1597 17.0618C43.1537 17.0737 43.1478 17.0916 43.1359 17.1034L41.6567 19.5391C41.0863 20.4778 40.5042 21.4224 39.7378 22.1412C39.6843 22.1887 40.6646 23.6561 40.7774 23.8224C42.3993 25.0462 46.5578 25.3254 48.144 26.2047C48.6608 26.4958 49.1301 26.8641 49.5044 27.3572C50.3955 28.5334 50.5024 28.7236 50.8232 30.0543H61.2671V1.93669C48.2212 1.93669 25.783 1.94857 11.7212 1.94857V30.0721H22.165C22.4858 28.7354 22.5868 28.5513 23.4839 27.375C23.8582 26.876 24.3275 26.5077 24.8443 26.2225C26.4305 25.3373 30.589 25.0581 32.2109 23.8343L32.995 21.5531C32.5317 21.0006 32.1277 20.3768 31.7475 19.7649L30.4762 17.745C30.3811 17.7391 30.2861 17.7213 30.191 17.6916C29.1751 17.3708 28.3315 15.1073 28.4919 14.038C28.587 13.432 28.8009 13.2182 29.1454 13.0815C29.1276 13.034 29.1217 12.9806 29.1217 12.9271V10.6458C29.1217 9.79037 29.3771 8.94678 29.7989 8.18042C30.2563 7.34277 30.9098 6.59424 31.6168 6.02987C33.0663 4.87142 34.9495 4.29517 36.8209 4.31299C38.6803 4.33675 40.5279 4.93677 41.9478 6.14274C42.6309 6.72494 43.2072 7.48535 43.6112 8.323C44.0033 9.14282 44.229 10.0399 44.229 10.9191L44.2349 12.7964ZM33.5475 22.1293C33.3337 22.8422 32.9534 24.1016 32.597 24.6423L34.6584 28.8305L35.805 26.4067C33.9753 23.5432 39.2744 23.7096 37.409 26.4067L38.5556 28.8305L40.4804 24.6423C39.9932 24.0185 39.5833 23.3115 39.1615 22.6343C37.4862 23.8759 34.9911 23.5789 33.5475 22.1293ZM31.189 15.0658L31.7534 16.6104C31.8128 16.7886 31.8307 16.943 31.8069 17.0797L31.8128 17.0737C32.6921 18.054 33.7792 18.7609 35.0862 19.1708C35.1515 19.0223 35.2466 18.8857 35.3773 18.7847C35.7753 18.4757 36.9456 18.5055 37.3021 18.8025C37.6051 19.052 37.611 19.6283 37.3853 19.9253C36.9159 20.5491 34.9792 20.0263 34.3258 19.8124C33.2861 19.4797 32.3416 18.6718 31.4861 17.953L32.3713 19.355C32.894 20.1807 33.4347 21.0243 34.1178 21.6481C34.7713 22.2422 35.5614 22.6462 36.607 22.6521C37.7417 22.6521 38.5675 22.2362 39.2388 21.6065C39.9398 20.953 40.4923 20.056 41.0329 19.1589L42.4943 16.7529C42.7676 16.1292 42.8686 15.7133 42.8032 15.4697C42.7676 15.3212 42.6072 15.2559 42.3339 15.238C42.2745 15.238 42.2151 15.238 42.1557 15.238C42.0903 15.238 42.019 15.244 41.9537 15.2499C41.9121 15.2499 41.8765 15.2499 41.8408 15.244C41.7101 15.2499 41.5735 15.244 41.4369 15.2202L41.9418 13.0043C38.2229 13.5865 35.4486 10.83 31.5217 12.4518L31.8069 15.0658C31.6465 15.0717 31.498 15.0658 31.3613 15.0479C31.296 15.0539 31.2425 15.0598 31.189 15.0658Z" fill="#16205F"/>
</g>
<defs>
<clipPath id="clip0_2421_330">
<rect width="73" height="57.756" fill="white"/>
</clipPath>
</defs>
</svg>
