<svg width="24" height="24" viewBox="0 0 24 24" fill="none" xmlns="http://www.w3.org/2000/svg">
<path d="M3.25 0.750244C1.86875 0.750244 0.75 1.86899 0.75 3.25024V20.7502C0.75 22.1315 1.86875 23.2502 3.25 23.2502H20.75C22.1313 23.2502 23.25 22.1315 23.25 20.7502V3.25024C23.25 1.86899 22.1313 0.750244 20.75 0.750244H3.25ZM3.25 3.25024H20.75V20.7502H3.25V3.25024ZM6.72412 4.89575C5.65287 4.89575 5.01025 5.53972 5.01025 6.39722C5.01025 7.25472 5.65295 7.89624 6.6167 7.89624C7.68795 7.89624 8.33057 7.25472 8.33057 6.39722C8.33057 5.53972 7.68787 4.89575 6.72412 4.89575ZM5.0957 9.50024V18.2502H8.25V9.50024H5.0957ZM10.8525 9.50024V18.2502H14.0068V13.4675C14.0068 12.0438 15.0226 11.8391 15.3276 11.8391C15.6326 11.8391 16.4482 12.145 16.4482 13.4675V18.2502H19.5V13.4675C19.5 10.7213 18.2797 9.50024 16.7534 9.50024C15.2272 9.50024 14.4131 10.0084 14.0068 10.7209V9.50024H10.8525Z" fill="#718096"/>
</svg>
