<svg width="24" height="24" viewBox="0 0 24 24" fill="none" xmlns="http://www.w3.org/2000/svg">
<g clip-path="url(#clip0_2484_2656)">
<path d="M12 2.00024C8.13 2.00024 5 5.13024 5 9.00024C5 14.2502 12 22.0002 12 22.0002C12 22.0002 19 14.2502 19 9.00024C19 5.13024 15.87 2.00024 12 2.00024ZM7 9.00024C7 6.24024 9.24 4.00024 12 4.00024C14.76 4.00024 17 6.24024 17 9.00024C17 11.8802 14.12 16.1902 12 18.8802C9.92 16.2102 7 11.8502 7 9.00024Z" fill="#718096"/>
<path d="M12 11.5002C13.3807 11.5002 14.5 10.381 14.5 9.00024C14.5 7.61953 13.3807 6.50024 12 6.50024C10.6193 6.50024 9.5 7.61953 9.5 9.00024C9.5 10.381 10.6193 11.5002 12 11.5002Z" fill="#718096"/>
</g>
<defs>
<clipPath id="clip0_2484_2656">
<rect width="24" height="24" fill="white" transform="translate(0 0.000244141)"/>
</clipPath>
</defs>
</svg>
