<svg width="1439" height="137" viewBox="0 0 1439 137" fill="none" xmlns="http://www.w3.org/2000/svg">
<path d="M107.871 28.0967H135.498L154.501 74.4069H155.459L174.462 28.0967H202.089V109.858H180.371V62.5898H179.732L161.527 109.219H148.433L130.228 62.2704H129.589V109.858H107.871V28.0967ZM234.805 28.0967V109.858H212.608V28.0967H234.805ZM245.325 109.858V28.0967H267.522V91.9728H300.578V109.858H245.325ZM309.55 109.858V28.0967H368.476V45.982H331.747V60.0348H365.442V77.9201H331.747V91.9728H368.316V109.858H309.55ZM423.559 53.6472C423.346 50.9857 422.348 48.9097 420.565 47.4192C418.808 45.9288 416.133 45.1836 412.54 45.1836C410.251 45.1836 408.375 45.463 406.911 46.0219C405.474 46.5542 404.409 47.2862 403.717 48.2177C403.025 49.1492 402.666 50.2138 402.64 51.4115C402.586 52.3962 402.759 53.2879 403.159 54.0863C403.584 54.8581 404.25 55.5634 405.155 56.2022C406.06 56.8143 407.217 57.3733 408.628 57.8789C410.039 58.3846 411.715 58.8371 413.658 59.2363L420.365 60.6735C424.89 61.6317 428.762 62.8959 431.983 64.4662C435.203 66.0365 437.838 67.8862 439.887 70.0154C441.937 72.118 443.44 74.4867 444.399 77.1216C445.383 79.7565 445.889 82.6309 445.916 85.7449C445.889 91.1211 444.545 95.6723 441.883 99.3984C439.222 103.124 435.416 105.959 430.466 107.902C425.542 109.845 419.62 110.816 412.7 110.816C405.594 110.816 399.393 109.765 394.096 107.662C388.826 105.56 384.728 102.326 381.8 97.9612C378.899 93.5697 377.435 87.9539 377.408 81.1139H398.488C398.621 83.6157 399.246 85.7183 400.364 87.4216C401.482 89.125 403.052 90.4158 405.075 91.2941C407.124 92.1724 409.559 92.6116 412.381 92.6116C414.749 92.6116 416.732 92.3188 418.329 91.7333C419.926 91.1477 421.137 90.336 421.962 89.298C422.787 88.26 423.213 87.0756 423.24 85.7449C423.213 84.494 422.8 83.4028 422.002 82.4712C421.23 81.5131 419.953 80.6614 418.169 79.9162C416.386 79.1444 413.978 78.4257 410.943 77.7604L402.799 76.0038C395.56 74.4335 389.851 71.8119 385.672 68.139C381.521 64.4395 379.458 59.396 379.484 53.0084C379.458 47.8185 380.842 43.2806 383.636 39.3948C386.458 35.4824 390.357 32.435 395.334 30.2525C400.337 28.0701 406.073 26.9789 412.54 26.9789C419.141 26.9789 424.85 28.0834 429.667 30.2925C434.484 32.5015 438.197 35.6155 440.805 39.6343C443.44 43.6266 444.771 48.2975 444.798 53.6472H423.559ZM452.124 45.982V28.0967H523.186V45.982H498.593V109.858H476.716V45.982H452.124ZM606.903 68.9774C606.903 78.0798 605.133 85.7582 601.594 92.0127C598.054 98.2406 593.276 102.965 587.261 106.185C581.246 109.379 574.539 110.976 567.14 110.976C559.688 110.976 552.955 109.366 546.94 106.145C540.951 102.898 536.187 98.1608 532.647 91.9329C529.134 85.6783 527.378 78.0265 527.378 68.9774C527.378 59.8751 529.134 52.2099 532.647 45.982C536.187 39.7275 540.951 35.0033 546.94 31.8095C552.955 28.5891 559.688 26.9789 567.14 26.9789C574.539 26.9789 581.246 28.5891 587.261 31.8095C593.276 35.0033 598.054 39.7275 601.594 45.982C605.133 52.2099 606.903 59.8751 606.903 68.9774ZM584.068 68.9774C584.068 64.0802 583.415 59.9549 582.111 56.6014C580.834 53.2213 578.931 50.6663 576.402 48.9363C573.901 47.1797 570.813 46.3014 567.14 46.3014C563.467 46.3014 560.367 47.1797 557.838 48.9363C555.337 50.6663 553.434 53.2213 552.129 56.6014C550.852 59.9549 550.213 64.0802 550.213 68.9774C550.213 73.8746 550.852 78.0132 552.129 81.3933C553.434 84.7468 555.337 87.3019 557.838 89.0584C560.367 90.7884 563.467 91.6534 567.14 91.6534C570.813 91.6534 573.901 90.7884 576.402 89.0584C578.931 87.3019 580.834 84.7468 582.111 81.3933C583.415 78.0132 584.068 73.8746 584.068 68.9774ZM687.916 28.0967V109.858H669.392L639.849 66.9014H639.37V109.858H617.173V28.0967H636.017L665.08 70.8937H665.719V28.0967H687.916ZM698.416 109.858V28.0967H757.341V45.982H720.613V60.0348H754.307V77.9201H720.613V91.9728H757.182V109.858H698.416ZM812.424 53.6472C812.212 50.9857 811.213 48.9097 809.43 47.4192C807.674 45.9288 804.999 45.1836 801.406 45.1836C799.117 45.1836 797.241 45.463 795.777 46.0219C794.34 46.5542 793.275 47.2862 792.583 48.2177C791.891 49.1492 791.532 50.2138 791.505 51.4115C791.452 52.3962 791.625 53.2879 792.024 54.0863C792.45 54.8581 793.115 55.5634 794.02 56.2022C794.925 56.8143 796.083 57.3733 797.493 57.8789C798.904 58.3846 800.581 58.8371 802.524 59.2363L809.231 60.6735C813.755 61.6317 817.628 62.8959 820.848 64.4662C824.069 66.0365 826.703 67.8862 828.753 70.0154C830.802 72.118 832.306 74.4867 833.264 77.1216C834.249 79.7565 834.754 82.6309 834.781 85.7449C834.754 91.1211 833.41 95.6723 830.749 99.3984C828.087 103.124 824.281 105.959 819.331 107.902C814.407 109.845 808.485 110.816 801.566 110.816C794.459 110.816 788.258 109.765 782.962 107.662C777.692 105.56 773.593 102.326 770.665 97.9612C767.764 93.5697 766.301 87.9539 766.274 81.1139H787.353C787.486 83.6157 788.112 85.7183 789.229 87.4216C790.347 89.125 791.918 90.4158 793.94 91.2941C795.99 92.1724 798.425 92.6116 801.246 92.6116C803.615 92.6116 805.598 92.3188 807.195 91.7333C808.792 91.1477 810.002 90.336 810.828 89.298C811.653 88.26 812.078 87.0756 812.105 85.7449C812.078 84.494 811.666 83.4028 810.867 82.4712C810.096 81.5131 808.818 80.6614 807.035 79.9162C805.252 79.1444 802.843 78.4257 799.809 77.7604L791.665 76.0038C784.425 74.4335 778.717 71.8119 774.538 68.139C770.386 64.4395 768.323 59.396 768.35 53.0084C768.323 47.8185 769.707 43.2806 772.502 39.3948C775.323 35.4824 779.222 32.435 784.199 30.2525C789.203 28.0701 794.938 26.9789 801.406 26.9789C808.006 26.9789 813.715 28.0834 818.533 30.2925C823.35 32.5015 827.063 35.6155 829.671 39.6343C832.306 43.6266 833.637 48.2975 833.663 53.6472H812.424Z" fill="#CEB4FF"/>
<path d="M1048.38 28.0967H1076.01L1095.01 74.4069H1095.97L1114.97 28.0967H1142.6V109.858H1120.88V62.5898H1120.24L1102.04 109.219H1088.94L1070.74 62.2704H1070.1V109.858H1048.38V28.0967ZM1175.31 28.0967V109.858H1153.12V28.0967H1175.31ZM1185.83 109.858V28.0967H1208.03V91.9728H1241.09V109.858H1185.83ZM1250.06 109.858V28.0967H1308.99V45.982H1272.26V60.0348H1305.95V77.9201H1272.26V91.9728H1308.83V109.858H1250.06ZM1364.07 53.6472C1363.86 50.9857 1362.86 48.9097 1361.07 47.4192C1359.32 45.9288 1356.64 45.1836 1353.05 45.1836C1350.76 45.1836 1348.88 45.463 1347.42 46.0219C1345.98 46.5542 1344.92 47.2862 1344.23 48.2177C1343.53 49.1492 1343.18 50.2138 1343.15 51.4115C1343.1 52.3962 1343.27 53.2879 1343.67 54.0863C1344.09 54.8581 1344.76 55.5634 1345.66 56.2022C1346.57 56.8143 1347.73 57.3733 1349.14 57.8789C1350.55 58.3846 1352.22 58.8371 1354.17 59.2363L1360.87 60.6735C1365.4 61.6317 1369.27 62.8959 1372.49 64.4662C1375.71 66.0365 1378.35 67.8862 1380.4 70.0154C1382.45 72.118 1383.95 74.4867 1384.91 77.1216C1385.89 79.7565 1386.4 82.6309 1386.42 85.7449C1386.4 91.1211 1385.05 95.6723 1382.39 99.3984C1379.73 103.124 1375.93 105.959 1370.97 107.902C1366.05 109.845 1360.13 110.816 1353.21 110.816C1346.1 110.816 1339.9 109.765 1334.61 107.662C1329.34 105.56 1325.24 102.326 1322.31 97.9612C1319.41 93.5697 1317.94 87.9539 1317.92 81.1139H1339C1339.13 83.6157 1339.76 85.7183 1340.87 87.4216C1341.99 89.125 1343.56 90.4158 1345.58 91.2941C1347.63 92.1724 1350.07 92.6116 1352.89 92.6116C1355.26 92.6116 1357.24 92.3188 1358.84 91.7333C1360.44 91.1477 1361.65 90.336 1362.47 89.298C1363.3 88.26 1363.72 87.0756 1363.75 85.7449C1363.72 84.494 1363.31 83.4028 1362.51 82.4712C1361.74 81.5131 1360.46 80.6614 1358.68 79.9162C1356.9 79.1444 1354.49 78.4257 1351.45 77.7604L1343.31 76.0038C1336.07 74.4335 1330.36 71.8119 1326.18 68.139C1322.03 64.4395 1319.97 59.396 1319.99 53.0084C1319.97 47.8185 1321.35 43.2806 1324.15 39.3948C1326.97 35.4824 1330.87 32.435 1335.84 30.2525C1340.85 28.0701 1346.58 26.9789 1353.05 26.9789C1359.65 26.9789 1365.36 28.0834 1370.18 30.2925C1374.99 32.5015 1378.71 35.6155 1381.31 39.6343C1383.95 43.6266 1385.28 48.2975 1385.31 53.6472H1364.07ZM1392.63 45.982V28.0967H1463.69V45.982H1439.1V109.858H1417.23V45.982H1392.63ZM1547.41 68.9774C1547.41 78.0798 1545.64 85.7582 1542.1 92.0127C1538.56 98.2406 1533.79 102.965 1527.77 106.185C1521.76 109.379 1515.05 110.976 1507.65 110.976C1500.2 110.976 1493.46 109.366 1487.45 106.145C1481.46 102.898 1476.7 98.1608 1473.16 91.9329C1469.64 85.6783 1467.89 78.0265 1467.89 68.9774C1467.89 59.8751 1469.64 52.2099 1473.16 45.982C1476.7 39.7275 1481.46 35.0033 1487.45 31.8095C1493.46 28.5891 1500.2 26.9789 1507.65 26.9789C1515.05 26.9789 1521.76 28.5891 1527.77 31.8095C1533.79 35.0033 1538.56 39.7275 1542.1 45.982C1545.64 52.2099 1547.41 59.8751 1547.41 68.9774ZM1524.58 68.9774C1524.58 64.0802 1523.92 59.9549 1522.62 56.6014C1521.34 53.2213 1519.44 50.6663 1516.91 48.9363C1514.41 47.1797 1511.32 46.3014 1507.65 46.3014C1503.98 46.3014 1500.88 47.1797 1498.35 48.9363C1495.85 50.6663 1493.94 53.2213 1492.64 56.6014C1491.36 59.9549 1490.72 64.0802 1490.72 68.9774C1490.72 73.8746 1491.36 78.0132 1492.64 81.3933C1493.94 84.7468 1495.85 87.3019 1498.35 89.0584C1500.88 90.7884 1503.98 91.6534 1507.65 91.6534C1511.32 91.6534 1514.41 90.7884 1516.91 89.0584C1519.44 87.3019 1521.34 84.7468 1522.62 81.3933C1523.92 78.0132 1524.58 73.8746 1524.58 68.9774ZM1628.43 28.0967V109.858H1609.9L1580.36 66.9014H1579.88V109.858H1557.68V28.0967H1576.53L1605.59 70.8937H1606.23V28.0967H1628.43ZM1638.92 109.858V28.0967H1697.85V45.982H1661.12V60.0348H1694.82V77.9201H1661.12V91.9728H1697.69V109.858H1638.92ZM1752.93 53.6472C1752.72 50.9857 1751.72 48.9097 1749.94 47.4192C1748.18 45.9288 1745.51 45.1836 1741.92 45.1836C1739.63 45.1836 1737.75 45.463 1736.29 46.0219C1734.85 46.5542 1733.78 47.2862 1733.09 48.2177C1732.4 49.1492 1732.04 50.2138 1732.01 51.4115C1731.96 52.3962 1732.13 53.2879 1732.53 54.0863C1732.96 54.8581 1733.62 55.5634 1734.53 56.2022C1735.43 56.8143 1736.59 57.3733 1738 57.8789C1739.41 58.3846 1741.09 58.8371 1743.03 59.2363L1749.74 60.6735C1754.26 61.6317 1758.14 62.8959 1761.36 64.4662C1764.58 66.0365 1767.21 67.8862 1769.26 70.0154C1771.31 72.118 1772.82 74.4867 1773.77 77.1216C1774.76 79.7565 1775.26 82.6309 1775.29 85.7449C1775.26 91.1211 1773.92 95.6723 1771.26 99.3984C1768.6 103.124 1764.79 105.959 1759.84 107.902C1754.92 109.845 1748.99 110.816 1742.07 110.816C1734.97 110.816 1728.77 109.765 1723.47 107.662C1718.2 105.56 1714.1 102.326 1711.17 97.9612C1708.27 93.5697 1706.81 87.9539 1706.78 81.1139H1727.86C1728 83.6157 1728.62 85.7183 1729.74 87.4216C1730.86 89.125 1732.43 90.4158 1734.45 91.2941C1736.5 92.1724 1738.93 92.6116 1741.76 92.6116C1744.12 92.6116 1746.11 92.3188 1747.7 91.7333C1749.3 91.1477 1750.51 90.336 1751.34 89.298C1752.16 88.26 1752.59 87.0756 1752.61 85.7449C1752.59 84.494 1752.18 83.4028 1751.38 82.4712C1750.6 81.5131 1749.33 80.6614 1747.54 79.9162C1745.76 79.1444 1743.35 78.4257 1740.32 77.7604L1732.17 76.0038C1724.93 74.4335 1719.23 71.8119 1715.05 68.139C1710.9 64.4395 1708.83 59.396 1708.86 53.0084C1708.83 47.8185 1710.22 43.2806 1713.01 39.3948C1715.83 35.4824 1719.73 32.435 1724.71 30.2525C1729.71 28.0701 1735.45 26.9789 1741.92 26.9789C1748.52 26.9789 1754.22 28.0834 1759.04 30.2925C1763.86 32.5015 1767.57 35.6155 1770.18 39.6343C1772.82 43.6266 1774.15 48.2975 1774.17 53.6472H1752.93Z" fill="#CEB4FF"/>
</svg>
