<svg width="42" height="73" viewBox="0 0 42 73" fill="none" xmlns="http://www.w3.org/2000/svg">
<g clip-path="url(#clip0_2421_326)">
<path fill-rule="evenodd" clip-rule="evenodd" d="M7.88641 0H34.1035C38.458 0 41.9885 3.53617 41.9885 7.88784V65.1136C41.9885 69.4681 38.458 73 34.1035 73H7.88641C3.53189 73 0 69.4681 0 65.1136V7.87784C0 3.51332 3.52475 0 7.88641 0ZM7.83642 38.8836C7.288 38.8836 6.84241 38.438 6.84241 37.8896C6.84241 37.3412 7.288 36.897 7.83642 36.897H34.1521C34.7005 36.897 35.1461 37.3412 35.1461 37.8896C35.1461 38.438 34.7005 38.8836 34.1521 38.8836H7.83642ZM7.83642 44.3193C7.288 44.3193 6.84241 43.8737 6.84241 43.3253C6.84241 42.7768 7.288 42.3313 7.83642 42.3313H29.4805C30.0289 42.3313 30.4745 42.7768 30.4745 43.3253C30.4745 43.8737 30.0289 44.3193 29.4805 44.3193H7.83642ZM7.83642 55.1877C7.288 55.1877 6.84241 54.7436 6.84241 54.1951C6.84241 53.6467 7.288 53.2011 7.83642 53.2011H14.7502C15.2987 53.2011 15.7443 53.6467 15.7443 54.1951C15.7443 54.7436 15.2987 55.1877 14.7502 55.1877H7.83642ZM7.83642 49.7535C7.288 49.7535 6.84241 49.3079 6.84241 48.7595C6.84241 48.2111 7.288 47.7669 7.83642 47.7669H18.8334C19.3818 47.7669 19.8274 48.2111 19.8274 48.7595C19.8274 49.3079 19.3818 49.7535 18.8334 49.7535H7.83642ZM25.363 55.1235C25.4459 55.196 25.5137 55.2842 25.5625 55.383C25.6114 55.4818 25.6402 55.5892 25.6475 55.6992C25.6548 55.8091 25.6404 55.9194 25.6051 56.0238C25.5697 56.1281 25.5142 56.2245 25.4416 56.3074C25.369 56.3903 25.2808 56.4581 25.182 56.5069C25.0833 56.5557 24.9758 56.5846 24.8659 56.5919C24.7559 56.5992 24.6456 56.5848 24.5413 56.5494C24.4369 56.5141 24.3405 56.4586 24.2576 56.386L21.6112 54.068C21.5283 53.9955 21.4605 53.9073 21.4117 53.8085C21.3629 53.7097 21.334 53.6023 21.3267 53.4923C21.3194 53.3824 21.3338 53.2721 21.3692 53.1677C21.4045 53.0634 21.4601 52.967 21.5327 52.8841L21.6169 52.7998L24.2576 50.4862C24.3406 50.4137 24.4371 50.3582 24.5415 50.323C24.6459 50.2878 24.7562 50.2734 24.8662 50.2809C24.9761 50.2883 25.0835 50.3173 25.1823 50.3663C25.281 50.4152 25.3691 50.4831 25.4416 50.5661C25.5879 50.7337 25.6618 50.9524 25.647 51.1744C25.6323 51.3963 25.5302 51.6033 25.363 51.7501L23.4364 53.4368L25.363 55.1235ZM31.7127 56.386C31.6299 56.4586 31.5335 56.5142 31.4291 56.5495C31.3247 56.5849 31.2144 56.5993 31.1045 56.592C30.9945 56.5847 30.8871 56.5558 30.7883 56.507C30.6895 56.4582 30.6013 56.3904 30.5288 56.3074C30.4562 56.2245 30.4006 56.1282 30.3653 56.0238C30.3299 55.9194 30.3155 55.8091 30.3228 55.6992C30.3301 55.5892 30.359 55.4818 30.4078 55.383C30.4566 55.2842 30.5244 55.196 30.6073 55.1235L32.5325 53.4368L30.6073 51.7501C30.5244 51.6775 30.4566 51.5893 30.4078 51.4906C30.359 51.3918 30.3301 51.2843 30.3228 51.1744C30.3155 51.0644 30.3299 50.9541 30.3653 50.8498C30.4006 50.7454 30.4562 50.649 30.5288 50.5661C30.833 50.2162 31.3643 50.182 31.7127 50.4862L34.352 52.7998L34.4377 52.8841C34.5102 52.9671 34.5657 53.0635 34.6009 53.1679C34.6361 53.2723 34.6504 53.3827 34.643 53.4926C34.6356 53.6026 34.6066 53.71 34.5576 53.8087C34.5087 53.9074 34.4407 53.9956 34.3577 54.068L31.7127 56.386ZM27.8324 50.0077C27.9366 49.5564 28.3894 49.2751 28.8421 49.3793C29.2934 49.485 29.5762 49.9377 29.4705 50.389L27.9581 56.8658C27.9069 57.0828 27.7721 57.2706 27.5828 57.3884C27.3936 57.5061 27.1655 57.5442 26.9483 57.4942C26.4956 57.3886 26.2142 56.9358 26.3199 56.4845L27.8324 50.0077ZM32.4768 22.7723C32.3611 22.6924 32.2397 22.6638 32.1069 22.6866C31.9741 22.7109 31.867 22.7795 31.787 22.8937L31.3543 23.5078C31.1972 23.4407 31.0344 23.3879 30.8658 23.3436C30.6987 23.2993 30.5288 23.2665 30.3588 23.2408L30.2174 22.4367C30.1946 22.301 30.1289 22.1953 30.0175 22.1168C29.9061 22.0382 29.7847 22.0125 29.649 22.0368L28.6379 22.2125C28.5093 22.2353 28.4051 22.301 28.3237 22.4124C28.2437 22.5238 28.2166 22.6467 28.2394 22.7823L28.3679 23.5178C28.2066 23.5878 28.0509 23.6664 27.9038 23.7549C27.7553 23.8435 27.6181 23.9392 27.4882 24.042L26.8084 23.5707C26.6998 23.4907 26.5799 23.4607 26.4456 23.4836C26.3128 23.5064 26.2085 23.5764 26.1271 23.6892L25.543 24.5219C25.463 24.6361 25.4345 24.7589 25.4573 24.8917C25.4816 25.0231 25.5501 25.1317 25.6644 25.2102L26.2785 25.6444C26.2114 25.8015 26.1585 25.9629 26.1143 26.1314C26.07 26.2999 26.0372 26.4699 26.0114 26.6398L25.2074 26.7798C25.0717 26.8027 24.9646 26.8698 24.8875 26.9812C24.8089 27.0911 24.7832 27.214 24.8061 27.3496L24.9832 28.3594C25.006 28.4893 25.0717 28.5936 25.1831 28.675C25.2945 28.7535 25.4159 28.7821 25.5516 28.7578L26.2885 28.6293C26.3585 28.7921 26.437 28.9464 26.5256 29.0935C26.6141 29.242 26.7113 29.3834 26.8141 29.5191L26.3414 30.1903C26.2614 30.2988 26.2314 30.4174 26.2542 30.5516C26.2771 30.6844 26.3471 30.7901 26.4599 30.8715L27.2939 31.4642C27.4068 31.5385 27.5296 31.5628 27.661 31.5399C27.7938 31.5171 27.9024 31.4514 27.9823 31.3443L28.4151 30.7202C28.5707 30.7859 28.7336 30.8401 28.9021 30.883C29.0706 30.9272 29.2391 30.9615 29.4091 30.9858L29.5505 31.7913C29.5733 31.927 29.6404 32.0326 29.7504 32.1112C29.8618 32.1883 29.9846 32.2155 30.1203 32.1912L31.13 32.0155C31.26 31.9927 31.3643 31.927 31.4442 31.8156C31.5242 31.7042 31.5528 31.5813 31.5285 31.4457L31.4 30.7087C31.5601 30.6414 31.7153 30.5626 31.8641 30.4731C32.0127 30.3831 32.154 30.2874 32.2897 30.1832L32.961 30.6573C33.0695 30.7373 33.1895 30.7673 33.3252 30.743C33.4637 30.7187 33.5665 30.6502 33.6408 30.5388L34.2349 29.7047C34.3092 29.5905 34.3335 29.4691 34.3106 29.3362C34.2877 29.2034 34.222 29.0963 34.1149 29.0149L33.4894 28.5836C33.5565 28.4265 33.6094 28.2637 33.6536 28.0952C33.6979 27.9281 33.7322 27.7581 33.7565 27.5882L34.562 27.4482C34.6976 27.4239 34.8033 27.3582 34.8819 27.2468C34.959 27.1368 34.9861 27.014 34.9618 26.8783L34.7862 25.8686C34.7633 25.7387 34.6976 25.6344 34.5862 25.553C34.4748 25.473 34.352 25.4459 34.2163 25.4687L33.4794 25.5973C33.4103 25.4398 33.3316 25.2867 33.2437 25.1388C33.1538 24.9874 33.0581 24.8475 32.9553 24.7189L33.428 24.0377C33.508 23.9292 33.538 23.8092 33.5137 23.6749C33.4908 23.5435 33.4208 23.4379 33.308 23.3565L32.4768 22.7723ZM29.589 25.423C29.8218 25.383 30.0489 25.3888 30.2717 25.4402C30.4931 25.493 30.6944 25.5816 30.873 25.7072C31.0515 25.8329 31.2029 25.9914 31.3286 26.1828C31.4514 26.3756 31.5342 26.587 31.5742 26.8198C31.6156 27.0512 31.6099 27.2782 31.5585 27.501C31.5057 27.7224 31.4157 27.9238 31.2914 28.1023C31.1624 28.2827 31.0005 28.4372 30.8144 28.5579C30.623 28.6821 30.4117 28.7635 30.1789 28.8035C29.9475 28.845 29.7204 28.8392 29.4962 28.7878C29.2748 28.735 29.0749 28.6464 28.8949 28.5208C28.7164 28.3951 28.565 28.2365 28.4408 28.0452C28.3165 27.8524 28.2337 27.641 28.1937 27.4082C28.1537 27.1768 28.1594 26.9498 28.2108 26.727C28.2637 26.5042 28.3522 26.3042 28.4779 26.1243C28.6036 25.9472 28.7621 25.7958 28.9535 25.6701C29.1463 25.5459 29.3577 25.4644 29.589 25.423ZM21.8412 13.0993C21.7912 13.0493 21.7426 13.0136 21.6955 12.995C21.6512 12.9764 21.5969 12.9664 21.5341 12.9664C21.4713 12.9664 21.4156 12.9764 21.3699 12.995C21.3227 13.015 21.2742 13.0493 21.2285 13.095L20.2573 14.0633C20.18 14.1398 20.0784 14.1866 19.97 14.1958C19.8617 14.2049 19.7536 14.1757 19.6646 14.1133C19.5546 14.0433 19.4361 13.9747 19.3119 13.9062C19.1776 13.8348 19.0462 13.7691 18.9177 13.7105C18.7834 13.6477 18.6449 13.5906 18.5092 13.5377C18.385 13.4892 18.2421 13.4392 18.0893 13.3878C17.9963 13.3573 17.9153 13.2982 17.8579 13.219C17.8004 13.1397 17.7695 13.0443 17.7694 12.9465V11.464C17.7694 11.3983 17.7594 11.3412 17.7394 11.2912C17.7177 11.2407 17.6861 11.1951 17.6466 11.1569C17.6083 11.1172 17.5627 11.0852 17.5123 11.0627C17.4624 11.0441 17.4052 11.0341 17.3395 11.0341H15.4772C15.4172 11.0341 15.3644 11.0427 15.3201 11.0613C15.2701 11.0827 15.2201 11.1155 15.173 11.1627C15.1301 11.2041 15.0987 11.2483 15.0802 11.2955C15.0602 11.3426 15.0502 11.3997 15.0502 11.464V12.8222C15.0502 13.0507 14.8845 13.2407 14.6674 13.2792C14.5189 13.3149 14.3832 13.3506 14.2618 13.3878C14.1247 13.4306 13.9862 13.4792 13.8505 13.532L13.8276 13.5406C13.7034 13.5877 13.5777 13.642 13.4492 13.702L13.4263 13.7105C13.3021 13.7691 13.1835 13.8291 13.0693 13.8905C12.8865 13.9905 12.6651 13.9533 12.5237 13.8148L11.4412 12.7479C11.3997 12.7037 11.3555 12.6708 11.3112 12.6522C11.2683 12.6337 11.2169 12.6237 11.1569 12.6237C11.097 12.6237 11.0427 12.6351 10.997 12.6537C10.9456 12.6751 10.8956 12.7108 10.847 12.7579L9.54738 14.0619C9.49883 14.1104 9.46312 14.159 9.44313 14.2075C9.42456 14.2532 9.41456 14.3075 9.41456 14.3703C9.41456 14.4332 9.42456 14.4889 9.44313 14.5346C9.46455 14.5817 9.4974 14.6288 9.5431 14.6746L10.5114 15.6457C10.6728 15.8085 10.6899 16.0599 10.5614 16.2398C10.4914 16.3484 10.4229 16.4669 10.3557 16.5926C10.2829 16.7268 10.2172 16.8582 10.1586 16.9868C10.0348 17.2561 9.92746 17.5327 9.8373 17.8151C9.80675 17.908 9.74761 17.9888 9.66834 18.046C9.58908 18.1032 9.49375 18.1339 9.396 18.1336L7.91212 18.135C7.84642 18.135 7.78929 18.145 7.74074 18.165C7.69218 18.1836 7.64648 18.215 7.60506 18.2564C7.56221 18.2993 7.53222 18.3435 7.51223 18.3921C7.49223 18.4421 7.48223 18.4992 7.48223 18.5649V20.4273C7.48223 20.4872 7.4908 20.5401 7.50937 20.5844C7.53079 20.6343 7.56507 20.6829 7.61077 20.7315C7.65362 20.7729 7.69789 20.8043 7.74359 20.8243C7.79072 20.8429 7.84785 20.8529 7.91212 20.8529H9.27032C9.49883 20.8529 9.6902 21.0185 9.72876 21.237C9.76304 21.3841 9.80017 21.5198 9.8373 21.6426C9.88015 21.7797 9.92728 21.9169 9.98012 22.0525L9.99155 22.0854C10.0372 22.2011 10.0915 22.3282 10.1515 22.4638C10.2172 22.6081 10.2815 22.7409 10.3429 22.8594C10.4386 23.0437 10.3986 23.2622 10.26 23.4022L9.19605 24.4619C9.15178 24.5047 9.11893 24.5476 9.10036 24.5918C9.0818 24.6361 9.07323 24.6875 9.07323 24.7461C9.07323 24.8075 9.08323 24.8603 9.10322 24.906C9.12464 24.9574 9.16035 25.0089 9.20748 25.056L10.5014 26.3656C10.5471 26.4085 10.5971 26.4413 10.6457 26.4599C10.6956 26.4785 10.7528 26.4899 10.8185 26.4899C10.8842 26.4899 10.9441 26.4785 10.9941 26.4599L11.0084 26.4542C11.0513 26.4356 11.0927 26.407 11.1312 26.3699L12.091 25.3959C12.2481 25.2359 12.4909 25.2145 12.6708 25.3302C12.7922 25.4073 12.9165 25.4816 13.0407 25.5487C13.175 25.6215 13.3064 25.6858 13.4349 25.7458C13.7051 25.8677 13.9816 25.9749 14.2632 26.0671C14.4589 26.1314 14.5831 26.3128 14.5831 26.5084V27.9909C14.5831 28.0566 14.5931 28.1152 14.6131 28.1637L14.6203 28.1808C14.6388 28.2208 14.6674 28.2594 14.706 28.298C14.7502 28.3408 14.7959 28.3737 14.8416 28.3922C14.8902 28.4122 14.9473 28.4222 15.013 28.4222H16.8754C16.9354 28.4222 16.9882 28.4122 17.0325 28.3951C17.0825 28.3737 17.1324 28.3394 17.1796 28.2937C17.2224 28.2508 17.2538 28.2066 17.2724 28.1594C17.2924 28.1123 17.3024 28.0566 17.3024 27.9909V26.6327C17.3024 26.4042 17.4681 26.2142 17.6852 26.1757C17.8351 26.14 17.9722 26.1028 18.0965 26.0657C18.2364 26.0214 18.3735 25.9743 18.5035 25.9243C18.6335 25.8729 18.7706 25.8158 18.912 25.7515C19.0576 25.6858 19.1905 25.6215 19.3076 25.5616C19.4918 25.4644 19.7117 25.5044 19.8503 25.6444L20.9114 26.707C20.9514 26.7498 20.9942 26.7812 21.0414 26.8012L21.0642 26.8127C21.1028 26.8255 21.1485 26.8312 21.2013 26.8312C21.267 26.8312 21.3227 26.8212 21.3641 26.8027C21.4113 26.7812 21.4541 26.7498 21.4941 26.707L22.8152 25.403C22.858 25.3559 22.8894 25.3074 22.908 25.2588C22.928 25.2088 22.938 25.1502 22.938 25.086C22.938 25.0189 22.928 24.9603 22.908 24.9103L22.9023 24.8946C22.8837 24.8532 22.8552 24.8103 22.818 24.7718L21.844 23.8135C21.7682 23.7387 21.7205 23.6401 21.7088 23.5342C21.6971 23.4284 21.7221 23.3218 21.7797 23.2322C21.8569 23.1122 21.9297 22.988 21.9968 22.8623C22.0697 22.7281 22.1354 22.5967 22.1939 22.4696C22.2553 22.3339 22.3125 22.1968 22.3667 22.0597C22.4153 21.9354 22.4653 21.794 22.5167 21.6398C22.5472 21.5472 22.6061 21.4665 22.6851 21.4093C22.764 21.3521 22.8591 21.3213 22.9566 21.3213H24.4404C24.5061 21.3213 24.5633 21.3099 24.6118 21.2913L24.6304 21.2842C24.6718 21.2642 24.7104 21.2356 24.7475 21.1985C24.7903 21.1556 24.8218 21.1099 24.8418 21.0628C24.8603 21.0142 24.8703 20.9557 24.8703 20.89V19.0291C24.8703 18.9691 24.8618 18.9162 24.8432 18.8705C24.8218 18.8206 24.7875 18.772 24.7418 18.7234C24.6989 18.682 24.6547 18.6506 24.609 18.632C24.5618 18.612 24.5047 18.602 24.4404 18.602H23.0822C22.8495 18.602 22.6566 18.4307 22.6224 18.2079C22.591 18.0822 22.5538 17.9508 22.5124 17.818C22.4724 17.6866 22.4253 17.5495 22.371 17.4081L22.3624 17.3838C22.311 17.2496 22.2582 17.121 22.2025 16.9996C22.1411 16.8668 22.0782 16.7397 22.0125 16.6212C21.914 16.4384 21.9511 16.217 22.0897 16.0756L23.1565 14.993C23.2008 14.9516 23.2336 14.9073 23.2522 14.8631C23.2708 14.8202 23.2793 14.7688 23.2793 14.7088C23.2793 14.6488 23.2693 14.5946 23.2508 14.5489C23.2279 14.4975 23.1936 14.446 23.1465 14.3989L21.8412 13.0993ZM22.0554 12.1424C22.2196 12.2109 22.3682 12.3123 22.4981 12.4423L23.8063 13.7491C23.9349 13.8805 24.0348 14.0262 24.1034 14.1861C24.1734 14.3504 24.2091 14.5246 24.2091 14.7088C24.2091 14.8959 24.1719 15.0716 24.1005 15.2344C24.0306 15.3944 23.9277 15.5357 23.7978 15.6614L22.9837 16.4869L23.0437 16.6154C23.1094 16.7583 23.1708 16.9054 23.2279 17.0539L23.2379 17.0767C23.2936 17.2253 23.3479 17.3824 23.3979 17.5452L23.4364 17.6723H24.4404C24.6261 17.6723 24.8003 17.7066 24.9646 17.7751C25.1275 17.8444 25.2751 17.9454 25.3988 18.0722L25.4088 18.0822C25.5359 18.2136 25.633 18.3578 25.6987 18.5164C25.7658 18.6806 25.8001 18.852 25.8001 19.0291V20.89C25.8001 21.0757 25.7658 21.2485 25.7001 21.4113C25.6311 21.5762 25.5307 21.7261 25.4045 21.8526C25.2816 21.974 25.1474 22.0668 25.0003 22.1339L24.9603 22.1511C24.7989 22.2168 24.6247 22.2496 24.4404 22.2496H23.285L23.2293 22.3939C23.1694 22.5481 23.1051 22.7024 23.0365 22.8537C22.9671 23.0056 22.8928 23.1552 22.8137 23.3022L22.7552 23.4093L23.4879 24.1305C23.6035 24.2534 23.6935 24.3905 23.7563 24.539L23.7721 24.5733C23.8349 24.7346 23.8677 24.906 23.8677 25.086C23.8677 25.2645 23.8349 25.4345 23.7721 25.5958C23.7069 25.7586 23.6119 25.9077 23.4921 26.0357L22.1639 27.3482C22.0368 27.4825 21.8911 27.5853 21.7312 27.6539C21.5641 27.7238 21.3884 27.761 21.2013 27.761C21.0328 27.761 20.8729 27.731 20.7215 27.671L20.6743 27.6539C20.5102 27.5821 20.3625 27.4776 20.2402 27.3468L19.429 26.5342L19.2933 26.597C19.1519 26.6613 18.9991 26.7255 18.8377 26.7869C18.6806 26.8484 18.5235 26.9026 18.3678 26.9512L18.2307 26.9897V27.9909C18.2324 28.1695 18.198 28.3465 18.1295 28.5115C18.0611 28.6764 17.9599 28.8258 17.8323 28.9506L17.8223 28.9606C17.6909 29.0877 17.5452 29.1849 17.3881 29.2491C17.2224 29.3163 17.0525 29.3505 16.8754 29.3505H15.013C14.8288 29.3505 14.6546 29.3177 14.4932 29.252C14.3266 29.1839 14.1755 29.0829 14.049 28.9549C13.9325 28.8381 13.8381 28.7012 13.7705 28.5507L13.7534 28.5122C13.6877 28.3494 13.6534 28.1766 13.6534 27.9909V26.8355L13.5106 26.7812C13.3549 26.7212 13.2021 26.6556 13.0507 26.587C12.8922 26.5142 12.7408 26.4399 12.6023 26.3656L12.4951 26.3056L11.7725 27.0383C11.6511 27.154 11.514 27.2454 11.3655 27.3082L11.3312 27.3225C11.1679 27.3867 10.9939 27.4192 10.8185 27.4182C10.6399 27.4182 10.47 27.3868 10.3086 27.3225C10.1449 27.2584 9.99504 27.1634 9.8673 27.0426L8.54623 25.7058C8.41769 25.5744 8.31772 25.4287 8.24917 25.2688C8.17874 25.1036 8.14278 24.9257 8.14348 24.7461C8.14348 24.559 8.18062 24.3833 8.25202 24.2205C8.32357 24.0583 8.42758 23.9125 8.55765 23.7921L9.37029 22.9808L9.30602 22.8452C9.25032 22.7181 9.19034 22.5767 9.13035 22.4196L9.1175 22.3896C9.05752 22.2368 9.00182 22.0768 8.95183 21.914L8.91327 21.7826H7.91212C7.72645 21.7826 7.55222 21.7483 7.38798 21.6798C7.22659 21.6126 7.08235 21.5127 6.95238 21.3827L6.94381 21.3741C6.81528 21.2413 6.71959 21.0971 6.65389 20.9385C6.58677 20.7743 6.55392 20.6044 6.55392 20.4273V18.5649C6.55392 18.3792 6.58677 18.205 6.65246 18.0436C6.72043 17.8786 6.82098 17.729 6.9481 17.6037C7.08235 17.4695 7.22945 17.371 7.39226 17.3038C7.55364 17.2381 7.72788 17.2053 7.91212 17.2053H9.06752L9.12321 17.061C9.18258 16.9055 9.24736 16.7521 9.31745 16.6012C9.38885 16.4426 9.46312 16.2927 9.53881 16.1527L9.60023 16.0427L8.89328 15.3344C8.76385 15.209 8.6609 15.0589 8.5905 14.8931C8.52049 14.7277 8.48455 14.5499 8.48482 14.3703C8.48482 14.189 8.52052 14.0147 8.5905 13.8491C8.66107 13.684 8.76291 13.5341 8.89042 13.4078L10.1972 12.0981C10.3286 11.9696 10.4743 11.8696 10.6342 11.8011C10.7999 11.7311 10.9741 11.6954 11.1569 11.6954C11.344 11.6954 11.5197 11.7311 11.6839 11.8039C11.8425 11.8739 11.9853 11.9753 12.1095 12.1067L12.935 12.9193L13.0607 12.8593C13.195 12.7979 13.3406 12.7365 13.4934 12.6765L13.5134 12.668C13.6663 12.608 13.8262 12.5537 13.9905 12.5037L14.1218 12.4652V11.464C14.1201 11.2854 14.1545 11.1084 14.223 10.9434C14.2915 10.7785 14.3926 10.6291 14.5203 10.5043L14.5303 10.4943C14.6617 10.3672 14.8074 10.2715 14.9645 10.2058C15.1301 10.1386 15.3001 10.1044 15.4772 10.1044H17.3395C17.5238 10.1044 17.698 10.1372 17.8594 10.2029C18.0265 10.2729 18.1736 10.37 18.3036 10.5C18.4335 10.6299 18.5321 10.7785 18.5992 10.9427C18.6649 11.1041 18.6992 11.2783 18.6992 11.464V12.6194L18.842 12.6737C18.9962 12.7337 19.1519 12.7993 19.3019 12.8679C19.4604 12.9407 19.6118 13.015 19.7503 13.0893L19.8603 13.1507L20.5701 12.4452C20.7 12.3123 20.8486 12.2109 21.01 12.1424C21.1771 12.0724 21.3527 12.0367 21.5341 12.0367C21.7155 12.0367 21.8897 12.071 22.0554 12.1424ZM17.7823 15.9371C18.2864 16.1556 18.7249 16.4484 19.0891 16.814L19.1162 16.8425C19.4704 17.2039 19.756 17.6323 19.9674 18.1222L19.9817 18.1622C20.1859 18.6606 20.2887 19.1962 20.2887 19.7275C20.2887 20.2716 20.1816 20.82 19.9674 21.3299V21.3342C19.7517 21.834 19.4561 22.271 19.0891 22.6395C18.7206 23.008 18.2836 23.3022 17.7823 23.5178L17.7423 23.5336C16.726 23.9483 15.5867 23.9427 14.5746 23.5178H14.5703C14.069 23.3022 13.632 23.008 13.2649 22.6409C12.895 22.271 12.6023 21.834 12.3852 21.3342L12.3709 21.2942C12.1652 20.7943 12.0638 20.2587 12.0638 19.7275C12.0638 19.1833 12.171 18.6349 12.3852 18.125V18.1222C12.6023 17.6195 12.8965 17.1824 13.2635 16.8154C13.6277 16.4483 14.0661 16.1556 14.5703 15.9371L14.6103 15.9228C15.1087 15.7171 15.6443 15.6143 16.177 15.6143C16.7211 15.6143 17.2681 15.7214 17.778 15.9371H17.7823ZM18.4321 17.4709C18.1493 17.1881 17.8094 16.9596 17.4152 16.7897C17.0282 16.6254 16.604 16.544 16.177 16.544C15.7585 16.544 15.3444 16.6212 14.9645 16.7768L14.9373 16.7897C14.5432 16.9596 14.2033 17.1881 13.9205 17.4709C13.6363 17.7523 13.4092 18.0922 13.2378 18.4878C13.0736 18.8763 12.9922 19.3004 12.9922 19.7275C12.9922 20.1445 13.0707 20.5587 13.2249 20.94L13.2378 20.9671C13.4092 21.3627 13.6363 21.7026 13.9176 21.984C14.2004 22.2668 14.5417 22.4953 14.9373 22.6652C15.3244 22.8295 15.7485 22.9109 16.177 22.9109C16.594 22.9109 17.0082 22.8337 17.3881 22.6781L17.4152 22.6652C17.8108 22.4953 18.1522 22.2668 18.4321 21.9854C18.7163 21.7026 18.9434 21.3627 19.1148 20.9671C19.2776 20.5786 19.3604 20.1545 19.3604 19.7275C19.3604 19.3104 19.2819 18.8962 19.1262 18.5149L19.1148 18.4878C18.9477 18.1036 18.7292 17.7708 18.4578 17.4938L18.4321 17.4709ZM2.7164 62.0444H39.2607V7.81214H2.7164V62.0444ZM20.9842 64.5123C22.768 64.5123 24.2262 65.9491 24.2262 67.7543C24.2262 69.5409 22.7909 70.9977 20.9842 70.9977C19.2005 70.9977 17.7409 69.5624 17.7409 67.7543C17.7409 65.9719 19.1776 64.5123 20.9842 64.5123Z" fill="#16205F"/>
</g>
<defs>
<clipPath id="clip0_2421_326">
<rect width="41.9885" height="73" fill="white"/>
</clipPath>
</defs>
</svg>
