<svg width="73" height="73" viewBox="0 0 73 73" fill="none" xmlns="http://www.w3.org/2000/svg">
<path opacity="0.991" fill-rule="evenodd" clip-rule="evenodd" d="M14.4717 5.63184C24.8799 5.63184 35.2881 5.63184 45.6963 5.63184C45.6725 9.48174 45.6963 13.3314 45.7676 17.1807C45.8169 17.5154 45.9833 17.7768 46.2666 17.9648C50.3466 18.174 54.4339 18.2453 58.5283 18.1787C58.5283 26.4482 58.5283 34.7178 58.5283 42.9873C43.8428 42.9873 29.1572 42.9873 14.4717 42.9873C14.4717 30.5355 14.4717 18.0836 14.4717 5.63184ZM38.4248 23.7393C39.0393 23.8786 39.4196 24.2588 39.5654 24.8799C38.2251 28.7824 36.8706 32.6795 35.502 36.5713C35.2065 37.2333 34.7075 37.4471 34.0049 37.2129C33.5355 36.869 33.3691 36.4174 33.5059 35.8584C34.8524 31.9134 36.2545 27.9925 37.7119 24.0957C37.9707 23.9878 38.2082 23.869 38.4248 23.7393ZM27.0186 24.8799C28.0387 24.8304 28.4901 25.3056 28.373 26.3057C27.0398 27.7101 25.7328 29.1358 24.4521 30.583C25.6334 31.9784 26.8928 33.3091 28.2305 34.5752C28.6899 35.489 28.4285 36.0593 27.4463 36.2861C27.1898 36.2752 26.9521 36.2039 26.7334 36.0723C25.3357 34.5319 23.8861 33.0348 22.3848 31.5811C21.7194 30.9156 21.7194 30.2504 22.3848 29.585C23.966 28.0277 25.5105 26.4594 27.0186 24.8799ZM44.9834 24.8799C45.4549 24.8176 45.8826 24.9127 46.2666 25.165C47.8372 26.7593 49.3818 28.3752 50.9004 30.0127C50.9577 30.2083 51.029 30.3984 51.1143 30.583C51.029 30.7676 50.9577 30.9577 50.9004 31.1533C49.3125 32.8839 47.6728 34.5711 45.9814 36.2148C44.7617 36.3744 44.3103 35.8754 44.627 34.7178C45.9079 33.3179 47.2149 31.9396 48.5479 30.583C47.2149 29.2264 45.9079 27.8481 44.627 26.4482C44.3737 25.8507 44.4926 25.328 44.9834 24.8799Z" fill="#16205F"/>
<path opacity="0.946" fill-rule="evenodd" clip-rule="evenodd" d="M47.835 7.2002C50.9313 9.93958 53.9255 12.8149 56.8174 15.8262C53.8237 15.8975 50.8295 15.9213 47.835 15.8975C47.835 12.9984 47.835 10.0993 47.835 7.2002Z" fill="#16205F"/>
<path opacity="0.963" fill-rule="evenodd" clip-rule="evenodd" d="M12.4756 45.126C29.3952 45.0937 46.3145 45.1412 63.2334 45.2686C63.2804 50.388 63.2328 55.4972 63.0908 60.5958C45.3162 60.6671 27.5414 60.6909 9.7666 60.6671C9.7666 55.5343 9.7666 50.4014 9.7666 45.2686C10.6965 45.3147 11.5995 45.2672 12.4756 45.126ZM44.4131 47.5499C46.0399 47.4881 47.6559 47.5594 49.2607 47.7637C50.9533 48.7052 51.4999 50.1072 50.9004 51.9698C50.4126 52.981 49.6285 53.6226 48.5479 53.8946C47.646 53.9659 46.7431 53.9896 45.8389 53.9659C45.9017 55.2172 45.8305 56.4527 45.625 57.6729C44.7007 58.2832 44.0827 58.0456 43.7715 56.96C43.6764 54.1559 43.6764 51.352 43.7715 48.5479C43.847 48.1081 44.0609 47.7754 44.4131 47.5499ZM22.3135 47.835C22.9421 47.7093 23.4411 47.8995 23.8105 48.4053C24.666 49.8311 25.5215 51.2569 26.377 52.6827C27.3455 51.0543 28.3672 49.4621 29.4424 47.9063C30.0694 47.7099 30.5685 47.8761 30.9395 48.4053C31.0346 51.4946 31.0346 54.5837 30.9395 57.6729C30.219 58.6229 29.5536 58.5754 28.9434 57.5303C28.8959 55.962 28.8483 54.3936 28.8008 52.8253C28.2896 53.6097 27.8143 54.4177 27.375 55.2491C26.7988 55.9353 26.1809 55.9828 25.5215 55.3917C25.0553 54.4986 24.5326 53.6431 23.9531 52.8253C23.9056 54.4411 23.858 56.0571 23.8105 57.6729C23.2139 58.4795 22.5961 58.527 21.957 57.8155C21.7226 54.739 21.6752 51.6497 21.8145 48.5479C21.9566 48.288 22.123 48.0503 22.3135 47.835ZM33.0068 47.835C33.6355 47.7093 34.1345 47.8995 34.5039 48.4053C35.3895 50.4683 36.3162 52.512 37.2842 54.5362C38.2951 52.4665 39.2694 50.3755 40.207 48.2628C40.8675 47.6642 41.4852 47.7118 42.0605 48.4053C42.1556 48.6905 42.1556 48.9757 42.0605 49.2608C40.8724 51.9223 39.6842 54.5837 38.4961 57.2452C38.1254 58.2705 37.4838 58.5318 36.5713 58.0294C35.1984 55.0697 33.8439 52.0993 32.5078 49.1182C32.4338 48.6004 32.6001 48.1727 33.0068 47.835Z" fill="#16205F"/>
<path opacity="0.889" fill-rule="evenodd" clip-rule="evenodd" d="M45.8389 49.6886C46.7431 49.6649 47.646 49.6886 48.5479 49.7598C49.0329 50.2901 49.1042 50.8842 48.7617 51.5421C48.6548 51.6313 48.5359 51.7026 48.4053 51.7559C47.5511 51.8271 46.6956 51.8509 45.8389 51.8272C45.8389 51.1143 45.8389 50.4014 45.8389 49.6886Z" fill="#16205F"/>
<path opacity="0.979" fill-rule="evenodd" clip-rule="evenodd" d="M14.4717 62.8057C29.1572 62.8057 43.8428 62.8057 58.5283 62.8057C58.5283 64.374 58.5283 65.9424 58.5283 67.5107C43.8428 67.5107 29.1572 67.5107 14.4717 67.5107C14.4717 65.9424 14.4717 64.374 14.4717 62.8057Z" fill="#16205F"/>
</svg>
