<svg width="26" height="18" viewBox="0 0 26 18" fill="none" xmlns="http://www.w3.org/2000/svg">
<path fill-rule="evenodd" clip-rule="evenodd" d="M0.25 1.8125C0.25 1.2257 0.725697 0.75 1.3125 0.75H24.6875C25.2743 0.75 25.75 1.2257 25.75 1.8125C25.75 2.3993 25.2743 2.875 24.6875 2.875H1.3125C0.725697 2.875 0.25 2.3993 0.25 1.8125ZM0.25 9.25C0.25 8.6632 0.725697 8.1875 1.3125 8.1875H24.6875C25.2743 8.1875 25.75 8.6632 25.75 9.25C25.75 9.8368 25.2743 10.3125 24.6875 10.3125H1.3125C0.725697 10.3125 0.25 9.8368 0.25 9.25ZM11.9375 16.6875C11.9375 16.1007 12.4132 15.625 13 15.625H24.6875C25.2743 15.625 25.75 16.1007 25.75 16.6875C25.75 17.2743 25.2743 17.75 24.6875 17.75H13C12.4132 17.75 11.9375 17.2743 11.9375 16.6875Z" fill="white"/>
</svg>
