<svg width="45" height="44" viewBox="0 0 45 44" fill="none" xmlns="http://www.w3.org/2000/svg">
<path d="M42.7014 0.228637C42.6305 0.230877 42.5598 0.237078 42.4896 0.247211H31.3268C31.0747 0.243646 30.8245 0.290209 30.5906 0.384192C30.3567 0.478175 30.1439 0.617704 29.9644 0.794671C29.7849 0.971638 29.6424 1.18251 29.5451 1.41504C29.4478 1.64757 29.3977 1.89711 29.3977 2.14917C29.3977 2.40123 29.4478 2.65077 29.5451 2.8833C29.6424 3.11583 29.7849 3.3267 29.9644 3.50367C30.1439 3.68064 30.3567 3.82017 30.5906 3.91415C30.8245 4.00813 31.0747 4.0547 31.3268 4.05113H38.1471L18.5702 23.628C18.3877 23.8032 18.242 24.0131 18.1416 24.2454C18.0412 24.4777 17.9881 24.7277 17.9856 24.9807C17.983 25.2338 18.0309 25.4848 18.1266 25.719C18.2222 25.9533 18.3637 26.1662 18.5426 26.3451C18.7215 26.524 18.9344 26.6655 19.1686 26.7611C19.4029 26.8568 19.6539 26.9047 19.907 26.9021C20.16 26.8996 20.41 26.8465 20.6423 26.7461C20.8746 26.6457 21.0845 26.5 21.2597 26.3174L40.8366 6.74062V13.5609C40.833 13.813 40.8796 14.0632 40.9735 14.2971C41.0675 14.531 41.2071 14.7438 41.384 14.9233C41.561 15.1028 41.7719 15.2453 42.0044 15.3426C42.2369 15.4399 42.4865 15.49 42.7385 15.49C42.9906 15.49 43.2401 15.4399 43.4727 15.3426C43.7052 15.2453 43.9161 15.1028 44.093 14.9233C44.27 14.7438 44.4095 14.531 44.5035 14.2971C44.5975 14.0632 44.644 13.813 44.6405 13.5609V2.39063C44.6784 2.1168 44.6561 1.838 44.5752 1.57364C44.4944 1.30929 44.3569 1.06574 44.1723 0.859945C43.9877 0.654151 43.7605 0.491062 43.5065 0.382034C43.2524 0.273006 42.9777 0.220658 42.7014 0.228637ZM4.69931 7.85505C2.62034 7.85505 0.895386 9.58001 0.895386 11.659V40.1884C0.895386 42.2673 2.62034 43.9923 4.69931 43.9923H33.2287C35.3077 43.9923 37.0326 42.2673 37.0326 40.1884V21.1688V16.2653L33.2287 20.0692V24.9727V40.1884H4.69931V11.659H19.915H23.7189H24.8185L28.6224 7.85505H23.7189H19.915H4.69931Z" fill="#2D7EFF"/>
</svg>
