<svg width="18" height="18" viewBox="0 0 18 18" fill="none" xmlns="http://www.w3.org/2000/svg">
<path d="M14.38 7.79024L12.18 5.59024C11.9 5.31024 11.82 4.92024 11.93 4.57024C12.3 3.45024 12.5 2.25024 12.5 1.00024C12.5 0.450244 12.95 0.000244141 13.5 0.000244141H17C17.55 0.000244141 18 0.450244 18 1.00024C18 10.3902 10.39 18.0002 1 18.0002C0.45 18.0002 0 17.5502 0 17.0002V13.5102C0 12.9602 0.45 12.5102 1 12.5102C2.24 12.5102 3.45 12.3102 4.57 11.9402C4.92 11.8202 5.32 11.9102 5.59 12.1802L7.79 14.3802C10.62 12.9302 12.94 10.6202 14.38 7.79024Z" fill="#718096"/>
</svg>
