<svg width="73" height="42" viewBox="0 0 73 42" fill="none" xmlns="http://www.w3.org/2000/svg">
<g clip-path="url(#clip0_2421_328)">
<path fill-rule="evenodd" clip-rule="evenodd" d="M1.84359 38.1525H8.65313C8.4307 37.9215 8.2924 37.6093 8.2924 37.2656V1.27893C8.2924 0.576016 8.86842 0 9.57133 0H63.0923C63.7952 0 64.3712 0.576016 64.3712 1.27893V37.2656C64.3712 37.6093 64.2329 37.9215 64.0105 38.1525H71.1565C71.6641 38.1525 72.1261 38.3592 72.4597 38.6929C72.631 38.8637 72.7669 39.0667 72.8596 39.2902C72.9524 39.5137 73.0001 39.7533 73.0001 39.9953C73.0001 40.2373 72.9524 40.4769 72.8596 40.7004C72.7669 40.9239 72.631 41.1269 72.4597 41.2978C72.1261 41.6314 71.6641 41.8396 71.1565 41.8396H1.84359C1.33602 41.8396 0.874063 41.6314 0.54043 41.2978C0.369121 41.1269 0.233206 40.9239 0.14047 40.7004C0.0477348 40.4769 0 40.2373 0 39.9953C0 39.7533 0.0477348 39.5137 0.14047 39.2902C0.233206 39.0667 0.369121 38.8637 0.54043 38.6929C0.874063 38.3592 1.33602 38.1525 1.84359 38.1525ZM48.334 25.8537C48.4296 25.4388 48.8459 25.1807 49.2608 25.2762C49.6757 25.3732 49.9338 25.7881 49.8382 26.2044L48.3283 32.6689C48.2818 32.8682 48.158 33.0408 47.9842 33.1489C47.8105 33.2569 47.6009 33.2914 47.4016 33.2449C47.3027 33.2222 47.2093 33.1801 47.1268 33.1212C47.0442 33.0622 46.9741 32.9875 46.9205 32.9014C46.8668 32.8153 46.8307 32.7195 46.8142 32.6194C46.7976 32.5193 46.801 32.417 46.8241 32.3182L48.334 25.8537ZM13.9428 11.8083C13.4409 11.8083 13.0346 11.402 13.0346 10.9001C13.0346 10.3996 13.4409 9.99188 13.9428 9.99188H36.8209C37.3213 9.99188 37.7277 10.3996 37.7277 10.9001C37.7277 11.402 37.3213 11.8083 36.8209 11.8083H13.9428ZM13.9428 17.5927C13.4409 17.5927 13.0346 17.1849 13.0346 16.6845C13.0346 16.1826 13.4409 15.7763 13.9428 15.7763H35.1256C35.6261 15.7763 36.0324 16.1826 36.0324 16.6845C36.0324 17.1849 35.6261 17.5927 35.1256 17.5927H13.9428ZM13.9428 29.1601C13.4409 29.1601 13.0346 28.7537 13.0346 28.2519C13.0346 27.75 13.4409 27.3436 13.9428 27.3436H28.8607C29.3612 27.3436 29.7689 27.75 29.7689 28.2519C29.7689 28.7537 29.3612 29.1601 28.8607 29.1601H13.9428ZM13.9428 23.3757C13.7021 23.3757 13.4713 23.2801 13.3011 23.1099C13.1309 22.9397 13.0353 22.7089 13.0353 22.4682C13.0353 22.2275 13.1309 21.9967 13.3011 21.8265C13.4713 21.6563 13.7021 21.5607 13.9428 21.5607H30.335C30.5757 21.5607 30.8065 21.6563 30.9767 21.8265C31.1469 21.9967 31.2425 22.2275 31.2425 22.4682C31.2425 22.7089 31.1469 22.9397 30.9767 23.1099C30.8065 23.2801 30.5757 23.3757 30.335 23.3757H13.9428ZM46.3251 11.2908C46.3251 10.6763 46.5019 10.1074 46.8042 9.62117H52.1794C52.4816 10.1031 52.657 10.6763 52.657 11.2908C52.657 13.0388 51.2398 14.4574 49.4918 14.4574C47.7438 14.4574 46.3251 13.0388 46.3251 11.2908ZM58.6282 11.4105V12.0735C58.6282 12.6937 58.122 13.2013 57.5018 13.2013H56.3469C56.2022 13.843 55.968 14.4612 55.6512 15.0377L56.4211 15.8076C56.8588 16.2468 56.8588 16.9639 56.4211 17.4017L55.4829 18.3412C55.0452 18.779 54.328 18.779 53.8889 18.3412L53.1874 17.6383C52.6028 18.0019 51.9627 18.2814 51.2826 18.4624V19.4206C51.2826 20.0408 50.7736 20.5484 50.1548 20.5484H48.8288C48.2086 20.5484 47.701 20.0408 47.701 19.4206V18.4753C47.0223 18.3004 46.3735 18.0251 45.7762 17.6583L45.0932 18.3412C44.6555 18.779 43.9369 18.779 43.4992 18.3412L42.5611 17.4031C42.1233 16.9639 42.1233 16.2468 42.5611 15.8076L43.2996 15.0705C42.9734 14.4848 42.7329 13.8553 42.5853 13.2013H41.4817C40.8615 13.2013 40.3539 12.6937 40.3539 12.0735V10.7475C40.3539 10.1459 40.833 9.64969 41.4276 9.62117H45.203C45.0262 10.1059 44.9307 10.6292 44.9307 11.1753C44.9307 11.2551 44.9321 11.3335 44.9364 11.4105C44.9321 11.4889 44.9307 11.5674 44.9307 11.6458C44.9307 14.1509 46.961 16.1826 49.4661 16.1826C51.9712 16.1826 54.003 14.1509 54.003 11.6458C54.003 11.5674 54.0015 11.4889 53.9958 11.4105C54.0015 11.3335 54.003 11.2551 54.003 11.1753C54.003 10.6292 53.906 10.1059 53.7292 9.62117H57.5546C58.1506 9.64969 58.6282 10.1459 58.6282 10.7475V11.4105ZM45.7591 30.9951C46.0785 31.2759 46.1113 31.7636 45.8318 32.0829C45.6971 32.2367 45.5069 32.3307 45.3029 32.3443C45.0989 32.3579 44.8979 32.2901 44.7439 32.1556L42.102 29.8416C41.7826 29.5607 41.7498 29.0731 42.0292 28.7537L42.1048 28.6782L44.7439 26.367C45.0633 26.0861 45.5509 26.1189 45.8318 26.4397C46.1113 26.7591 46.0785 27.2467 45.7591 27.5276L43.7801 29.2613L45.7591 30.9951ZM52.0967 32.1556C51.9427 32.2901 51.7417 32.3579 51.5377 32.3443C51.3337 32.3307 51.1435 32.2367 51.0088 32.0829C50.7294 31.7636 50.7621 31.2759 51.0815 30.9951L53.0605 29.2613L51.0815 27.5276C50.7621 27.2467 50.7294 26.7591 51.0088 26.4397C51.2897 26.1189 51.7773 26.0861 52.0967 26.367L54.7358 28.6782L54.8114 28.7537C55.0908 29.0731 55.058 29.5607 54.7372 29.8416L52.0967 32.1556ZM62.368 5.31531H10.4781V36.5998H62.368V5.31531ZM16.7772 2.06025C17.2035 2.06025 17.5471 2.40529 17.5471 2.83018C17.5471 3.25506 17.2035 3.6001 16.7772 3.6001C16.3523 3.6001 16.0073 3.25506 16.0073 2.83018C16.0073 2.40529 16.3523 2.06025 16.7772 2.06025ZM14.0868 2.06025C14.5117 2.06025 14.8553 2.40529 14.8553 2.83018C14.8553 3.25506 14.5117 3.6001 14.0868 3.6001C13.6605 3.6001 13.3154 3.25506 13.3154 2.83018C13.3154 2.40529 13.6605 2.06025 14.0868 2.06025ZM11.3949 2.06025C11.8198 2.06025 12.1648 2.40529 12.1648 2.83018C12.1648 3.25506 11.8198 3.6001 11.3949 3.6001C10.9686 3.6001 10.625 3.25506 10.625 2.83018C10.625 2.40529 10.9686 2.06025 11.3949 2.06025ZM34.3999 39.0607H38.6002C38.9938 39.0607 39.316 39.3829 39.316 39.7764C39.316 40.17 38.9938 40.4922 38.6002 40.4922H34.3999C34.0064 40.4922 33.6841 40.17 33.6841 39.7764C33.6841 39.3829 34.0064 39.0607 34.3999 39.0607Z" fill="#16205F"/>
</g>
<defs>
<clipPath id="clip0_2421_328">
<rect width="73" height="41.8396" fill="white"/>
</clipPath>
</defs>
</svg>
