<svg width="80" height="91" viewBox="0 0 80 91" fill="none" xmlns="http://www.w3.org/2000/svg">
<path d="M79.0703 39.8552C79.0703 61.5014 61.5226 79.0491 39.8765 79.0491C18.2303 79.0491 0.682617 61.5014 0.682617 39.8552C0.682617 18.2091 18.2303 0.661377 39.8765 0.661377C61.5226 0.661377 79.0703 18.2091 79.0703 39.8552ZM15.9911 39.8552C15.9911 53.0467 26.6849 63.7406 39.8765 63.7406C53.068 63.7406 63.7618 53.0467 63.7618 39.8552C63.7618 26.6637 53.068 15.9699 39.8765 15.9699C26.6849 15.9699 15.9911 26.6637 15.9911 39.8552Z" fill="#1E4CBD"/>
<path d="M33.706 65.5818L30.7921 63.6392C30.4835 63.4335 30.1898 63.2061 29.9134 62.9587L23.1985 56.9507L29.0152 61.0786L29.6546 61.444C30.1028 61.7002 30.5753 61.9114 31.065 62.0746L31.4544 62.2044L32.3925 62.5797L33.706 62.955L35.3947 63.3302L35.7796 63.4585C35.8975 63.4978 36.0209 63.5179 36.1452 63.5179L38.5844 63.7055L41.5866 63.7055L43.9888 63.4052C44.3881 63.3553 44.783 63.2747 45.17 63.1641L47.2156 62.5797L49.9159 61.5671C50.1167 61.4917 50.3108 61.3996 50.4961 61.2915C51.7102 60.5833 53.2162 60.6035 54.4109 61.344L72.6238 72.6335C76.1132 74.7965 76.9632 79.5043 74.4503 82.751L73.5476 83.9173C71.5098 86.5502 67.638 86.8325 65.2399 84.5231C64.8588 84.1561 64.4277 83.845 63.9593 83.5991L57.1601 80.0295L43.0876 71.9613L33.706 65.5818Z" fill="#05E1B3"/>
</svg>
