<svg width="73" height="70" viewBox="0 0 73 70" fill="none" xmlns="http://www.w3.org/2000/svg">
<g clip-path="url(#clip0_2421_350)">
<path fill-rule="evenodd" clip-rule="evenodd" d="M47.2518 68.938V34.8333C47.2119 34.6292 47.1121 34.4415 46.9652 34.2943C46.87 34.1978 46.7566 34.121 46.6315 34.0684C46.5065 34.0158 46.3723 33.9884 46.2367 33.9878H26.769C26.4954 33.9907 26.2338 34.1007 26.0403 34.2942C25.8468 34.4877 25.7368 34.7493 25.7339 35.0229V68.7383C25.7339 69.0107 25.8437 69.273 26.0405 69.4626C26.1312 69.5593 26.2407 69.6364 26.3623 69.6891C26.484 69.7418 26.6151 69.7691 26.7477 69.7692H46.2552C46.5289 69.7678 46.7927 69.6565 46.9838 69.4626C47.1272 69.3113 47.2251 69.1225 47.2661 68.918L47.2518 68.938ZM59.9341 40.5834C59.6062 40.5834 59.3382 40.3168 59.3382 39.9875C59.3382 39.6595 59.6062 39.3929 59.9341 39.3929H64.6421C64.7213 39.3912 64.8001 39.4053 64.8739 39.4344C64.9476 39.4636 65.0148 39.5071 65.0715 39.5626C65.1282 39.618 65.1732 39.6842 65.2039 39.7573C65.2347 39.8304 65.2505 39.9089 65.2505 39.9882C65.2505 40.0675 65.2347 40.1459 65.2039 40.219C65.1732 40.2921 65.1282 40.3583 65.0715 40.4138C65.0148 40.4692 64.9476 40.5128 64.8739 40.5419C64.8001 40.5711 64.7213 40.5852 64.6421 40.5834H59.9341ZM59.9341 37.2713C59.6062 37.2713 59.3382 37.0047 59.3382 36.6754C59.3382 36.3474 59.6062 36.0808 59.9341 36.0808H67.9299C68.0855 36.0842 68.2336 36.1484 68.3425 36.2597C68.4513 36.371 68.5123 36.5204 68.5123 36.6761C68.5123 36.8317 68.4513 36.9812 68.3425 37.0925C68.2336 37.2037 68.0855 37.2679 67.9299 37.2713H59.9341ZM59.9341 33.9593C59.6062 33.9593 59.3382 33.6926 59.3382 33.3647C59.3382 33.0354 59.6062 32.7687 59.9341 32.7687H69.2858C69.4415 32.7721 69.5896 32.8363 69.6984 32.9476C69.8073 33.0589 69.8682 33.2083 69.8682 33.364C69.8682 33.5197 69.8073 33.6691 69.6984 33.7804C69.5896 33.8916 69.4415 33.9559 69.2858 33.9593H59.9341ZM66.1235 23.9603C66.2888 23.9603 66.4386 24.0287 66.5469 24.1371L72.7918 29.5336C72.8817 29.6106 72.943 29.7104 72.9743 29.8159C73.0029 29.9157 73 30.0098 73 30.1125V43.5034C73 43.82 72.866 44.1122 72.6578 44.3218C72.4454 44.5343 72.1531 44.6669 71.8366 44.6669H57.3848C57.0669 44.6669 56.7732 44.5357 56.5622 44.3247C56.3442 44.1069 56.2216 43.8115 56.2214 43.5034V25.1237C56.2214 24.8043 56.3526 24.512 56.5636 24.3039C56.6708 24.1949 56.7987 24.1085 56.9397 24.0495C57.0807 23.9905 57.232 23.9601 57.3848 23.9603H66.1235ZM71.8038 30.5973L66.1391 30.7527C65.8112 30.7612 65.536 30.5017 65.5275 30.1738L65.5246 25.1565H57.4162V43.4721H71.8038V30.5973ZM70.8513 29.431L66.7209 25.8637V29.545L70.8513 29.431ZM3.71416 40.5834C3.63489 40.5852 3.55608 40.5711 3.48234 40.5419C3.4086 40.5128 3.34142 40.4692 3.28475 40.4138C3.22807 40.3583 3.18304 40.2921 3.1523 40.219C3.12156 40.1459 3.10572 40.0675 3.10572 39.9882C3.10572 39.9089 3.12156 39.8304 3.1523 39.7573C3.18304 39.6842 3.22807 39.618 3.28475 39.5626C3.34142 39.5071 3.4086 39.4636 3.48234 39.4344C3.55608 39.4053 3.63489 39.3912 3.71416 39.3929H8.42209C8.57771 39.3963 8.7258 39.4605 8.83466 39.5718C8.94351 39.6831 9.00447 39.8325 9.00447 39.9882C9.00447 40.1438 8.94351 40.2933 8.83466 40.4046C8.7258 40.5158 8.57771 40.58 8.42209 40.5834H3.71416ZM3.71416 37.2713C3.63489 37.2731 3.55608 37.259 3.48234 37.2298C3.4086 37.2007 3.34142 37.1571 3.28475 37.1017C3.22807 37.0462 3.18304 36.98 3.1523 36.9069C3.12156 36.8339 3.10572 36.7554 3.10572 36.6761C3.10572 36.5968 3.12156 36.5183 3.1523 36.4452C3.18304 36.3721 3.22807 36.3059 3.28475 36.2505C3.34142 36.195 3.4086 36.1515 3.48234 36.1223C3.55608 36.0932 3.63489 36.0791 3.71416 36.0808H11.7085C12.0364 36.0808 12.3045 36.3474 12.3045 36.6754C12.3045 37.0047 12.0364 37.2713 11.7085 37.2713H3.71416ZM3.71416 33.9593C3.63489 33.961 3.55608 33.9469 3.48234 33.9177C3.4086 33.8886 3.34142 33.845 3.28475 33.7896C3.22807 33.7341 3.18304 33.6679 3.1523 33.5949C3.12156 33.5218 3.10572 33.4433 3.10572 33.364C3.10572 33.2847 3.12156 33.2062 3.1523 33.1331C3.18304 33.0601 3.22807 32.9938 3.28475 32.9384C3.34142 32.883 3.4086 32.8394 3.48234 32.8102C3.55608 32.7811 3.63489 32.767 3.71416 32.7687H13.0644C13.3924 32.7687 13.6604 33.0354 13.6604 33.3647C13.6604 33.6926 13.3924 33.9593 13.0644 33.9593H3.71416ZM10.3255 24.1371L16.5719 29.5336C16.6745 29.622 16.7387 29.7389 16.7643 29.8616C16.7829 29.9599 16.7772 30.0441 16.7786 30.1467V43.5034C16.7786 44.1365 16.2511 44.6669 15.6166 44.6669H1.16344C0.524687 44.6669 0 44.1422 0 43.5034V25.1237C0 24.8043 0.132598 24.512 0.343613 24.3039C0.450639 24.1951 0.578243 24.1087 0.718993 24.0497C0.859743 23.9907 1.01082 23.9603 1.16344 23.9603H9.69531C9.76375 23.9603 9.83361 23.9631 9.90205 23.9603C10.0674 23.9603 10.2171 24.0287 10.3255 24.1371ZM15.5838 30.5973L9.91916 30.7527C9.7613 30.757 9.6082 30.6984 9.4935 30.5899C9.3788 30.4813 9.3119 30.3317 9.3075 30.1738L9.30465 25.1565H1.19623V43.4721H15.5838V30.5973ZM14.6299 29.431L10.4995 25.8637V29.545L14.6299 29.431ZM35.7087 31.7621C35.6374 31.7165 35.5704 31.6595 35.5105 31.5939L33.2236 29.1173C32.83 28.6881 32.8571 28.018 33.2863 27.6231C33.7155 27.2296 34.3856 27.2567 34.7791 27.6858L35.4406 28.4016V23.9446C35.4406 23.36 35.9154 22.8852 36.5 22.8852C37.0846 22.8852 37.5594 23.36 37.5594 23.9446V28.6069L38.3236 27.9696C38.5388 27.7909 38.8162 27.7049 39.0947 27.7306C39.3733 27.7562 39.6303 27.8914 39.8092 28.1064C39.8977 28.2129 39.9644 28.3357 40.0054 28.4679C40.0464 28.6001 40.0609 28.7391 40.0482 28.8769C40.0355 29.0147 39.9958 29.1487 39.9313 29.2712C39.8668 29.3936 39.7788 29.5022 39.6724 29.5907L37.0646 31.7664C36.6654 32.0986 36.0908 32.0872 35.7087 31.7621ZM31.8234 16.6232C31.4955 16.6232 31.2289 16.3551 31.2289 16.0272C31.2289 15.6993 31.4955 15.4312 31.8234 15.4312H36.5314C36.8607 15.4312 37.1273 15.6993 37.1273 16.0272C37.1273 16.3551 36.8607 16.6232 36.5314 16.6232H31.8234ZM31.8234 13.3111C31.6656 13.3111 31.5142 13.2484 31.4025 13.1367C31.2909 13.0251 31.2282 12.8737 31.2282 12.7158C31.2282 12.558 31.2909 12.4065 31.4025 12.2949C31.5142 12.1833 31.6656 12.1206 31.8234 12.1206H39.8178C40.1471 12.1206 40.4138 12.3872 40.4138 12.7151C40.4138 13.043 40.1471 13.3111 39.8178 13.3111H31.8234ZM31.8234 9.999C31.6678 9.9956 31.5197 9.93139 31.4109 9.82012C31.302 9.70886 31.2411 9.5594 31.2411 9.40374C31.2411 9.24809 31.302 9.09862 31.4109 8.98736C31.5197 8.87609 31.6678 8.81188 31.8234 8.80848H41.1751C41.3308 8.81188 41.4789 8.87609 41.5877 8.98736C41.6966 9.09862 41.7575 9.24809 41.7575 9.40374C41.7575 9.5594 41.6966 9.70886 41.5877 9.82012C41.4789 9.93139 41.3308 9.9956 41.1751 9.999H31.8234ZM38.4362 0.175372L44.6811 5.57338C44.7795 5.65687 44.8472 5.77075 44.8736 5.89703C44.8893 5.96832 44.8893 6.03961 44.8893 6.11233V19.5432C44.8893 19.8597 44.7553 20.1506 44.5471 20.3616C44.3347 20.5726 44.0424 20.7066 43.7259 20.7066H29.2727C28.9562 20.7066 28.6625 20.574 28.4515 20.3644C28.2335 20.1467 28.1109 19.8513 28.1107 19.5432V1.16201C28.1107 0.842638 28.2419 0.550353 28.4529 0.342189C28.56 0.233601 28.6876 0.147421 28.8284 0.0886715C28.9692 0.0299223 29.1202 -0.000220177 29.2727 1.21071e-06H37.9244L37.9686 0.00142699L38.0128 1.21071e-06C38.1781 1.21071e-06 38.3279 0.0670129 38.4362 0.175372ZM43.6931 6.63701L38.0284 6.79242C37.7005 6.80098 37.4253 6.54149 37.4168 6.21213L37.4139 1.19481H29.3055V19.5104H43.6931V6.63701ZM42.7406 5.47072L38.6102 1.90199V5.58479L42.7406 5.47072ZM20.9961 56.3811C20.9462 56.4524 20.8877 56.518 20.8193 56.5779L18.3427 58.7265C17.9021 59.1072 17.2334 59.0587 16.8527 58.6181C16.472 58.1776 16.5205 57.5103 16.9611 57.1296L17.6526 56.5294C16.8328 56.5094 16.0087 56.4025 15.2003 56.2014C14.1865 55.9519 13.1885 55.5541 12.2346 55.0038C11.0013 54.2923 9.95338 53.3898 9.11074 52.3618C8.2402 51.2952 7.56974 50.0798 7.13176 48.7746C6.94641 48.2228 7.24439 47.6239 7.7976 47.4386C8.34937 47.2547 8.9482 47.5527 9.13355 48.1059C9.4921 49.1667 10.0394 50.1539 10.749 51.0202C11.4571 51.8863 12.3165 52.6167 13.2854 53.1759C14.0582 53.6222 14.8738 53.9459 15.705 54.1512C16.3608 54.3137 17.0281 54.4007 17.6897 54.4178L17.2377 53.9045C16.8513 53.4668 16.8941 52.7981 17.3318 52.4117C17.7709 52.0268 18.4396 52.0695 18.8246 52.5072L21.0003 54.9781C21.3582 55.3845 21.3482 55.989 20.9961 56.3811ZM52.1807 56.5779C52.1123 56.518 52.0538 56.4524 52.0039 56.3811C51.6532 55.989 51.6418 55.3845 51.9997 54.9781L54.1754 52.5058C54.2671 52.4017 54.3785 52.3166 54.5031 52.2555C54.6277 52.1944 54.7631 52.1585 54.9016 52.1497C55.0401 52.141 55.179 52.1596 55.3103 52.2046C55.4416 52.2495 55.5627 52.3199 55.6668 52.4117C55.7712 52.5033 55.8565 52.6145 55.9178 52.739C55.9791 52.8636 56.0152 52.999 56.0241 53.1376C56.033 53.2761 56.0144 53.4151 55.9695 53.5464C55.9246 53.6778 55.8542 53.799 55.7623 53.9031L55.3103 54.4178C55.9719 54.4007 56.6392 54.3137 57.295 54.1512C58.1438 53.9415 58.9589 53.6132 59.716 53.1759C60.693 52.6129 61.5589 51.876 62.271 51.0016C62.9834 50.1248 63.5294 49.125 63.8821 48.0517C63.97 47.7852 64.1601 47.5645 64.4106 47.4381C64.6611 47.3116 64.9515 47.2898 65.2181 47.3773C65.7741 47.5598 66.075 48.1586 65.8925 48.7132C65.4569 50.0307 64.7843 51.2575 63.9078 52.3333C63.0595 53.377 62.0044 54.2895 60.7654 55.0038C59.813 55.5541 58.8135 55.9519 57.8012 56.2014C56.9977 56.4001 56.1749 56.5101 55.3474 56.5294L56.0389 57.1296C56.4795 57.5103 56.5279 58.1776 56.1473 58.6181C55.7666 59.0587 55.0979 59.1072 54.6587 58.7265L52.1807 56.5779ZM36.5 59.0473C38.1653 59.0473 39.5155 60.3975 39.5155 62.0628C39.5155 63.7281 38.1653 65.0784 36.5 65.0784C34.8347 65.0784 33.4845 63.7281 33.4845 62.0628C33.4845 60.3975 34.8347 59.0473 36.5 59.0473ZM43.4364 39.8976V42.4869H29.5721V39.8976H43.4364ZM43.4364 47.0608V49.65H36.6041L36.5371 49.4219L36.4487 49.6357H29.5721V47.0608H43.4364Z" fill="#16205F"/>
</g>
<defs>
<clipPath id="clip0_2421_350">
<rect width="73" height="69.7692" fill="white"/>
</clipPath>
</defs>
</svg>
