<svg width="82" height="81" viewBox="0 0 82 81" fill="none" xmlns="http://www.w3.org/2000/svg">
<rect x="0.376221" y="0.145264" width="80.7097" height="80.7097" rx="19.3703" fill="#3F8CFF"/>
<mask id="mask0_2060_143" style="mask-type:luminance" maskUnits="userSpaceOnUse" x="0" y="0" width="82" height="81">
<rect x="0.376221" y="0.145264" width="80.7097" height="80.7097" rx="19.3703" fill="white"/>
</mask>
<g mask="url(#mask0_2060_143)">
</g>
<path fill-rule="evenodd" clip-rule="evenodd" d="M29.432 40.5001C26.7686 40.5001 24.5896 38.321 24.5896 35.6578C24.5896 32.994 26.7686 30.8149 29.432 30.8149C32.0954 30.8149 34.2748 32.994 34.2748 35.6578C34.2748 38.321 32.0954 40.5001 29.432 40.5001Z" fill="white"/>
<path fill-rule="evenodd" clip-rule="evenodd" d="M69.7866 29.7571C69.7866 21.4608 62.8859 14.6729 54.4518 14.6729H54.4514C46.0176 14.6729 39.1169 21.4608 39.1169 29.7571V51.7993C39.1169 51.7993 69.7838 48.4407 69.7866 29.7592C69.7866 29.7585 69.7866 29.7578 69.7866 29.7571Z" fill="white"/>
<path fill-rule="evenodd" clip-rule="evenodd" d="M22.9755 60.2053C21.3422 60.2053 20.0063 58.9643 20.0063 57.4478C20.0063 55.931 21.3422 54.6903 22.9755 54.6903C24.6085 54.6903 25.9445 55.931 25.9445 57.4478C25.9445 58.9643 24.6085 60.2053 22.9755 60.2053ZM11.6758 57.4453C11.6758 57.446 11.6758 57.447 11.6758 57.4477C11.6758 63.2189 16.7603 67.9411 22.9751 67.9411C29.1896 67.9411 34.2745 63.2189 34.2745 57.4477V42.114C34.2745 42.114 11.6787 44.4504 11.6758 57.4453Z" fill="white"/>
</svg>
