<svg width="280" height="116" viewBox="0 0 280 116" fill="none" xmlns="http://www.w3.org/2000/svg">
<path d="M0.429932 42.6593L148.444 35.0237L152.751 107.66L4.54143 115.296L0.429932 42.6593Z" fill="#E6762A"/>
<path d="M158.164 93.8064V57.9066H162.164V93.8064H158.164ZM160.164 77.8053V73.8564H178.319V77.8053H160.164ZM160.164 61.8043V57.9066H180.73V61.8043H160.164ZM186.575 93.8064V67.0354H190.422L190.524 74.1641L190.114 73.1897C190.49 71.993 191.088 70.8818 191.909 69.8561C192.764 68.8304 193.772 68.0098 194.935 67.3944C196.097 66.779 197.379 66.4713 198.781 66.4713C199.362 66.4713 199.91 66.5226 200.422 66.6251C200.935 66.6935 201.363 66.7961 201.705 66.9328L200.628 71.2408C200.183 71.0357 199.721 70.8989 199.243 70.8305C198.798 70.728 198.371 70.6767 197.961 70.6767C196.798 70.6767 195.755 70.8818 194.832 71.2921C193.909 71.7024 193.123 72.2836 192.473 73.0358C191.824 73.7538 191.328 74.5915 190.986 75.5488C190.644 76.5061 190.473 77.5318 190.473 78.6259V93.8064H186.575ZM216.402 94.3193C213.735 94.3193 211.359 93.7209 209.274 92.5243C207.222 91.3276 205.598 89.6694 204.401 87.5496C203.239 85.4298 202.658 83.0194 202.658 80.3183C202.658 77.6515 203.239 75.2753 204.401 73.1897C205.598 71.104 207.222 69.4629 209.274 68.2663C211.359 67.0696 213.735 66.4713 216.402 66.4713C219.035 66.4713 221.377 67.0696 223.428 68.2663C225.514 69.4629 227.138 71.104 228.3 73.1897C229.497 75.2753 230.095 77.6515 230.095 80.3183C230.095 83.0194 229.497 85.4298 228.3 87.5496C227.138 89.6694 225.514 91.3276 223.428 92.5243C221.377 93.7209 219.035 94.3193 216.402 94.3193ZM216.402 90.678C218.283 90.678 219.958 90.2335 221.428 89.3446C222.898 88.4214 224.044 87.1906 224.864 85.652C225.685 84.0793 226.095 82.3014 226.095 80.3183C226.095 78.3353 225.685 76.5745 224.864 75.0359C224.044 73.4974 222.898 72.3007 221.428 71.446C219.958 70.557 218.283 70.1125 216.402 70.1125C214.522 70.1125 212.829 70.557 211.325 71.446C209.855 72.3007 208.692 73.5145 207.838 75.0872C207.017 76.6258 206.624 78.3695 206.658 80.3183C206.624 82.3014 207.017 84.0793 207.838 85.652C208.692 87.1906 209.855 88.4214 211.325 89.3446C212.829 90.2335 214.522 90.678 216.402 90.678ZM235.707 93.8064V67.0354H239.502L239.656 72.6255L239.041 72.8819C239.383 71.7195 240.049 70.6596 241.041 69.7022C242.032 68.7449 243.212 67.9756 244.58 67.3944C245.981 66.779 247.417 66.4713 248.887 66.4713C250.871 66.4713 252.529 66.8645 253.862 67.6508C255.196 68.4372 256.204 69.651 256.888 71.2921C257.572 72.9332 257.914 75.0188 257.914 77.5489V93.8064H254.016V77.7541C254.016 75.9762 253.777 74.5231 253.298 73.3948C252.854 72.2323 252.153 71.3776 251.195 70.8305C250.238 70.2835 249.058 70.0271 247.657 70.0612C246.494 70.0612 245.417 70.2664 244.426 70.6767C243.434 71.0528 242.579 71.5827 241.861 72.2665C241.143 72.9503 240.579 73.7367 240.169 74.6256C239.759 75.5146 239.554 76.4719 239.554 77.4976V93.8064H237.656C237.417 93.8064 237.143 93.8064 236.835 93.8064C236.528 93.8064 236.152 93.8064 235.707 93.8064ZM268.949 93.8064V60.0093H272.795V93.8064H268.949ZM262.897 70.728V67.0354H279.565V70.728H262.897Z" fill="#1E1E1E"/>
<line x1="6.03194" y1="51.9704" x2="56.9362" y2="3.02406" stroke="#E6762A" stroke-width="0.783142"/>
<line x1="6.03194" y1="51.9704" x2="56.9362" y2="3.02406" stroke="white" stroke-opacity="0.1" stroke-width="0.783142"/>
<line x1="140.038" y1="47.5083" x2="56.633" y2="3.26075" stroke="#E6762A" stroke-width="0.783142"/>
<line x1="140.038" y1="47.5083" x2="56.633" y2="3.26075" stroke="white" stroke-opacity="0.1" stroke-width="0.783142"/>
<circle cx="57.2076" cy="3.30646" r="2.15364" fill="#E6762A"/>
<circle cx="57.2076" cy="3.30646" r="2.15364" fill="white" fill-opacity="0.1"/>
<circle cx="57.2076" cy="3.30646" r="2.15364" stroke="#E6762A" stroke-width="0.391571"/>
<circle cx="57.2076" cy="3.30646" r="2.15364" stroke="white" stroke-opacity="0.1" stroke-width="0.391571"/>
<path d="M8.53316 84.9032L6.46887 51.4504L8.16986 51.3454L10.2342 84.7983L8.53316 84.9032ZM11.9351 84.6933L9.87085 51.2404L14.9738 50.9256L17.0381 84.3784L11.9351 84.6933ZM18.7391 84.2734L16.6748 50.8206L18.3758 50.7156L20.4401 84.1685L18.7391 84.2734ZM22.1411 84.0635L20.0768 50.6107L25.1798 50.2958L27.2441 83.7486L22.1411 84.0635ZM32.3471 83.4337L30.2828 49.9809L31.9838 49.8759L34.048 83.3288L32.3471 83.4337ZM23.2145 102.381C21.5135 102.486 20.0988 102.004 18.9705 100.935L19.6838 99.5824L19.73 99.4088L19.9036 99.455C19.9059 99.4928 19.9295 99.5672 19.9743 99.6783C19.979 99.7539 20.0226 99.846 20.1052 99.9548C20.1476 100.028 20.2279 100.099 20.346 100.168C21.1818 100.799 22.1855 101.079 23.3573 101.006C24.1133 100.96 24.7431 100.712 25.2466 100.264C25.7479 99.7773 25.9798 99.2318 25.9425 98.627C25.9168 98.2112 25.8002 97.8579 25.5925 97.5672C25.425 97.3119 25.1251 97.0648 24.693 96.8259C24.2609 96.587 23.5985 96.3053 22.7058 95.981C21.3902 95.5689 20.4291 95.059 19.8225 94.4514C19.2536 93.8415 18.9447 93.1396 18.8957 92.3458C18.8351 91.363 19.1452 90.547 19.8261 89.8979C20.507 89.2488 21.4522 88.8869 22.6618 88.8123C23.38 88.768 24.0697 88.8772 24.731 89.1399C25.3544 89.405 25.927 89.7681 26.4487 90.2292L25.5653 91.5927L25.4449 91.4863C25.4426 91.4485 25.4202 91.393 25.3777 91.3197C25.3707 91.2063 25.3271 91.1142 25.2468 91.0432C25.202 90.9322 25.1206 90.8423 25.0025 90.7737C24.6815 90.49 24.3084 90.2854 23.8833 90.1598C23.4983 90.0697 23.0412 90.041 22.512 90.0737C21.8316 90.1157 21.314 90.3373 20.9594 90.7386C20.5669 91.1423 20.387 91.6087 20.4196 92.1379C20.4453 92.5537 20.5431 92.9082 20.7129 93.2012C20.9206 93.492 21.2594 93.7556 21.7293 93.9922C22.2016 94.2667 22.9018 94.546 23.83 94.8302C25.11 95.2824 26.0121 95.758 26.5361 96.2568C27.0247 96.7958 27.2947 97.4811 27.346 98.3127C27.3856 98.9553 27.2717 99.5695 27.0043 100.155C26.6991 100.743 26.2369 101.246 25.6176 101.664C24.9605 102.084 24.1595 102.323 23.2145 102.381ZM35.7756 83.2222L33.7113 49.7693L35.4123 49.6643L37.4766 83.1172L35.7756 83.2222ZM39.1776 83.0122L37.1133 49.5594L38.8143 49.4544L40.8786 82.9073L39.1776 83.0122ZM42.5796 82.8023L40.5153 49.3494L45.6183 49.0346L47.6826 82.4874L42.5796 82.8023ZM49.3836 82.3824L47.3193 48.9296L52.4222 48.6147L54.4865 82.0676L49.3836 82.3824ZM59.5895 81.7527L57.5252 48.2998L59.2262 48.1948L61.2905 81.6477L59.5895 81.7527ZM48.8612 88.6754L45.1757 88.9028L45.0953 87.5987L54.1672 87.0389L54.2477 88.343L50.3921 88.5809L51.1234 100.431L49.5925 100.526L48.8612 88.6754ZM63.0181 81.5411L60.9538 48.0882L66.0568 47.7733L68.1211 81.2262L63.0181 81.5411ZM69.822 81.1212L67.7577 47.6684L69.4587 47.5634L71.523 81.0163L69.822 81.1212ZM73.224 80.9113L71.1597 47.4585L76.2627 47.1436L78.327 80.5964L73.224 80.9113ZM80.028 80.4915L77.9637 47.0386L79.6647 46.9336L81.729 80.3865L80.028 80.4915ZM86.832 80.0716L84.7677 46.6187L86.4687 46.5138L88.533 79.9666L86.832 80.0716ZM77.7561 99.0154C76.2441 99.1087 75.0551 98.5939 74.189 97.4711C73.2851 96.3507 72.7666 94.7131 72.6337 92.5585C72.5054 90.4795 72.8197 88.8096 73.5767 87.5487C74.336 86.3256 75.4527 85.6685 76.9269 85.5776C78.4011 85.4866 79.5902 86.0013 80.4941 87.1218C81.4003 88.2801 81.9176 89.8987 82.0458 91.9777C82.1788 94.1323 81.8656 95.8212 81.1063 97.0443C80.3849 98.2651 79.2681 98.9221 77.7561 99.0154ZM77.6757 97.7113C78.6962 97.6483 79.4432 97.1469 79.9164 96.2071C80.4251 95.2271 80.6246 93.8488 80.515 92.0722C80.4123 90.409 80.0472 89.1035 79.4195 88.1557C78.7942 87.2457 77.9902 86.821 77.0074 86.8817C76.0246 86.9423 75.2788 87.4626 74.7702 88.4426C74.2638 89.4604 74.062 90.8009 74.1646 92.4641C74.2742 94.2407 74.6228 95.5851 75.2103 96.4975C75.8333 97.3697 76.6551 97.7743 77.6757 97.7113ZM90.2605 79.86L88.1962 46.4072L93.2992 46.0923L95.3635 79.5451L90.2605 79.86ZM97.0645 79.4402L95.0002 45.9873L96.7012 45.8824L98.7655 79.3352L97.0645 79.4402ZM100.466 79.2302L98.4022 45.7774L100.103 45.6724L102.167 79.1253L100.466 79.2302ZM103.868 79.0203L101.804 45.5675L106.907 45.2526L108.971 78.7054L103.868 79.0203ZM114.074 78.3905L112.01 44.9377L113.711 44.8327L115.775 78.2856L114.074 78.3905ZM100.09 84.2051L103.946 83.9672C105.458 83.8739 106.575 84.1464 107.298 84.7849C108.055 85.3831 108.472 86.2871 108.546 87.4967C108.593 88.2527 108.392 88.986 107.942 89.6967C107.493 90.4075 106.878 90.9007 106.098 91.1765L109.521 96.8276L107.876 96.9291L104.571 91.3277L102.02 91.4851L102.376 97.2685L100.902 97.3594L100.09 84.2051ZM104.491 90.0236C105.398 89.9676 106.065 89.7177 106.493 89.2739C106.886 88.8703 107.06 88.3093 107.015 87.5911C106.971 86.8729 106.727 86.2999 106.283 85.8719C105.804 85.4841 105.111 85.3182 104.204 85.3742L101.652 85.5316L101.939 90.181L104.491 90.0236ZM117.503 78.179L115.439 44.7261L120.542 44.4112L122.606 77.8641L117.503 78.179ZM124.307 77.7591L122.243 44.3063L123.944 44.2013L126.008 77.6541L124.307 77.7591ZM127.709 77.5492L125.645 44.0963L130.748 43.7814L132.812 77.2343L127.709 77.5492ZM137.915 76.9194L135.851 43.4665L137.552 43.3616L139.616 76.8144L137.915 76.9194ZM141.317 76.7095L139.253 43.2566L140.954 43.1516L143.018 76.6045L141.317 76.7095ZM127.39 82.5205L135.441 82.0237L135.521 83.3278L128.831 83.7407L129.097 88.0498L134.653 87.707L134.737 89.0678L129.181 89.4106L129.482 94.2868L136.116 93.8775L136.196 95.1816L128.201 95.6749L127.39 82.5205Z" fill="white"/>
</svg>
