<svg width="24" height="24" viewBox="0 0 24 24" fill="none" xmlns="http://www.w3.org/2000/svg">
<path d="M3.25 0.750244C1.87125 0.750244 0.75 1.87149 0.75 3.25024V20.7502C0.75 22.129 1.87125 23.2502 3.25 23.2502H20.75C22.1287 23.2502 23.25 22.129 23.25 20.7502V3.25024C23.25 1.87149 22.1287 0.750244 20.75 0.750244H3.25ZM3.25 3.25024H20.75L20.7524 20.7502H3.25V3.25024ZM15.208 5.89185C13.493 5.89185 12.1001 7.28601 12.1001 8.99976C12.1001 9.32101 12.2075 9.53552 12.2075 9.74927C9.63627 9.64302 7.38672 8.35763 5.88672 6.53638C5.56547 6.96513 5.45703 7.49915 5.45703 8.0354C5.45703 9.10665 5.99357 9.96606 6.85107 10.7161C6.31607 10.6086 5.88578 10.5001 5.45703 10.2864C5.45703 11.7864 6.52791 12.9656 7.92041 13.2869C7.59916 13.3944 7.38473 13.3943 7.06348 13.3943C6.95598 13.3943 6.74012 13.2869 6.52637 13.2869C6.95512 14.4656 8.02693 15.428 9.41943 15.428C8.34818 16.178 6.95451 16.7146 5.56201 16.7146H4.8125C6.205 17.5709 7.81311 18.1086 9.52686 18.1086C15.2056 18.1086 18.3135 13.3933 18.3135 9.32202V8.89233C18.8497 8.46358 19.3837 7.92845 19.8149 7.28345C19.1724 7.60595 18.6362 7.71306 17.9937 7.82056C18.6362 7.39306 19.1715 6.85669 19.3853 6.10669C18.849 6.42794 18.2065 6.7487 17.4565 6.8562C16.9203 6.2137 16.0655 5.89185 15.208 5.89185Z" fill="#718096"/>
</svg>
