<svg width="73" height="57" viewBox="0 0 73 57" fill="none" xmlns="http://www.w3.org/2000/svg">
<g clip-path="url(#clip0_2421_347)">
<path fill-rule="evenodd" clip-rule="evenodd" d="M4.94271 0H68.0573C70.7782 0 73 2.22184 73 4.94271V51.7974C73 54.5124 70.7782 56.7402 68.0573 56.7402H4.94271C2.22184 56.7402 0 54.5183 0 51.7974V4.94271C0 2.22184 2.22184 0 4.94271 0ZM7.48535 16.0103H64.974V40.415H7.48535V16.0103ZM19.1352 22.9729H22.6877V30.3632C22.6877 31.0939 22.5808 31.789 22.3669 32.4365C22.1531 33.09 21.8204 33.6603 21.3689 34.1475C20.9174 34.6346 20.4421 34.9792 19.9431 35.1752C19.254 35.4485 18.4223 35.5911 17.4539 35.5911C16.8955 35.5911 16.2836 35.5495 15.6182 35.4663C14.9588 35.3831 14.4004 35.2168 13.9548 34.9613C13.5093 34.7118 13.1053 34.3554 12.737 33.892C12.3687 33.4286 12.1132 32.9534 11.9766 32.4603C11.7568 31.6702 11.6439 30.9751 11.6439 30.3632V22.9729H15.1965V30.5414C15.1965 31.2187 15.3687 31.7474 15.7192 32.1217C16.0697 32.5019 16.5509 32.692 17.1688 32.692C17.7747 32.692 18.2559 32.5019 18.6064 32.1276C18.951 31.7533 19.1292 31.2246 19.1292 30.5355V22.9729H19.1352ZM25.1829 22.9729H28.7533V35.3831H25.1829V22.9729ZM33.0247 22.765H34.6405L31.7355 35.5911H30.1196L33.0247 22.765ZM43.2606 22.9729H46.8132V30.3632C46.8132 31.0939 46.7062 31.789 46.4924 32.4365C46.2785 33.09 45.9458 33.6603 45.4943 34.1475C45.0428 34.6346 44.5675 34.9792 44.0685 35.1752C43.3794 35.4485 42.5477 35.5911 41.5793 35.5911C41.0209 35.5911 40.409 35.5495 39.7437 35.4663C39.0842 35.3831 38.5258 35.2168 38.0802 34.9613C37.6347 34.7118 37.2307 34.3554 36.8624 33.892C36.4941 33.4286 36.2386 32.9534 36.102 32.4603C35.8822 31.6702 35.7752 30.9751 35.7752 30.3632V22.9729H39.3278V30.5414C39.3278 31.2187 39.5001 31.7474 39.8506 32.1217C40.2011 32.5019 40.6823 32.692 41.3001 32.692C41.9061 32.692 42.3873 32.5019 42.7378 32.1276C43.0824 31.7533 43.2606 31.2246 43.2606 30.5355V22.9729ZM48.3756 22.9729H52.3024L54.3401 26.7928L56.3184 22.9729H60.1917L56.6154 28.9849L60.5304 35.3831H56.5263L54.2688 31.3969L51.9935 35.3831H48.0191L51.9876 28.9137L48.3756 22.9729ZM39.7258 49.7122C38.6684 49.7122 37.8129 48.7795 37.8129 47.633C37.8129 46.4805 38.6684 45.5537 39.7258 45.5537H63.2809C64.3384 45.5537 65.1938 46.4864 65.1938 47.633C65.1938 48.7855 64.3384 49.7122 63.2809 49.7122H39.7258ZM8.88737 49.7122C7.8418 49.7122 6.99227 48.7795 6.99227 47.633C6.99227 46.4805 7.8418 45.5537 8.88737 45.5537H30.7256C31.7712 45.5537 32.6207 46.4864 32.6207 47.633C32.6207 48.7855 31.7712 49.7122 30.7256 49.7122H8.88737ZM70.0831 11.9409H3.14266V52.2786C3.14266 52.6589 3.29118 52.9915 3.54069 53.247C3.79614 53.4965 4.12883 53.645 4.50903 53.645H68.693C69.0732 53.645 69.4058 53.4965 69.6613 53.247C69.9168 52.9915 70.0593 52.6589 70.0593 52.2786V11.9409H70.0831ZM63.3522 3.6595C64.7008 3.6595 65.7939 4.7526 65.7939 6.10116C65.7939 7.44971 64.7008 8.54281 63.3522 8.54281C62.0037 8.54281 60.9106 7.44971 60.9106 6.10116C60.9165 4.7526 62.0096 3.6595 63.3522 3.6595ZM46.8132 3.6595C48.1617 3.6595 49.2548 4.7526 49.2548 6.10116C49.2548 7.44971 48.1617 8.54281 46.8132 8.54281C45.4646 8.54281 44.3715 7.44971 44.3715 6.10116C44.3715 4.7526 45.4646 3.6595 46.8132 3.6595ZM55.0827 3.6595C56.4312 3.6595 57.5243 4.7526 57.5243 6.10116C57.5243 7.44971 56.4312 8.54281 55.0827 8.54281C53.7341 8.54281 52.641 7.44971 52.641 6.10116C52.641 4.7526 53.7341 3.6595 55.0827 3.6595Z" fill="#16205F"/>
</g>
<defs>
<clipPath id="clip0_2421_347">
<rect width="73" height="56.7402" fill="white"/>
</clipPath>
</defs>
</svg>
