<svg width="154" height="59" viewBox="0 0 154 59" fill="none" xmlns="http://www.w3.org/2000/svg">
<path d="M35.4748 14.5914C36.8104 13.6495 38.146 13.1785 39.4815 13.1785C41.028 13.1785 42.1738 14.0361 42.9189 15.7513C43.5234 17.1431 44.0365 18.9918 44.4583 21.2974C44.8941 23.603 45.2526 25.515 45.5338 27.0333C46.2367 30.8291 47.1786 34.3719 48.3596 37.6616C52.0148 23.9826 53.9127 16.4401 54.0533 15.0343C54.0814 14.8093 54.0955 14.4368 54.0955 13.9166C54.0955 13.3965 53.9689 12.9466 53.7159 12.567C53.7159 12.4264 53.9197 12.2999 54.3274 12.1874C54.7351 12.0609 55.1499 11.9976 55.5716 11.9976C56.851 11.9976 57.8843 12.4053 58.6715 13.2207C59.4588 14.0361 59.8525 14.8937 59.8525 15.7934C59.8525 16.6932 59.6627 17.8671 59.2831 19.3151C58.9035 20.7632 58.2638 22.6611 57.3641 25.0089C56.4643 27.3567 55.7192 29.2546 55.1288 30.7026C54.5383 32.1506 53.5612 34.4703 52.1976 37.6616C50.8479 40.8389 49.9974 42.8422 49.6459 43.6717C49.1539 43.7701 48.5564 43.8193 47.8534 43.8193C47.1646 43.8193 46.4898 43.7209 45.829 43.5241C45.1823 43.3413 44.7395 43.0882 44.5005 42.7649C44.1771 42.301 43.3477 39.5806 42.0121 34.6039C40.6765 29.6131 39.826 26.5834 39.4605 25.515C39.0949 26.246 38.624 27.8487 38.0476 30.323C37.4712 32.7973 36.8596 35.363 36.2129 38.0201C35.5662 40.6772 34.9758 42.561 34.4415 43.6717C33.9495 43.7701 33.3661 43.8193 32.6912 43.8193C32.0164 43.8193 31.3697 43.7209 30.7511 43.5241C30.1326 43.3413 29.7178 43.1023 29.507 42.8071C29.2961 42.4978 28.7689 41.0216 27.9254 38.3786C27.0819 35.7215 26.1891 32.8957 25.2472 29.9013C24.3053 26.8927 23.279 24.0459 22.1684 21.3607C21.0718 18.6614 20.1861 17.1009 19.5113 16.6791C19.2582 16.5245 19.0122 16.4401 18.7732 16.4261C18.5483 16.412 18.3233 16.398 18.0984 16.3839C17.8735 16.3699 17.7258 16.3628 17.6556 16.3628C17.4306 15.8145 17.3181 15.3998 17.3181 15.1186C17.3181 14.8234 17.3252 14.6336 17.3392 14.5493C19.3777 13.4105 21.7747 12.8411 24.5302 12.8411C25.0082 12.8411 25.3597 12.8482 25.5846 12.8622C25.8658 13.1575 26.3508 14.4579 27.0397 16.7635C27.7285 19.055 28.6845 22.394 29.9076 26.7803C31.1448 31.1665 32.2132 34.8358 33.113 37.7881C35.0671 28.7203 36.5503 22.7454 37.5625 19.8634C36.9721 18.2186 36.2762 16.4612 35.4748 14.5914ZM83.2811 31.1876L83.1546 38.2732C83.1546 38.3435 83.1546 38.4137 83.1546 38.484C83.1546 39.2573 83.5201 39.6439 84.2512 39.6439C84.8135 39.6439 85.411 39.4611 86.0437 39.0956C86.2405 39.2643 86.4232 39.5033 86.5919 39.8126C86.7747 40.1078 86.8801 40.3398 86.9083 40.5085C85.165 42.7297 83.3514 43.8404 81.4676 43.8404C79.5978 43.8404 78.2903 42.9195 77.5452 41.0779C76.2518 41.9776 74.9303 42.6594 73.5807 43.1234C72.2451 43.6014 71.0923 43.8404 70.1223 43.8404C69.1663 43.8404 68.2736 43.7349 67.4441 43.5241C66.6287 43.3132 65.8696 42.9758 65.1666 42.5118C63.6483 41.5277 62.8891 39.904 62.8891 37.6405C62.8891 36.4315 63.2195 35.3771 63.8803 34.4773C64.5551 33.5635 65.4689 32.8465 66.6217 32.3264C68.8289 31.3282 71.4649 30.787 74.5297 30.7026L76.9759 30.6183C77.0743 29.4795 77.1235 28.5798 77.1235 27.919C77.1235 26.4288 76.8353 25.3041 76.2589 24.5449C75.6965 23.7858 74.6421 23.4062 73.0957 23.4062C72.1678 23.4062 71.4438 23.7295 70.9236 24.3762C70.4175 25.0229 70.1645 25.9789 70.1645 27.2442C70.1645 27.4129 69.9255 27.6167 69.4475 27.8557C68.6461 28.2353 67.8448 28.4251 67.0434 28.4251C66.2562 28.4251 65.6235 28.2002 65.1455 27.7503C64.6816 27.3004 64.4496 26.6678 64.4496 25.8524C64.4496 25.037 64.7449 24.2708 65.3353 23.5538C65.9258 22.8368 66.7131 22.2815 67.6972 21.8879C69.6513 21.1146 71.8796 20.728 74.382 20.728C76.9969 20.728 78.9089 21.1427 80.118 21.9722C81.2145 22.7033 81.9948 23.7506 82.4587 25.1143C83.007 26.7029 83.2811 28.7274 83.2811 31.1876ZM76.9759 38.8636C76.7931 37.8373 76.7017 36.9517 76.7017 36.2065C76.7017 35.4474 76.7228 34.393 76.765 33.0434L73.8338 33.1699C72.3295 33.1699 71.1696 33.5354 70.3543 34.2665C69.5389 34.9975 69.1312 35.9113 69.1312 37.0079C69.1312 38.1045 69.3701 38.8917 69.8481 39.3697C70.3261 39.8477 71.2891 40.0867 72.7372 40.0867C74.1993 40.0867 75.6122 39.679 76.9759 38.8636ZM93.4244 10.7956C94.2539 10.0927 95.1536 9.74122 96.1237 9.74122C97.0937 9.74122 97.8951 10.0435 98.5277 10.648C99.1603 11.2385 99.4767 12.0749 99.4767 13.1575C99.4767 14.24 99.069 15.1538 98.2536 15.8989C97.4382 16.6299 96.5033 16.9955 95.4489 16.9955C94.4085 16.9955 93.5861 16.6721 92.9816 16.0254C92.3911 15.3787 92.0959 14.5493 92.0959 13.537C92.0959 12.5248 92.5387 11.611 93.4244 10.7956ZM92.8551 26.2109C92.8551 25.1424 92.4825 24.5098 91.7374 24.313C91.2594 24.1583 90.5846 24.0459 89.713 23.9756C89.6145 23.5538 89.5653 23.2375 89.5653 23.0266C89.5653 22.8017 89.5724 22.6259 89.5864 22.4994C91.6109 21.3607 94.1484 20.7913 97.1992 20.7913C97.6912 20.7913 98.0567 20.7983 98.2957 20.8124C98.6894 21.4309 98.9635 22.64 99.1182 24.4395C99.2306 25.2549 99.2869 26.485 99.2869 28.1299C99.2869 29.7747 99.2306 34.7796 99.1182 43.1445C97.5577 43.4116 96.2572 43.5451 95.2169 43.5451C94.1906 43.5451 93.319 43.4116 92.602 43.1445C92.8551 39.7563 92.9816 36.7267 92.9816 34.0556C92.9816 31.3704 92.9394 28.7555 92.8551 26.2109ZM116.452 38.8636C116.959 39.3276 117.247 39.8056 117.317 40.2976C115.461 42.6594 113.317 43.8404 110.885 43.8404C109.297 43.8404 108.172 43.2077 107.511 41.9425C106.949 40.8318 106.604 38.9269 106.478 36.2276C106.365 32.0101 106.309 28.0807 106.309 24.4395C104.875 24.3833 103.996 24.313 103.673 24.2286C103.603 24.1161 103.568 23.7014 103.568 22.9844C103.568 22.2674 103.603 21.8738 103.673 21.8035L106.351 21.5504C106.351 21.2552 106.393 19.8423 106.478 17.3118C107.181 16.5948 108.207 16.0465 109.557 15.6669C110.92 15.2733 112.129 15.0765 113.184 15.0765C112.987 16.8619 112.825 19.0199 112.699 21.5504C113.163 21.5645 114.562 21.6489 116.895 21.8035C116.966 22.0425 117.001 22.4994 117.001 23.1742C117.001 23.849 116.966 24.2567 116.895 24.3973C115.602 24.566 114.161 24.6715 112.572 24.7136C112.516 26.3866 112.488 28.5024 112.488 31.0611C112.488 33.6057 112.544 36.0097 112.657 38.2732C112.699 39.1448 113.135 39.5806 113.964 39.5806C114.808 39.5806 115.637 39.3416 116.452 38.8636ZM135.368 28.9523C135.368 26.5483 134.82 25.3463 133.723 25.3463C132.922 25.3463 132.156 25.5782 131.425 26.0422C130.694 26.492 129.907 27.1247 129.063 27.9401C129.063 29.3459 129.021 34.4141 128.936 43.1445C127.376 43.4116 126.097 43.5451 125.098 43.5451C124.114 43.5451 123.264 43.4116 122.547 43.1445C122.716 40.8107 122.8 36.8111 122.8 31.1454V26.2109C122.8 25.1424 122.427 24.5098 121.682 24.313C121.176 24.1583 120.494 24.0459 119.637 23.9756C119.538 23.5538 119.489 23.2375 119.489 23.0266C119.489 22.8017 119.496 22.6259 119.51 22.4994C121.535 21.3607 124.037 20.7913 127.017 20.7913C127.51 20.7913 127.875 20.7983 128.114 20.8124C128.522 21.5153 128.761 22.2463 128.831 23.0055C128.915 23.7647 128.979 24.4887 129.021 25.1776C130.905 22.886 132.493 21.4942 133.787 21.0022C134.405 20.7632 135.059 20.6437 135.748 20.6437C137.154 20.6437 138.278 21.0373 139.122 21.8246C139.98 22.5978 140.408 23.7366 140.408 25.2408C140.408 26.3936 139.987 27.3567 139.143 28.1299C138.314 28.889 137.308 29.2686 136.127 29.2686C135.874 29.2686 135.621 29.2475 135.368 29.2054V28.9523ZM144.542 37.4929C145.329 36.8462 146.158 36.5229 147.03 36.5229C147.902 36.5229 148.626 36.804 149.202 37.3664C149.792 37.9147 150.088 38.6879 150.088 39.6861C150.088 40.6702 149.708 41.4996 148.949 42.1744C148.204 42.8492 147.381 43.1866 146.482 43.1866C145.582 43.1866 144.823 42.9125 144.204 42.3642C143.6 41.8019 143.297 41.0427 143.297 40.0867C143.297 39.1167 143.712 38.2521 144.542 37.4929Z" fill="#FE9E1A"/>
<path d="M20.3809 14.603C-44.8723 44.7909 78.6478 75.2425 147.197 41.0998" stroke="#FE9E1A" stroke-width="3.1638"/>
</svg>
