<svg width="26" height="20" viewBox="0 0 26 20" fill="none" xmlns="http://www.w3.org/2000/svg">
<path d="M13 0.000244141C13 0.000244141 5.18193 0.000204951 3.23193 0.522705C2.15568 0.810205 1.30996 1.65718 1.02246 2.73218C0.499961 4.68218 0.5 10.0002 0.5 10.0002C0.5 10.0002 0.499961 15.3183 1.02246 17.2683C1.30996 18.3446 2.15693 19.1903 3.23193 19.4778C5.18193 20.0003 13 20.0002 13 20.0002C13 20.0002 20.8181 20.0003 22.7681 19.4778C23.8431 19.1903 24.69 18.3433 24.9775 17.2683C25.5 15.3183 25.5 10.0002 25.5 10.0002C25.5 10.0002 25.5 4.68218 24.9775 2.73218C24.69 1.65718 23.8431 0.810205 22.7681 0.522705C20.8181 0.000204951 13 0.000244141 13 0.000244141ZM13 2.50024C16.6025 2.50024 21.1136 2.66726 22.1211 2.93726C22.3323 2.99351 22.5055 3.16665 22.563 3.37915C22.8642 4.50165 23 7.92774 23 10.0002C23 12.0727 22.8642 15.4976 22.563 16.6213C22.5067 16.8326 22.3336 17.0057 22.1211 17.0632C21.1148 17.3332 16.6025 17.5002 13 17.5002C9.39875 17.5002 4.88766 17.3332 3.87891 17.0632C3.66766 17.007 3.49451 16.8338 3.43701 16.6213C3.13576 15.4988 3 12.0727 3 10.0002C3 7.92774 3.13576 4.50171 3.43701 3.37671C3.49326 3.16671 3.66641 2.99351 3.87891 2.93726C4.88516 2.66726 9.3975 2.50024 13 2.50024ZM10.5 5.66919V14.3313L18 10.0002L10.5 5.66919Z" fill="#718096"/>
</svg>
