<svg width="52" height="60" viewBox="0 0 52 60" fill="none" xmlns="http://www.w3.org/2000/svg">
<rect width="52" height="60" fill="#2D7EFF"/>
<path d="M15.2886 34.7959V20.083H12.7573V19.7666L18.2153 14.5854V37.1294C18.2153 39.7134 18.4658 41.5063 18.9668 42.5083C19.4678 43.5366 20.1533 44.3013 21.0234 44.8022C18.8613 44.644 17.3584 43.853 16.5146 42.4292C15.6973 41.0317 15.2886 38.4873 15.2886 34.7959ZM23.792 8.53418V17.354H30.5552C31.7944 17.354 32.7305 17.2222 33.3633 16.9585C34.0488 16.6685 34.8398 16.0752 35.7363 15.1787H36.7251C35.1167 17.4199 33.9697 18.8042 33.2842 19.3315C32.625 19.8325 31.623 20.083 30.2783 20.083H23.792V35.1914C23.792 37.4326 23.9106 38.9751 24.1479 39.8188C24.3589 40.6362 24.873 41.3481 25.6904 41.9546C26.5078 42.5347 27.6548 42.8247 29.1313 42.8247C32.0581 42.8247 34.5894 41.4536 36.7251 38.7114L37.5557 39.186C35.3936 43.3784 32.2559 45.4746 28.1426 45.4746C26.376 45.4746 24.8994 45.0791 23.7129 44.2881C22.5 43.4971 21.6958 42.4951 21.3003 41.2822C20.9048 40.043 20.707 38.2632 20.707 35.9429V12.1333C21.8145 10.9731 22.8428 9.77344 23.792 8.53418Z" fill="white"/>
</svg>
