<svg width="52" height="60" viewBox="0 0 52 60" fill="none" xmlns="http://www.w3.org/2000/svg">
<rect width="52" height="60" fill="#2D7EFF"/>
<path d="M26.395 27.1551V39.8451C26.395 40.7451 26.575 41.3751 26.935 41.7351C27.295 42.0651 27.805 42.2301 28.465 42.2301C29.035 42.2301 29.635 42.0801 30.265 41.7801C30.895 41.4801 31.39 41.1051 31.75 40.6551C32.05 40.8951 32.26 41.2551 32.38 41.7351C32.53 42.2151 32.605 42.6501 32.605 43.0401C32.605 43.7301 32.365 44.4051 31.885 45.0651C31.405 45.7251 30.685 46.2651 29.725 46.6851C28.765 47.1051 27.61 47.3151 26.26 47.3151C24.16 47.3151 22.465 46.7151 21.175 45.5151C19.915 44.3151 19.285 42.3201 19.285 39.5301V27.1551H16.45V24.4101C17.23 24.2901 17.98 23.7951 18.7 22.9251C19.45 22.0251 20.08 20.9151 20.59 19.5951C21.13 18.2451 21.475 16.9101 21.625 15.5901C22.165 15.5001 22.66 15.4551 23.11 15.4551C24.19 15.4551 24.985 15.7701 25.495 16.4001C26.035 17.0001 26.305 17.6751 26.305 18.4251V23.1501H31.525C31.525 24.0501 31.48 24.8301 31.39 25.4901C31.3 26.1201 31.105 26.6751 30.805 27.1551H26.395Z" fill="#1E1E1E"/>
<path d="M41.6004 24.2171C41.6004 24.6033 41.5607 24.8756 41.4815 25.034H38.5108V27.9899C38.3424 28.0692 38.0701 28.1088 37.6938 28.1088C37.2779 28.1088 36.9858 28.0642 36.8174 27.9751V25.034H33.8615C33.7823 24.8459 33.7427 24.5736 33.7427 24.2171C33.7427 23.8012 33.7922 23.509 33.8912 23.3407H36.8174V20.3848C37.0254 20.2957 37.3126 20.2511 37.679 20.2511C38.0552 20.2511 38.3325 20.2957 38.5108 20.3848V23.3407H41.4815C41.5607 23.5288 41.6004 23.821 41.6004 24.2171Z" fill="#1E1E1E"/>
<circle cx="14.5" cy="17.5" r="4.5" fill="#1E1E1E"/>
</svg>
